/* XPM */
static char *aboutframe[] = {
/* columns rows colors chars-per-pixel */
"32 32 145 2",
"   c black",
".  c #000072",
"X  c #040A7A",
"o  c #06107E",
"O  c #204272",
"+  c #051282",
"@  c #081482",
"#  c #0A1A86",
"$  c #0A1D8A",
"%  c #0D228C",
"&  c #022095",
"*  c #00299E",
"=  c #0F2690",
"-  c #092996",
";  c #112B94",
":  c #123097",
">  c #14339A",
",  c #15399E",
"<  c #1C359E",
"1  c #022FA2",
"2  c #0530A0",
"3  c #0A34A2",
"4  c #0D38A3",
"5  c #173CA2",
"6  c #1A3EA3",
"7  c #03448A",
"8  c #024895",
"9  c #034C9C",
"0  c #1B5696",
"q  c #0043B9",
"w  c #0450A4",
"e  c #0553AB",
"r  c #0556B3",
"t  c #1540A7",
"y  c #1643A9",
"u  c #1943A5",
"i  c #1B46A8",
"p  c #1C4BAC",
"a  c #104AB5",
"s  c #134FB9",
"d  c #1F51B1",
"f  c #1F59B9",
"g  c #2B478D",
"h  c #2055B4",
"j  c #2159B6",
"k  c #235DBA",
"l  c #2D56B9",
"z  c #2E5ABC",
"x  c #2561BC",
"c  c #356FBE",
"v  c #0057D3",
"b  c #1259C3",
"n  c #0C65D5",
"m  c #0F66DC",
"M  c #0E69D6",
"N  c #1664CB",
"B  c #1D64C5",
"V  c #1A66CA",
"C  c #106CD8",
"Z  c #086BE3",
"A  c #007FFF",
"S  c #1474E7",
"D  c #107FED",
"F  c #1A7EE8",
"G  c #2063C3",
"H  c #267DDA",
"J  c #3672D3",
"K  c #3278DC",
"L  c #3979D8",
"P  c #217BE2",
"I  c #4A629E",
"U  c #4E6C94",
"Y  c #4F6E98",
"T  c #4F709D",
"R  c #4771B6",
"E  c #4D7AB0",
"W  c #5072A3",
"Q  c #0084FF",
"!  c #0982FF",
"~  c #0D8BFF",
"^  c #1581ED",
"/  c #1389FF",
"(  c #1E85F4",
")  c #1F88F9",
"_  c #1A91FF",
"`  c #2481E7",
"'  c #218EFF",
"]  c #298BF6",
"[  c #2B8EF8",
"{  c #2493FE",
"}  c #2C95FE",
"|  c #2998FF",
" . c #3680E2",
".. c #3591F6",
"X. c #3693F8",
"o. c #369EFF",
"O. c #399BFF",
"+. c #3AA0FF",
"@. c #6385BE",
"#. c #5992D4",
"$. c #4D9DEF",
"%. c #45A1FF",
"&. c #4AA5FD",
"*. c #4BA8FF",
"=. c #50A6FD",
"-. c #5DB1FF",
";. c #6C95CE",
":. c #63B4FF",
">. c #6BB1F7",
",. c #6CB8FF",
"<. c #70BAFF",
"1. c #7BBCFB",
"2. c #808285",
"3. c #81848C",
"4. c #828794",
"5. c #828A9B",
"6. c #838CA3",
"7. c #848FAB",
"8. c #8592B3",
"9. c #8695BC",
"0. c #8EA0C6",
"q. c #92A2C6",
"w. c #80BFFF",
"e. c #A4B0CE",
"r. c #82C1FF",
"t. c #88C5FF",
"y. c #9BC3EF",
"u. c #94CAFF",
"i. c #9ACEFF",
"p. c #AACAEF",
"a. c #A7D4FF",
"s. c #AAD6FF",
"d. c #B2CEEF",
"f. c #B5DAFF",
"g. c #B8DDFF",
"h. c #BDE0FF",
"j. c #CFD0D1",
"k. c #CFE2F7",
"l. c #C9E5FF",
"z. c #D2E9FF",
"x. c #D9EDFF",
"c. c #E9F4FF",
"v. c #F5FAFF",
"b. c gray100",
"n. c None",
/* pixels */
"n.n.n.n.n.n.n.n.n.n.n.n.n.n.n.n.n.n.n.n.n.n.n.n.n.n.n.n.n.n.n.n.",
"n.n.n.n.n.n.n.n.n.n.n.n.n.n.n.n.n.n.n.n.n.n.n.n.n.n.n.n.n.n.n.n.",
"n.n.n.n.n.n.n.n.n.n.k j j h d p p i i u 5 , n.n.n.n.n.n.n.n.n.n.",
"n.n.n.n.n.n.n.n.x k k j f N M M M n b y 5 , > > n.n.n.n.n.n.n.n.",
"n.n.n.n.n.n.n.x x k V F -.i.g.g.x.g.s.,.P a > : ; n.n.n.n.n.n.n.",
"n.n.n.n.n.n.x x x ^ <.x.c.c.c.c.c.c.c.c.c.u.P 4 ; = n.n.n.n.n.n.",
"n.n.n.n.n.x k B | g.x.x.x.c.b.b.v.k.x.x.x.x.l.&.4 % % n.n.n.n.n.",
"n.n.n.n.x x B *.l.l.l.l.l.b.b.b.b.q.d.l.l.l.l.l.1.3 $ # n.n.n.n.",
"n.n.n.x x B { s.g.g.g.g.l.b.b.b.v.e.@.h.g.g.g.g.g.=.- # @ n.n.n.",
"n.n.n.x k ^ u.a.a.a.a.a.s.c.b.b.v.T ;.a.a.a.a.s.a.a.H @ + n.n.n.",
"n.n.k x N *.u.u.u.u.u.u.u.i.p.q.g R u.u.u.u.u.u.u.u.,.2 o X n.n.",
"n.n.k k ^ 1.r.r.r.r.r.r.r.r.r.r.r.r.r.r.r.r.r.t.r.,.*.n X X n.n.",
"n.n.k f | <.<.<.,.<.<.u.g.g.g.z.x.y.>.,.<.<.:.+.~ Q Q Q # X n.n.",
"n.n.k N +.-.-.-.-.-.-.i.v.b.b.b.b.9.c -.*._ Q Q Q Q Q Q 1 . n.n.",
"n.n.h C +.*.*.*.*.*.*.*.$.x.b.b.b.9.x _ ~ Q ~ Q Q Q Q Q q . n.n.",
"n.n.h M | o.o.o.o.o.o.o.o.i.b.b.b.8.r Q Q Q Q Q Q Q Q Q q . n.n.",
"n.n.d M _ { { { { { { { { u.b.b.b.7.e Q Q Q Q Q Q Q Q Q q . n.n.",
"n.n.d M ~ / ~ ~ ~ ~ / / ~ t.b.b.b.6.w Q Q Q Q Q Q Q Q Q q . n.n.",
"n.n.p b Q Q Q ! Q Q Q Q Q w.b.b.b.5.9 Q Q Q Q Q Q Q Q Q * . n.n.",
"n.n.i p A Q ! A Q Q A A Q w.b.b.b.4.8 Q A Q A A Q Q Q A X . n.n.",
"n.n.i i Z A A A A A A A A w.b.b.b.3.7 Q A A Q A A A A v . . n.n.",
"n.n.i 6 s A A D ! ! ! ! ! r.b.b.b.@.7 ~ ! ! ! ! ! ! ! & . . n.n.",
"n.n.n.5 5 S / / ) / / / / f.b.b.b.j.O ~ / / / / / / m . . n.n.n.",
"n.n.n., 5 4 ] ' ' ' ' &.b.b.b.b.b.b.b.W ( ' ] ) ' ( + . . n.n.n.",
"n.n.n.n.> > y [ o.} } O.#.W Y Y U U U O H } } } ] $ . . n.n.n.n.",
"n.n.n.n.n.; ; 5 X.O.O.O.O.O.O.O.O.O.O.O.O.O.o...$ . . n.n.n.n.n.",
"n.n.n.n.n.n.= = > K %.%.%.%.%.%.%.%.%.%.%.%.K + . . n.n.n.n.n.n.",
"n.n.n.n.n.n.n.= % $ 6 L =.=.=.=.=.=.=.=.J ; . . . n.n.n.n.n.n.n.",
"n.n.n.n.n.n.n.n.$ # # @ $ 6 z z l l < X . . . . n.n.n.n.n.n.n.n.",
"n.n.n.n.n.n.n.n.n.n.+ o o X X . . . . . . . n.n.n.n.n.n.n.n.n.n.",
"n.n.n.n.n.n.n.n.n.n.n.n.n.n.n.n.n.n.n.n.n.n.n.n.n.n.n.n.n.n.n.n.",
"n.n.n.n.n.n.n.n.n.n.n.n.n.n.n.n.n.n.n.n.n.n.n.n.n.n.n.n.n.n.n.n."
};
