/* XPM */
static char *buddy_away[] = {
/* columns rows colors chars-per-pixel */
"16 16 105 2",
"   c black",
".  c #61411D",
"X  c #76552B",
"o  c #7D5A30",
"O  c #805F32",
"+  c #9A6B1F",
"@  c #886437",
"#  c #8A6938",
"$  c #8E6D3A",
"%  c #916F3E",
"&  c #94723D",
"*  c #9E7433",
"=  c #A57D2C",
"-  c #947340",
";  c #977442",
":  c #987742",
">  c #987842",
",  c #9E7D46",
"<  c #AC822C",
"1  c #B38528",
"2  c #A4834A",
"3  c #A8854D",
"4  c #A9894E",
"5  c #AA8A4F",
"6  c #AF8E54",
"7  c #AF9052",
"8  c #B39556",
"9  c #B69657",
"0  c #B8965A",
"q  c #B9965B",
"w  c #B8995A",
"e  c #BB995D",
"r  c #BB9E5B",
"t  c #BC9E5B",
"y  c #BFA15D",
"u  c #C09F61",
"i  c #C29F63",
"p  c #C5A24D",
"a  c #C9A14F",
"s  c #C2A55F",
"d  c #D1A544",
"f  c #D3AB40",
"g  c #C5A665",
"h  c #CAAD67",
"j  c #C9AA68",
"k  c #CBAB69",
"l  c #CAB065",
"z  c #CBB165",
"x  c #CEB06A",
"c  c #CFB16A",
"v  c #D5BE6D",
"b  c #D5BE6E",
"n  c #D4B470",
"m  c #DFC15A",
"M  c #F7D658",
"N  c #E9CF7F",
"B  c #EDD87D",
"V  c #FEF37A",
"C  c #F2D987",
"Z  c #F4DC87",
"A  c #F5DE88",
"S  c #F7E584",
"D  c #F8E784",
"F  c #FCE48D",
"G  c #FEE58E",
"H  c #FEEC8E",
"J  c #FEEC90",
"K  c #FEED90",
"L  c #FEF28C",
"P  c #FEF58C",
"I  c #FEF58E",
"U  c #FEF090",
"Y  c #FEF391",
"T  c #FEF591",
"R  c #FEF891",
"E  c #FEF892",
"W  c #FEFA92",
"Q  c #FEFB92",
"!  c #FEFE92",
"~  c #FEFE94",
"^  c #FEFE95",
"/  c #FEFE97",
"(  c #FEFB98",
")  c #FEFE98",
"_  c #FEFE9A",
"`  c #FEFE9B",
"'  c #FEFE9C",
"]  c #FEFE9F",
"[  c #FEFEA3",
"{  c #FEFEA4",
"}  c #FEFEA5",
"|  c #FEFEA9",
" . c #FEFEAC",
".. c #FEFEAE",
"X. c #FEFEAF",
"o. c #FEFEB2",
"O. c #FEFEB3",
"+. c #FEFEB7",
"@. c #FEFEB8",
"#. c #FEFEB9",
"$. c #FEFEBB",
"%. c #FEFEBC",
"&. c #FEFEBD",
"*. c gray100",
"=. c None",
/* pixels */
"=.=.=.=.=.=.=.=.=.=.=.=.=.=.=.=.",
"=.=.=.=.. q e @ . =.=.=.=.=.=.=.",
"=.=.=.=.. ! U F N j 6 o . =.=.=.",
"=.=.=.=.2 ~ ~ L k g u % a 0 ; . ",
"=.=.=.. ; h g k C G T y d Q ! h ",
". : w k Z F F J W ~ ~ B 1 ~ ! r ",
"9 ! Q Q Q ( { ..O.o.[ ~ + ` ~ 3 ",
"4 ~ ~ ` } @.&.&.&.o.[ ~ * V ~ # ",
"$ ! ` { ..@.&.@.o.{ ` ! 8 M S . ",
". P ` { } ....{ ' ~ Q J n f v . ",
". h ~ ~ ` ` ` ~ ~ Q H F A < s =.",
"=.7 ` { o.} ' ~ ! T T Q ~ = , =.",
"=.> ~ ' o.@...~ ! S h & p m X =.",
"=.. ~ ~ ~ I v t # O P . . 2 . =.",
"=.. 6 r > . . =.=.=.=.=.=.=.=.=.",
"=.=.=.=.=.=.=.=.=.=.=.=.=.=.=.=."
};
