/* XPM */
static char *buddy_connected[] = {
/* columns rows colors chars-per-pixel */
"16 16 187 2",
"   c #39388B",
".  c #39398C",
"X  c #3A3A8D",
"o  c #3B3B8E",
"O  c #3C3B8E",
"+  c #3C3B8F",
"@  c #3C3C8E",
"#  c #3D3D8F",
"$  c #3E3E90",
"%  c #3F3E90",
"&  c #3F3F90",
"*  c #403F91",
"=  c #404091",
"-  c #414091",
";  c #414192",
":  c #434196",
">  c #454397",
",  c #444493",
"<  c #464797",
"1  c #464199",
"2  c #464499",
"3  c #464598",
"4  c #48439B",
"5  c #48459B",
"6  c #49489B",
"7  c #4A489B",
"8  c #4A4A98",
"9  c #4B4A98",
"0  c #4A489C",
"q  c #4C499F",
"w  c #4C4A9E",
"e  c #4C4C99",
"r  c #4C4D9A",
"t  c #4D4E9A",
"y  c #4E4E99",
"u  c #4E4E9A",
"i  c #4C4C9C",
"p  c #4F509C",
"a  c #54539B",
"s  c #4E4BA0",
"d  c #514DA4",
"f  c #534FA6",
"g  c #5050A0",
"h  c #5151A1",
"j  c #5051A2",
"k  c #5153A0",
"l  c #5156A6",
"z  c #5852AB",
"x  c #5A53AC",
"c  c #5A53AE",
"v  c #5B53AF",
"b  c #5859A0",
"n  c #5C5CA2",
"m  c #5C5DA6",
"M  c #5859A8",
"N  c #5D5CAF",
"B  c #5F56B2",
"V  c #5D64B6",
"C  c #5D65BB",
"Z  c #605BB3",
"A  c #645EB6",
"S  c #6162AA",
"D  c #6667AF",
"F  c #6A6AAB",
"G  c #6D6BAE",
"H  c #616DB7",
"J  c #626BB8",
"K  c #6963B2",
"L  c #686AB2",
"P  c #6A6AB3",
"I  c #6968BB",
"U  c #6E6EB8",
"Y  c #7372BB",
"T  c #7473BE",
"R  c #7775BB",
"E  c #7477BF",
"W  c #7D7ABE",
"Q  c #6677CB",
"!  c #6877C5",
"~  c #6A7AC5",
"^  c #777DC9",
"/  c #7A7FC4",
"(  c #7B7FC4",
")  c #7D7FC5",
"_  c #7681CC",
"`  c #7C80C5",
"'  c #7789D7",
"]  c #7589DD",
"[  c #788DDE",
"{  c #7D91DA",
"}  c #7A8FE1",
"|  c #8180B6",
" . c #8684C3",
".. c #8081C9",
"X. c #8582C8",
"o. c #8C8CD0",
"O. c #9192C2",
"+. c #9292C9",
"@. c #9596CC",
"#. c #9A99CC",
"$. c #979EDE",
"%. c #9E9BD1",
"&. c #9898D8",
"*. c #9FA2DB",
"=. c #9CA3DE",
"-. c #A2A2CB",
";. c #A0A1CC",
":. c #A4A6CC",
">. c #A0A1D7",
",. c #A3A6DC",
"<. c #A8A9D5",
"1. c #ABABD5",
"2. c #AFB0D3",
"3. c #AFB2DD",
"4. c #ACB3E9",
"5. c #B0B5E4",
"6. c #B8C2F0",
"7. c #CBCFEE",
"8. c #C6CAF1",
"9. c #C6CEF7",
"0. c #C4CBFB",
"q. c #CBD1F3",
"w. c #C9D1F6",
"e. c #CFD3F2",
"r. c #CBD3FE",
"t. c #CBD5FD",
"y. c #CCD6FE",
"u. c #CFD6FE",
"i. c #CFD7FE",
"p. c #CFD8FE",
"a. c #D3D3ED",
"s. c #D8DAEE",
"d. c #D0D8FE",
"f. c #D0DBFE",
"g. c #D2DBFE",
"h. c #D3DBFE",
"j. c #D3DCFE",
"k. c #D3DDFE",
"l. c #D5DCFE",
"z. c #D6DDFE",
"x. c #D6E0FE",
"c. c #D7E0FE",
"v. c #D8E0FE",
"b. c #DAE1FE",
"n. c #DDE1F8",
"m. c #DCE2FE",
"M. c #DCE3FE",
"N. c #DDE2FE",
"B. c #DEE3FE",
"V. c #E2E1F1",
"C. c #E0E4FE",
"Z. c #E0E6FE",
"A. c #E0E7FE",
"S. c #E1E7FE",
"D. c #E2E7FE",
"F. c #E3E8FE",
"G. c #E3E9FE",
"H. c #E4E8FB",
"J. c #E4E9FE",
"K. c #E6EBFE",
"L. c #E6ECFE",
"P. c #E6EDFE",
"I. c #E7ECFE",
"U. c #E8ECFE",
"Y. c #E8EDFE",
"T. c #EBEEFE",
"R. c #E9F0FE",
"E. c #ECF0FE",
"W. c #EDF0FE",
"Q. c #EEF1FE",
"!. c #EEF2FE",
"~. c #F1F2FC",
"^. c #F1F3FE",
"/. c #F2F5FE",
"(. c #F2F7FE",
"). c #F3F6FE",
"_. c #F7F7FE",
"`. c #F5F8FE",
"'. c #F7F9FE",
"]. c #F9F9FB",
"[. c #F8F9FE",
"{. c #F9FCFE",
"}. c #FDFDFE",
"|. c #FDFEFE",
" X c #FEFEFE",
".X c gray100",
"XX c None",
/* pixels */
"] ! J XXB c z f XXXXXXXXXXXXXXXX",
"} _ c c A &.o.d XXXXXXXXXXXXXXXX",
"[ ^ I X.8.M.h.) 2 XXXXXXXXXXXXXX",
"C N ,.H.P.m.h.t./ # XXXXXXXXXXXX",
"4 W Q.Q.D.M.h.g.t./ 2 XXXXXXXXXX",
"K V. XQ.H.M.h.h.0...E 0 < XXXXXX",
" . X[.Q.Y.S.M.9.T %.).#.> # XXXX",
"E P._.).T.R.q.Y >.T.Q.{.;.# # XX",
"M 4.P.(._.7.U *.S.H.Y._. X1., XX",
"i a 5.(.a.P =.x.z.S.K.~._. Xn XX",
"XXXXp 3.@.$.p.t.h.M.D.~. X Xa XX",
"XXXXXX7 D 6.p.r.l.m.S.z.1.| l XX",
"XXXXXXXX+ L w.m.d.h.D.<.:.G Q XX",
"XXXXXXXXXXo S e.S.S. XO.+.` ' XX",
"XXXXXXXXXXXXo m s.].;.y 1 V { XX",
"XXXXXXXXXXXXXX# a F o # XXH ~ XX"
};
