/* XPM */
static char *buddy_group[] = {
/* columns rows colors chars-per-pixel */
"16 16 183 2",
"   c black",
".  c #030815",
"X  c #030725",
"o  c #230900",
"O  c #2B0E00",
"+  c #081548",
"@  c #050E60",
"#  c #343C4D",
"$  c #19427F",
"%  c #4E1C00",
"&  c #501A00",
"*  c #422300",
"=  c #4C2900",
"-  c #572E00",
";  c #5D2100",
":  c #640000",
">  c #681A31",
",  c #643600",
"<  c #6A3800",
"1  c #762D00",
"2  c #783E00",
"3  c #733D16",
"4  c #5C2758",
"5  c #49455C",
"6  c #59596B",
"7  c #031983",
"8  c #091684",
"9  c #122C96",
"0  c #14329A",
"q  c #103CA7",
"w  c #1739A0",
"e  c #1A3DA0",
"r  c #1A41A6",
"t  c #1D48AC",
"y  c #3656AA",
"u  c #3B6FBF",
"i  c #1875E1",
"p  c #425384",
"a  c #666FAB",
"s  c #018BFF",
"d  c #0D8DFF",
"f  c #148DFF",
"g  c #1D97FF",
"h  c #3F81D5",
"j  c #259EFF",
"k  c #2C9AFF",
"l  c #3BA0FF",
"z  c #558BD5",
"x  c #48A6FF",
"c  c #9E1220",
"v  c #A20000",
"b  c #AE2E00",
"n  c #A13D00",
"m  c #BA2E00",
"M  c #844A00",
"N  c #834B08",
"B  c #96540A",
"V  c #9B5500",
"C  c #855528",
"Z  c #835336",
"A  c #A05500",
"S  c #A55B04",
"D  c #B45200",
"F  c #A96112",
"G  c #A96215",
"H  c #B76216",
"J  c #835C40",
"K  c #C00000",
"L  c #C40000",
"P  c #C70000",
"I  c #C40808",
"U  c #CC0707",
"Y  c #CB1F1F",
"T  c #CD1F1F",
"R  c #CF1F1F",
"E  c #D20000",
"W  c #D11F1F",
"Q  c #D41F1F",
"!  c #D61F1F",
"~  c #D81F1F",
"^  c #DA1F1F",
"/  c #CC2D2D",
"(  c #CD2F2F",
")  c #E61212",
"_  c #F80000",
"`  c #FA0C0C",
"'  c #F51919",
"]  c #FF1010",
"[  c #FF1313",
"{  c #FF1818",
"}  c #FF1919",
"|  c #E12525",
" . c #FF3030",
".. c #FF3232",
"X. c #C86000",
"o. c #CF6200",
"O. c #C86800",
"+. c #C86B16",
"@. c #CE7518",
"#. c #D06300",
"$. c #C07528",
"%. c #D07F39",
"&. c #E25353",
"*. c #F64A4A",
"=. c #F25C5C",
"-. c #FC5252",
";. c #FF6666",
":. c #B18640",
">. c #A38767",
",. c #A98460",
"<. c #A98664",
"1. c #AC927B",
"2. c #AE947B",
"3. c #BE8C62",
"4. c #BD967C",
"5. c #D88418",
"6. c #DF8A13",
"7. c #C98030",
"8. c #D4892F",
"9. c #DB852D",
"0. c #DD8C29",
"q. c #D18139",
"w. c #D58E3B",
"e. c #D98031",
"r. c #D9883F",
"t. c #DE9D2E",
"y. c #DC9430",
"u. c #E6A503",
"i. c #E8AA0B",
"p. c #CA9159",
"a. c #DF9546",
"s. c #DB904C",
"d. c #D99D56",
"f. c #D89F5F",
"g. c #CDA878",
"h. c #DFA663",
"j. c #EA994A",
"k. c #E79B54",
"l. c #E4A55C",
"z. c #E0A773",
"x. c #EBB678",
"c. c #ECB778",
"v. c #EEB57E",
"b. c #FFB66B",
"n. c #FFB46D",
"m. c #FFB86F",
"M. c #FFB773",
"N. c #FFBA71",
"B. c #FFBE77",
"V. c #FBD80B",
"C. c #FFE20B",
"Z. c #FBDA4A",
"A. c #F9DC7F",
"S. c #FFE34D",
"D. c #A69A8C",
"F. c #A4A09B",
"G. c #83BDF8",
"H. c #97B9E8",
"J. c #8DC8FF",
"K. c #CEB387",
"L. c #C6B092",
"P. c #EE8686",
"I. c #F09393",
"U. c #FF9999",
"Y. c #F6C589",
"T. c #F0CA8D",
"R. c #FAC583",
"E. c #FFC484",
"W. c #FFC684",
"Q. c #FFC489",
"!. c #FFC68D",
"~. c #FFC987",
"^. c #FFCC8C",
"/. c #FACC93",
"(. c #FFD49E",
"). c #FFEE93",
"_. c #F9E6B8",
"`. c #C2DEFB",
"'. c #DFF0FF",
"]. c #E9DDC9",
"[. c #FFF9D5",
"{. c gray100",
"}. c None",
/* pixels */
"}.}.}.}.}.}.}.}., >.2.1.J % O   ",
"}.X.o.s.r.%.D < L.].].].].,.&   ",
"X.9._.[.[.[.T.+.g.K.K.K.K.<.; o ",
"#.A.).).).).).y.H :.:.C Z 4.f.* ",
"6.S.S.S.Z.t.q.z.S N 3 3.Q.n.j.2 ",
"u.C.V.i.@.v.!.M.$.p.E.B.N.N.a.- ",
"O.5.e.k.E.m.b.b.7.^.^.^.^.R.F F.",
"M 0.~.~.~.~.~.l.A w.c.x.h.G D.}.",
"  V 8.Y.(./.d.B   # 6 p 5 . }.}.",
"    = n m b 1   $ z `.'.H.y + }.",
"}.v P &.I.P./ > h J.J.J.J.G.e X ",
"}.P =.U.U.U.U./ a x x x l k i @ ",
"P | ;.;.;.;.-.*.c f f d s s s 7 ",
"v { .... .` _ _ E u g j j j j q ",
"U { [ [ { { { { ) 4 t r w 0 9 8 ",
"I ~ ~ ! ! W T T Y : }.}.}.}.}.}."
};
