/* XPM */
static char *buddy_offline[] = {
/* columns rows colors chars-per-pixel */
"16 16 186 2",
"   c #584770",
".  c #755256",
"X  c #37378B",
"o  c #36378F",
"O  c #38388B",
"+  c #39398C",
"@  c #3B3A8D",
"#  c #3A3A8E",
"$  c #3C3B8E",
"%  c #3D3D8E",
"&  c #3E3F8F",
"*  c #333A9C",
"=  c #3C3E92",
"-  c #3F3F90",
";  c #2E3BAF",
":  c #3139A2",
">  c #413F93",
",  c #474287",
"<  c #484386",
"1  c #434295",
"2  c #444396",
"3  c #454396",
"4  c #454496",
"5  c #474398",
"6  c #48459A",
"7  c #4C4A9E",
"8  c #4D4DA0",
"9  c #514FA1",
"0  c #524EA4",
"q  c #534EA6",
"w  c #544FA7",
"e  c #5450A6",
"r  c #5550A8",
"t  c #5650A8",
"y  c #5751A9",
"u  c #5A52AE",
"i  c #5B53AF",
"p  c #5A55AC",
"a  c #5B55AC",
"s  c #5C54AF",
"d  c #5959A7",
"f  c #5E5FA7",
"g  c #5959A9",
"h  c #5B5DA9",
"j  c #5E55B1",
"k  c #5E58B1",
"l  c #5E68B2",
"z  c #645FAF",
"x  c #6058B1",
"c  c #635DB5",
"v  c #6160AF",
"b  c #6567AE",
"n  c #6065B5",
"m  c #6766BB",
"M  c #6169B9",
"N  c #6A6DB5",
"B  c #6373BB",
"V  c #6F72BE",
"C  c #7275BD",
"Z  c #7473BF",
"A  c #6B73C3",
"S  c #6B77CC",
"D  c #6C7FCE",
"F  c #7D7BC6",
"G  c #7084D6",
"H  c #798DD7",
"J  c #7B91E4",
"K  c #A66530",
"L  c #D7730F",
"P  c #DA760F",
"I  c #DB7A0F",
"U  c #C97620",
"Y  c #E07808",
"T  c #E77D09",
"R  c #857A9E",
"E  c #E0800F",
"W  c #F58303",
"Q  c #FE8300",
"!  c #FE8400",
"~  c #FE8500",
"^  c #FE8600",
"/  c #FE8700",
"(  c #FE8B00",
")  c #FE8904",
"_  c #FE8C00",
"`  c #FE8D00",
"'  c #FE8E04",
"]  c #FE9208",
"[  c #FE9E12",
"{  c #FEA318",
"}  c #FEA913",
"|  c #FEAB1B",
" . c #F1A623",
".. c #F1A826",
"X. c #F8A028",
"o. c #FEAB20",
"O. c #FEAC2E",
"+. c #FEAA35",
"@. c #FEBC29",
"#. c #FEBC2B",
"$. c #FEBF2E",
"%. c #CF965C",
"&. c #C59369",
"*. c #F5BC74",
"=. c #FEC23A",
"-. c #FEC83F",
";. c #FECE40",
":. c #A9A1BB",
">. c #8280C8",
",. c #8389D0",
"<. c #8398DD",
"1. c #9996CC",
"2. c #8097E9",
"3. c #99A0D8",
"4. c #9CA0DC",
"5. c #A4A9DB",
"6. c #A9A8DD",
"7. c #B8B6DE",
"8. c #A0A6E1",
"9. c #ABB2EB",
"0. c #B3BDF3",
"q. c #BEC2E6",
"w. c #BEC3EE",
"e. c #F3C688",
"r. c #D2C5C6",
"t. c #C3C4E9",
"y. c #C6D3FE",
"u. c #CBD3FB",
"i. c #C8D2FE",
"p. c #CFD5F8",
"a. c #CCD6FE",
"s. c #CED7FE",
"d. c #CFD7FE",
"f. c #CEDAFE",
"g. c #CFDDFE",
"h. c #DDDBEC",
"j. c #D3D8F7",
"k. c #D0D8FD",
"l. c #D0DAFE",
"z. c #D1DAFE",
"x. c #D1DBFE",
"c. c #D5DCFE",
"v. c #D5DDFE",
"b. c #D6DDFE",
"n. c #D6DEFE",
"m. c #D7DEFE",
"M. c #D7E1FE",
"N. c #DAE0FE",
"B. c #DCE2FE",
"V. c #DDE3FE",
"C. c #DEE6FE",
"Z. c #EDE6E8",
"A. c #E1E4FE",
"S. c #E0E7FE",
"D. c #E2E7FE",
"F. c #E2E8FE",
"G. c #E3E8FE",
"H. c #E4E8FE",
"J. c #E6EBFE",
"K. c #E7EBFE",
"L. c #E8E8F3",
"P. c #E8EDFE",
"I. c #E9EDFE",
"U. c #E8EEFE",
"Y. c #E9EEFE",
"T. c #EBEEFE",
"R. c #E8F1FE",
"E. c #EBF0FE",
"W. c #ECF1FE",
"Q. c #EEF2FE",
"!. c #F0F2FE",
"~. c #F0F3FE",
"^. c #F1F3FE",
"/. c #F0F6FE",
"(. c #F2F7FE",
"). c #F3F6FE",
"_. c #F5F6FE",
"`. c #F7F9FD",
"'. c #F7F8FE",
"]. c #F8F9FE",
"[. c #FBFDFE",
"{. c #FBFEFE",
"}. c #FDFCFB",
"|. c #FCFCFE",
" X c #FEFEFE",
".X c None",
/* pixels */
"G D B .X.X.Xk i a .X.X.X.X.X.X.X",
"J H M .X.Xi c F a q .X.X.X.X.X.X",
"2.<.m t s >.w.k.4.e 6 .X.X.X.X.X",
"S A ,.Z 6.D.C.b.b.8.9 > .X.X.X.X",
".X8 V t.).S.V.b.k.f.9.d @ .X.X.X",
".Xt 7.{.T.G.A.m.x.s.s.0.h % .X.X",
"w 1. X).E.G.S.m.b.s.y.g.5.X .X.X",
"z L. X).!.T.S.V.b.f.r.*.:.o .X.X",
"k E.{.`.).T.D.C.M.h.X.} U K .X.X",
"h i.S.`.).Q.G.C.T. X%. .$.( / .X",
"4 C u.T._.!.T.Z.`.3.; L | =.( / ",
".XO N p.Q.).e.O.&.  . .XQ { [ Q ",
".X.X+ b j.{.+.#...P .X.X.XQ Q / ",
".X.X.X+ f q.R E -.#./ Q .X.X.X.X",
".X.X.X.X@ @ : P ( -.o.Q .X.X.X.X",
".X.X.X.X.X.X.X.X/ ( ] / .X.X.X.X"
};
