/* XPM */
static char *buddy_online[] = {
/* columns rows colors chars-per-pixel */
"16 16 209 2",
"   c #783931",
".  c #583757",
"X  c #493E7D",
"o  c #633C54",
"O  c #393686",
"+  c #39398B",
"@  c #39398C",
"#  c #3A398C",
"$  c #3B3B8E",
"%  c #393C95",
"&  c #3A3E96",
"*  c #3E3E90",
"=  c #3F3F90",
"-  c #343DA0",
";  c #433F92",
":  c #404091",
">  c #414191",
",  c #434195",
"<  c #454396",
"1  c #464497",
"2  c #4A499F",
"3  c #54559F",
"4  c #4345A3",
"5  c #4747A1",
"6  c #4848A3",
"7  c #4E4AA2",
"8  c #4F4BA3",
"9  c #524EA6",
"0  c #5354A0",
"q  c #5853A9",
"w  c #5952AA",
"e  c #5C53AE",
"r  c #5C54AF",
"t  c #5C55AF",
"y  c #5C57AF",
"u  c #595AA4",
"i  c #5C5CAB",
"p  c #5C55B0",
"a  c #5D58B0",
"s  c #5F58B1",
"d  c #5F5DB5",
"f  c #6063B5",
"g  c #6964B2",
"h  c #6969B6",
"j  c #686BB5",
"k  c #6F6ABB",
"l  c #6570BF",
"z  c #6F70B1",
"x  c #726FB8",
"c  c #7376B7",
"v  c #646CC3",
"b  c #7072C0",
"n  c #7B7AC4",
"m  c #7D7FC8",
"M  c #7D86CE",
"N  c #7385D1",
"B  c #7D8CD5",
"V  c #7F93DA",
"C  c #7A8FE1",
"Z  c #7F96E7",
"A  c #973C0E",
"S  c #983C0F",
"D  c #803C28",
"F  c #A33500",
"G  c #A33600",
"H  c #A43600",
"J  c #A43900",
"K  c #A63900",
"L  c #A73900",
"P  c #A83A00",
"I  c #AA3A00",
"U  c #AB3A00",
"Y  c #AB3D00",
"T  c #AC3C00",
"R  c #AF3E00",
"E  c #AC3E04",
"W  c #B03F00",
"Q  c #B13F00",
"!  c #B83C00",
"~  c #9B471E",
"^  c #90492F",
"/  c #934C2D",
"(  c #B24300",
")  c #B24400",
"_  c #B54000",
"`  c #B64300",
"'  c #B74301",
"]  c #B34A08",
"[  c #BD4600",
"{  c #BE4700",
"}  c #B84B00",
"|  c #BE4900",
" . c #BF4A00",
".. c #B6570D",
"X. c #C34C00",
"o. c #C44D00",
"O. c #C64E00",
"+. c #C84F00",
"@. c #C25100",
"#. c #C45800",
"$. c #C55A00",
"%. c #C65F00",
"&. c #C95000",
"*. c #C85700",
"=. c #C35512",
"-. c #D15000",
";. c #D15100",
":. c #D55F00",
">. c #CC6A00",
",. c #CC6C00",
"<. c #D06A03",
"1. c #D26E00",
"2. c #D67200",
"3. c #D17F3C",
"4. c #E17400",
"5. c #817FC4",
"6. c #D78100",
"7. c #DA8400",
"8. c #DA8B00",
"9. c #DD8900",
"0. c #DD9A00",
"q. c #E28E00",
"w. c #E89700",
"e. c #F18600",
"r. c #EEA600",
"t. c #F8A600",
"y. c #FEA600",
"u. c #F3B300",
"i. c #FDB500",
"p. c #D8935C",
"a. c #C58568",
"s. c #CC926E",
"d. c #C6907D",
"f. c #F6C300",
"g. c #F1CC00",
"h. c #F8C200",
"j. c #FED100",
"k. c #FCDD00",
"l. c #FEE800",
"z. c #B1A0B6",
"x. c #8180C2",
"c. c #8684CB",
"v. c #8B8FC6",
"b. c #8B8BCC",
"n. c #9095CB",
"m. c #8197E6",
"M. c #B6B7DC",
"N. c #BCB9DE",
"B. c #AEB0E6",
"V. c #B1B2E3",
"C. c #BFC3E7",
"Z. c #BBC0E9",
"A. c #BEC8F8",
"S. c #CFA89B",
"D. c #DAC4C3",
"F. c #DCCED5",
"G. c #C0C8F3",
"H. c #CBD2FB",
"J. c #C8D6FE",
"K. c #CED8FE",
"L. c #D5D7F3",
"P. c #D1DCFE",
"I. c #D5DCFE",
"U. c #D5DDFE",
"Y. c #D7DEFE",
"T. c #DBDBF0",
"R. c #D8DEFD",
"E. c #D3E1FE",
"W. c #DAE1FE",
"Q. c #DDE3FE",
"!. c #DDE6FE",
"~. c #DBE8FE",
"^. c #E0E1F6",
"/. c #E0E4FE",
"(. c #E0E7FE",
"). c #E1E6FE",
"_. c #E3E8FE",
"`. c #E3EBFE",
"'. c #E4E9FE",
"]. c #E6EBFE",
"[. c #E7EBFE",
"{. c #E6EEFE",
"}. c #EEEDF3",
"|. c #E8ECFE",
" X c #E9EDFE",
".X c #E8EEFE",
"XX c #E9EEFE",
"oX c #EBEEFE",
"OX c #E4F0FE",
"+X c #ECF0FE",
"@X c #EDF1FE",
"#X c #EEF2FE",
"$X c #EEF3FE",
"%X c #F1F3FE",
"&X c #F2F5FE",
"*X c #F2F6FE",
"=X c #F3F6FE",
"-X c #F5F6FE",
";X c #F6F7FE",
":X c #F0F9FE",
">X c #F7F8FB",
",X c #F7FEFE",
"<X c #F8F9FE",
"1X c #F9F9FE",
"2X c #F9FCFE",
"3X c #FBFEFE",
"4X c #FEFDFE",
"5X c #FEFEFE",
"6X c None",
/* pixels */
"C N l 6X6X6Xp s w 6X6X6X6X+.+.+.",
"m.V d e r r c.B.n 9 6X6X;.O.O.O.",
"Z B b y k V.R.!.H.m 4 ^ ;.*.X.6X",
"v f M b.L.oXQ.I.I.J.5.~ q.>.{ 6X",
"6X2 5.^.#X_.Q.R.P.K.a.6.g.@.6X6X",
"7 g T.3XoX'.!.W.E.d.1.k.0.' 6X6X",
"q N.5X&X#X'.!.~.S.<.f.l.8.E R 6X",
"x 1X5X;X#XoX{.D.=.2.r.u.f.7.) U ",
"h ].1X3X%XoXoXF.s.p.3.] w.j.9.R ",
"i A.!.:X>X@X].!.:X3Xz...y.i.,.L ",
", h G.$X&X#XoX>X5Xn.  2.y.%.G L ",
"6X# u V.&X&X>X>Xv.. } e.$.G L 6X",
"6X6X# 0 G.4X}.c % A :.#.G 6X6X6X",
"6X6X6X# 3 M.z O   ) ) J L 6X6X6X",
"6X6X6X6X$ > & 6X! U L 6X6X6X6X6X",
"6X6X6X6X6X$ 6XS U I 6X6X6X6X6X6X"
};
