/* XPM */
static char *debugframe[] = {
/* columns rows colors chars-per-pixel */
"32 32 118 2",
"   c black",
".  c gray1",
"X  c #151515",
"o  c gray9",
"O  c #181818",
"+  c #1D1D1D",
"@  c #1E1E1E",
"#  c gray14",
"$  c #252525",
"%  c gray15",
"&  c gray17",
"*  c #2C2C2C",
"=  c #2D2D2D",
"-  c #2F2F2F",
";  c gray19",
":  c gray20",
">  c gray22",
",  c gray25",
"<  c #414141",
"1  c gray26",
"2  c #444444",
"3  c #484848",
"4  c #4B4B4B",
"5  c #4E4E4E",
"6  c gray31",
"7  c #505050",
"8  c #555555",
"9  c gray34",
"0  c #585858",
"q  c gray35",
"w  c #5B5B5B",
"e  c #5F5F5F",
"r  c #606060",
"t  c gray38",
"y  c #626262",
"u  c gray39",
"i  c #646464",
"p  c #656565",
"a  c gray40",
"s  c #676767",
"d  c #686868",
"f  c #727272",
"g  c gray46",
"h  c #777777",
"j  c gray48",
"k  c #7B7B7B",
"l  c #7C7C7C",
"z  c #7E7E7E",
"x  c gray52",
"c  c gray54",
"v  c #8D8D8D",
"b  c gray56",
"n  c gray57",
"m  c #929292",
"M  c gray58",
"N  c #989898",
"B  c gray62",
"V  c gray63",
"C  c gray65",
"Z  c #A7A7A7",
"A  c #A9A9A9",
"S  c gray67",
"D  c #AFAFAF",
"F  c gray69",
"G  c #B2B2B2",
"H  c gray70",
"J  c gray71",
"K  c #BBBBBB",
"L  c gray",
"P  c gray75",
"I  c #C0C0C0",
"U  c #C3C3C3",
"Y  c #C5C5C5",
"T  c #C6C6C6",
"R  c gray78",
"E  c #CACACA",
"W  c gray81",
"Q  c #D0D0D0",
"!  c #D2D2D2",
"~  c #D8D8D8",
"^  c #DADADA",
"/  c gray86",
"(  c #DDDDDD",
")  c gray87",
"_  c #DFDFDF",
"`  c gray88",
"'  c #E1E1E1",
"]  c #E2E2E2",
"[  c gray89",
"{  c #E4E4E4",
"}  c gray90",
"|  c #E6E6E6",
" . c #E7E7E7",
".. c gray91",
"X. c #E9E9E9",
"o. c #EAEAEA",
"O. c gray92",
"+. c #ECECEC",
"@. c gray93",
"#. c #EEEEEE",
"$. c #EFEFEF",
"%. c gray94",
"&. c #F1F1F1",
"*. c gray95",
"=. c #F3F3F3",
"-. c #F4F4F4",
";. c gray96",
":. c #F6F6F6",
">. c gray97",
",. c #F8F8F8",
"<. c #F9F9F9",
"1. c gray98",
"2. c #FBFBFB",
"3. c gray99",
"4. c #FDFDFD",
"5. c #FEFEFE",
"6. c gray100",
"7. c None",
/* pixels */
"7.7.m m m m m m m m m m m m m m m m m m m m m m m m m m m 7.7.7.",
"7.7.m *.6.6.6.6.6.6.6.6.6.6.6.6.6.6.6.>.6.>.6.>.>.>.>.>.m 7.7.7.",
"7.7.m *.6.6.6.6.6.6.6.6.6.6.6.6.>.6.>.>.>.*.>.*.>.*.*.*.m 7.7.7.",
"7.7.m *.6.6.6.6.6.6.6.6.6.6.>.6.6.>.6.>.>.>.>.>.*.*.>.*.m 7.7.7.",
"7.7.m *.6.6.6.6.6.6.6.6.6.6.6.6.>.>.>.>.>.>.>.*.*.*.*.*.m 7.7.7.",
"7.7.m *.6.6.6.6.6.6.6.6.6.6.>.>.6.>.>.>.>.>.*.*.*.*.*.@.m 7.7.7.",
"7.7.m *.6.6.6.6.6.6.6.6.>.6.>.6.>.>.>.>.*.>.*.*.*.@.*.@.m 7.7.7.",
"7.7.m *.6.6.6.6.6.6.*.~ 6.6.6.>.>.>.>.>.*.>.*.*.*.*.*.*.m 7.7.7.",
"7.7.m *.6.6.6.6.6.6.T p 6.6.>.6.>.>.>.>.*.*.*.*.@.@.*.>.m 7.7.7.",
"7.7.m *.6.6.6.6.6.6.k O | 6.>.>.>.>.>.*.>.*.*.*.@.*.>.>.m 7.7.7.",
"7.7.m *.6.6.6.6.6.@.q 7 J 6.>.>.I *.>.>.*.*.*.@.*.6.] u   7.7.7.",
"7.7.m *.6.6.6.6.6.H k A l 6.6.@.5 Q >.*.*.*.*.>.>.D +     7.7.7.",
"7.7.m T I A N c l 1 T ) 9 *.6.Q   x 6.>.*.>.6.] e   $ B m 7.7.7.",
"7.7.              3 6.6.q E 6.A 1 : O.>.>.>.Z +   9 ] *.m 7.7.7.",
"7.7.7.7.  : g f p D 6.6.l m 6.x D X Z 6.) u   $ B >.6.O.m 7.7.7.",
"7.7.q @.| O.@.*.>.6.>.6.H p O.k >.q 1 c O   3 W 6.>.>.O.m 7.7.7.",
"7.7.m 6.6.6.6.6.6.6.>.6.] 9 Z b 6.J       g @.6.>.>.>.O.m 7.7.7.",
"7.7.m 6.6.6.6.6.>.6.>.6.6.p 5 K 6.@.> 1 L >.>.>.>.>.6.O.m 7.7.7.",
"7.7.m 6.6.6.6.6.6.>.>.>.6.b = ] >.>.L / 6.>.>.>.>.>.6.O.m 7.7.7.",
"7.7.m @.O.>.>.6.6.>.>.>.6.L u >.*.*.>.>.>.>.>.>.>.6.6.O.m 7.7.7.",
"7.7.m @./ ) | @.*.*.*.*.*.| T *.@.*.*.>.>.>.>.>.6.>.6.O.m 7.7.7.",
"7.7.m @.) ] ] ) | | | O.@.@.O.*.*.>.>.>.>.>.>.6.6.6.6.O.m 7.7.7.",
"7.7.m @.) ] ] | | | O.O.@.@.*.*.*.*.>.>.>.6.>.6.6.6.6.@.m 7.7.7.",
"7.7.m *.] ] | | O.O.O.@.@.@.*.*.>.>.>.>.m m m m m m m m m 7.7.7.",
"7.7.m @.| | | O.O.O.@.@.*.*.*.>.>.>.>.>.m @.>.>.*.6.*.9   7.7.7.",
"7.7.m *.| | | O.@.@.@.*.*.*.*.>.>.>.6.>.m >.>.6.6.>.u   7.7.7.7.",
"7.7.m >.| | O.O.@.@.*.*.*.>.>.>.>.6.>.6.m @.>.>.>.u   7.7.7.7.7.",
"7.7.m *.O.O.O.@.@.*.*.*.>.>.>.>.6.>.6.6.m O.*.*.p   7.7.7.7.7.7.",
"7.7.m *.O.O.@.@.*.*.*.>.>.>.>.>.>.6.6.6.m O.O.p   7.7.7.7.7.7.7.",
"7.7.m >.@.*.*.>.*.>.>.>.>.6.6.6.6.6.6.6.m ) u   7.7.7.7.7.7.7.7.",
"7.7.m >.@.*.@.*.>.>.*.>.>.>.>.>.>.>.>.>.m u   7.7.7.7.7.7.7.7.7.",
"7.7.m : : = : = = = = = = = = = = & & = $   7.7.7.7.7.7.7.7.7.7."
};
