/* XPM */
static char *fileframe_upload[] = {
/* columns rows colors chars-per-pixel */
"32 32 120 2",
"   c black",
".  c #001300",
"X  c #002400",
"o  c #002B00",
"O  c #003800",
"+  c #003900",
"@  c #003E00",
"#  c #004200",
"$  c #004300",
"%  c #004400",
"&  c #004500",
"*  c #004600",
"=  c #004700",
"-  c #004A00",
";  c #004D00",
":  c #005000",
">  c #005100",
",  c #005300",
"<  c #005500",
"1  c #005600",
"2  c #005800",
"3  c #005900",
"4  c #005A00",
"5  c #005B00",
"6  c #005C00",
"7  c #005D00",
"8  c #005E00",
"9  c #006000",
"0  c #006100",
"q  c #006200",
"w  c #006300",
"e  c DarkGreen",
"r  c #006600",
"t  c #006700",
"y  c #006900",
"u  c #006A00",
"i  c #006B00",
"p  c #006D00",
"a  c #006E00",
"s  c #006F00",
"d  c #007000",
"f  c #007300",
"g  c #007400",
"h  c #007500",
"j  c #007700",
"k  c #007800",
"l  c #007A00",
"z  c #007B00",
"x  c #007C00",
"c  c #007D00",
"v  c #007F00",
"b  c #008000",
"n  c #008100",
"m  c #008400",
"M  c #008600",
"N  c #008700",
"B  c #008800",
"V  c #008A00",
"C  c #008B00",
"Z  c #008C00",
"A  c #008F00",
"S  c #009000",
"D  c #009100",
"F  c #009200",
"G  c #009400",
"H  c #009500",
"J  c #009600",
"K  c #049600",
"L  c #009800",
"P  c #009900",
"I  c #009B00",
"U  c #009D00",
"Y  c #009E00",
"T  c #00A000",
"R  c #02A100",
"E  c #00A600",
"W  c #06A500",
"Q  c #00AD00",
"!  c #00AE00",
"~  c #00B100",
"^  c #00B500",
"/  c #05B305",
"(  c #00BA00",
")  c #00BB00",
"_  c #16A900",
"`  c #15AC00",
"'  c #1AB000",
"]  c #13B613",
"[  c #21B921",
"{  c #30BD30",
"}  c #00C000",
"|  c #00C100",
" . c #00C200",
".. c #00C800",
"X. c #00CD00",
"o. c #00D000",
"O. c #00D600",
"+. c #00D700",
"@. c #00DE00",
"#. c #0AD10A",
"$. c #00E600",
"%. c #00ED00",
"&. c #00F400",
"*. c #00FC00",
"=. c #15FF15",
"-. c #22D322",
";. c #3EC03E",
":. c #3AD53A",
">. c #3BFF3B",
",. c #41BC3B",
"<. c #4CC34C",
"1. c #51D751",
"2. c #69D969",
"3. c #61FF61",
"4. c #80DB80",
"5. c #86FF86",
"6. c #ACFFAC",
"7. c #D2FFD2",
"8. c gray100",
"9. c None",
/* pixels */
"9.9.9.9.9.9.9.9.9.9.9.9.9.9.9.9.9.9.9.9.9.9.9.9.9.9.9.9.9.9.9.9.",
"9.9.9.9.9.9.9.9.9.9.9.9.9.9.9.9.9.9.9.9.9.9.9.9.9.9.9.9.9.9.9.9.",
"9.9.9.9.9.9.9.9.9.9.9.9.9.9.9.9.9.9.9.9.9.9.9.9.9.9.9.9.9.9.9.9.",
"9.9.9.9.9.9.9.9.9.9.9.9.9.9.9.9.9.9.9.9.9.9.9.9.9.9.9.9.9.9.9.9.",
"9.9.9.9.9.9.9.9.9.9.9.9.9.9.9.9.9.9.9.9.9.9.9.9.9.9.9.9.9.9.9.9.",
"9.9.9.9.9.9.9.9.9.9.9.9.9.9.9.9.9.9.9.9.9.9.9.9.9.9.9.9.9.9.9.9.",
"9.9.9.9.9.9.9.9.` ' _     9.9.9.9.9.9.9.9.9.9.9.9.9.9.9.9.9.9.9.",
"9.9.9.9.9.9.9.R W ,.W K     9.9.9.9.9.9.9.9.9.9.9.9.9.9.9.9.9.9.",
"9.9.9.9.9.9.U U <.7.4.U F     9.9.9.9.9.9.9.9.9.9.9.9.9.9.9.9.9.",
"9.9.9.9.9.H P ;.6.6.6.2.P C     9.9.9.9.9.9.9.9.9.9.9.9.9.9.9.9.",
"9.9.9.9.F H { 5.5.5.5.5.1.H M     9.9.9.9.9.9.9.9.9.9.9.9.9.9.9.",
"9.9.9.Z Z [ 3.3.3.3.3.3.3.:.Z n     9.9.9.9.9.9.9.9.9.9.9.9.9.9.",
"9.9.M C ] >.>.>.>.>.>.>.>.>.-.C c     9.9.9.9.9.9.9.9.9.9.9.9.9.",
"9.n M / =.=.=.=.=.=.=.=.=.=.=.#.M j     9.9.9.9.9.9.9.9.9.9.9.9.",
"c c ! *.*.*.*.*.*.*.*.*.*.*.*.*.X.c j     9.9.9.9.9.9.9.9.9.9.9.",
"l l l l l l l O.&.&.&.&.R l l l l l l ,     9.9.9.9.9.9.9.9.9.9.",
"8 , % % % % s ~ %.%.%.%.) j 5 $ % % %       9.9.9.9.9.9.9.9.j j ",
"            a H $.$.$.$.$.M a +             9.9.9.9.9.9.9.s a i ",
"            r i +.@.@.@.@.+.c i $         9.9.9.9.9.9.r i i i $ ",
"9.9.9.9.9.9.% r R +.+.+.+.+.o.c r 8 ,     9.9.9.9.8 r r r r <   ",
"9.9.9.9.9.9.  5 r | o.o.o.o.o.o.E a 8 8 8 5 8 8 8 8 j F r <     ",
"9.9.9.9.9.9.9.+ 5 s | ..............! F M j j F P ( U 8 < .     ",
"9.9.9.9.9.9.9.  % 5 s ^ | | | | | | | | | | | | ) c 5 ;         ",
"9.9.9.9.9.9.9.9.  @ 5 8 F ( ( ( ( ( ( ( ( ( ! C 8 5 +         9.",
"9.9.9.9.9.9.9.9.    X , 5 8 c F U U U U C j 5 5 - .         9.9.",
"9.9.9.9.9.9.9.9.9.      o - < 5 5 5 5 5 5 ; @ .           9.9.9.",
"9.9.9.9.9.9.9.9.9.9.9.                                9.9.9.9.9.",
"9.9.9.9.9.9.9.9.9.9.9.9.                          9.9.9.9.9.9.9.",
"9.9.9.9.9.9.9.9.9.9.9.9.9.9.9.9.9.9.9.9.9.9.9.9.9.9.9.9.9.9.9.9.",
"9.9.9.9.9.9.9.9.9.9.9.9.9.9.9.9.9.9.9.9.9.9.9.9.9.9.9.9.9.9.9.9.",
"9.9.9.9.9.9.9.9.9.9.9.9.9.9.9.9.9.9.9.9.9.9.9.9.9.9.9.9.9.9.9.9.",
"9.9.9.9.9.9.9.9.9.9.9.9.9.9.9.9.9.9.9.9.9.9.9.9.9.9.9.9.9.9.9.9."
};
