/* XPM */
static char *fileframe_download[] = {
/* columns rows colors chars-per-pixel */
"32 32 138 2",
"   c black",
".  c #002900",
"X  c #002F00",
"o  c #003900",
"O  c #003D00",
"+  c #003E00",
"@  c #004100",
"#  c #004500",
"$  c #004900",
"%  c #004D00",
"&  c #004E00",
"*  c #005200",
"=  c #005300",
"-  c #005400",
";  c #005500",
":  c #005700",
">  c #005800",
",  c #005B00",
"<  c #005C00",
"1  c #005D00",
"2  c #005F00",
"3  c #006000",
"4  c #006200",
"5  c DarkGreen",
"6  c #006600",
"7  c #006800",
"8  c #006900",
"9  c #006B00",
"0  c #006D00",
"q  c #006F00",
"w  c #007000",
"e  c #007100",
"r  c #007200",
"t  c #007300",
"y  c #007400",
"u  c #007500",
"i  c #007600",
"p  c #007700",
"a  c #007800",
"s  c #007900",
"d  c #007A00",
"f  c #007B00",
"g  c #007E00",
"h  c #007F00",
"j  c #008100",
"k  c #008200",
"l  c #008300",
"z  c #008400",
"x  c #008500",
"c  c #008800",
"v  c #008900",
"b  c #008A00",
"n  c #008D00",
"m  c #008F00",
"M  c #0E8600",
"N  c #009000",
"B  c #009200",
"V  c #009300",
"C  c #009400",
"Z  c #009600",
"A  c #009700",
"S  c #059605",
"D  c #009900",
"F  c #009A00",
"G  c #009B00",
"H  c #039A00",
"J  c #009C00",
"K  c #009D00",
"L  c #069B06",
"P  c #0D9F0D",
"I  c #0E9D0E",
"U  c #00A000",
"Y  c #00A100",
"T  c #02A200",
"R  c #00A600",
"E  c #06A400",
"W  c #06A500",
"Q  c #00AD00",
"!  c #0CA40C",
"~  c #00B300",
"^  c #00B700",
"/  c #00BA00",
"(  c #14A500",
")  c #12AC00",
"_  c #14AB00",
"`  c #17AC00",
"'  c #15AB0F",
"]  c #18AC00",
"[  c #19AE00",
"{  c #15A315",
"}  c #17A817",
"|  c #1EAC1E",
" . c #1AB000",
".. c #25AE25",
"X. c #32B932",
"o. c #36BC36",
"O. c #00C100",
"+. c #00C600",
"@. c #00C800",
"#. c #00CF00",
"$. c #00D000",
"%. c #00D700",
"&. c #00DE00",
"*. c #1BC51B",
"=. c #00E600",
"-. c #00ED00",
";. c #00F400",
":. c #00FC00",
">. c #12F712",
",. c #14F714",
"<. c #15FF15",
"1. c #2CC02C",
"2. c #38F838",
"3. c #3BFF3B",
"4. c #48C948",
"5. c #41D441",
"6. c #50C24A",
"7. c #5FC859",
"8. c #50D050",
"9. c #51D751",
"0. c #53F153",
"q. c #65CF65",
"w. c #72D572",
"e. c #7DD377",
"r. c #68E468",
"t. c #61FF61",
"y. c #77F177",
"u. c #7DF87D",
"i. c #9BDE97",
"p. c #86FF86",
"a. c #95F395",
"s. c #A0F9A0",
"d. c #ACFFAC",
"f. c #BAEAB7",
"g. c #B6F3B6",
"h. c #D2FFD2",
"j. c gray100",
"k. c None",
/* pixels */
"k.k.k.k.k.k.k.k.k.k.k.k.k.k.k.k.k.k.k.k.k.k.k.k.k.k.k.k.k.k.k.k.",
"k.k.k.k.k.k.k.k.k.k.k.k.k.k.k.k.k.k.k.k.k.k.k.k.k.k.k.k.k.k.k.k.",
"k.k.k.k.k.k.k.k.k.k.k.k.k.k.k.k.k.k.k.k.k.k.k.k.k.k.k.k.k.k.k.k.",
"k.k.k.k.k.k.k.k.k.k.k.k.k.k.k.k.k.k.k.k.k.k.k.k.k.k.k.k.k.k.k.k.",
"k.k.k.k.k.k.k.k.k.k.k.k.k.k.k.k.k.k.k.k.k.k.k.k.k.k.k.k.k.k.k.k.",
"k.k.k.k.k.k.k.k.k.k.k.k.k.k.k.k.k.k.k.k.k.k.k.k.k.k.k.k.k.k.k.k.",
"k.k.k.k.k.k.k.k.) _ ` [  . . . . .[ ( M     k.k.k.k.k.k.k.k.k.k.",
"k.k.k.k.k.k.T T W W 6.e.f.f.f.f.i.7.' W G 1   k.k.k.k.k.k.k.k.k.",
"k.k.k.k.k.G J { q.g.h.h.h.h.h.h.h.h.h.w.! G p     k.k.k.k.k.k.k.",
"k.k.k.k.G G X.a.d.d.d.d.d.d.d.d.d.d.d.d.a.| A 8     k.k.k.k.k.k.",
"k.k.B B A 9.y.8.4.....o.4.r.p.p.p.p.p.p.p.u.} n o   k.k.k.k.k.k.",
"k.k.n S X.{ B n j h s j v n I 5.t.t.t.t.t.t.0.S s     k.k.k.k.k.",
"k.v v n v p :             $ s v I 2.3.3.3.3.3.*.v .   k.k.k.k.k.",
"j z z s X                     % j L >.<.<.<.<.>.z 8     k.k.k.k.",
"h h 8             k.k.k.k.      : h A :.:.:.:.:.R t     k.k.k.k.",
"s 3           k.k.k.k.k.k.p t t 6 q s +.;.;.;.;.^ s % 3 t q t t ",
"          k.k.k.k.k.k.k.t p p p p t p G -.-.-.-.#.p p t p p t p ",
"        k.k.k.k.k.k.k.k.  8 q ^ =.=.=.=.=.=.=.=.=.=.=.=.=.G q = ",
"k.k.k.k.k.k.k.k.k.k.k.k.    3 q ~ &.&.&.&.&.&.&.&.&.&.&.A 8 #   ",
"k.k.k.k.k.k.k.k.k.k.k.k.k.    1 3 Q %.%.%.%.%.%.%.%.%.B 6 #     ",
"k.k.k.k.k.k.k.k.k.k.k.k.k.k.    > 3 R #.#.#.#.#.#.#.v 3 @       ",
"k.k.k.k.k.k.k.k.k.k.k.k.k.k.k.    : 1 T @.@.@.@.@.z 1 +         ",
"k.k.k.k.k.k.k.k.k.k.k.k.k.k.k.k.    = > J O.O.O.z > +         k.",
"k.k.k.k.k.k.k.k.k.k.k.k.k.k.k.k.k.    = 1 A ^ j 1 +         k.k.",
"k.k.k.k.k.k.k.k.k.k.k.k.k.k.k.k.k.k.    : > t > +         k.k.k.",
"k.k.k.k.k.k.k.k.k.k.k.k.k.k.k.k.k.k.k.    : > +         k.k.k.k.",
"k.k.k.k.k.k.k.k.k.k.k.k.k.k.k.k.k.k.k.k.              k.k.k.k.k.",
"k.k.k.k.k.k.k.k.k.k.k.k.k.k.k.k.k.k.k.k.k.          k.k.k.k.k.k.",
"k.k.k.k.k.k.k.k.k.k.k.k.k.k.k.k.k.k.k.k.k.k.k.k.k.k.k.k.k.k.k.k.",
"k.k.k.k.k.k.k.k.k.k.k.k.k.k.k.k.k.k.k.k.k.k.k.k.k.k.k.k.k.k.k.k.",
"k.k.k.k.k.k.k.k.k.k.k.k.k.k.k.k.k.k.k.k.k.k.k.k.k.k.k.k.k.k.k.k.",
"k.k.k.k.k.k.k.k.k.k.k.k.k.k.k.k.k.k.k.k.k.k.k.k.k.k.k.k.k.k.k.k."
};
