/* XPM */
static char *findbuddyframe[] = {
/* columns rows colors chars-per-pixel */
"32 32 141 2",
"   c black",
".  c #744426",
"X  c #72452B",
"o  c #76492E",
"O  c #7C4A26",
"+  c #555578",
"@  c #5C5C7D",
"#  c #5E6080",
"$  c #5D6488",
"%  c #646484",
"&  c #6A6B89",
"*  c #616C90",
"=  c #64749B",
"-  c #6B7999",
";  c #71718E",
":  c #747793",
">  c #727F9A",
",  c #7C7C97",
"<  c #7E7E98",
"1  c #7DA5D3",
"2  c #7EACD7",
"3  c #7DAEE3",
"4  c #79B5F0",
"5  c #804D27",
"6  c #855227",
"7  c #895527",
"8  c #8E5827",
"9  c #805333",
"0  c #83583B",
"q  c #915B27",
"w  c #9A6228",
"e  c #A6661B",
"r  c #AB6B1B",
"t  c #B26F1B",
"y  c #B8741B",
"u  c #BE791B",
"i  c #A16728",
"p  c #A36928",
"a  c #AB6F29",
"s  c #A66F32",
"d  c #A87A3A",
"f  c #B57729",
"g  c #BE7E29",
"h  c #C47E1C",
"j  c #847B8A",
"k  c #887F8D",
"l  c #B69065",
"z  c #CA821B",
"x  c #D0871C",
"c  c #C7852A",
"v  c #C68B3A",
"b  c #C2923D",
"n  c #CC9B3E",
"m  c #D18C26",
"M  c #D59125",
"N  c #EBA122",
"B  c #CF9C4E",
"V  c #CC9F57",
"C  c #D19F40",
"Z  c #C19868",
"A  c #D4A241",
"S  c #D8A543",
"D  c #DCA843",
"F  c #DFBD7D",
"G  c #F1BB56",
"H  c #F1BD59",
"J  c #84849D",
"K  c #848AA2",
"L  c #898AA2",
"P  c #8798BB",
"I  c #9193A9",
"U  c #9999AE",
"Y  c #909BB0",
"T  c #9C9EB2",
"R  c #96A2B6",
"E  c #9BA0B7",
"W  c #A3A3B6",
"Q  c #A6A6B8",
"!  c #ABABBC",
"~  c #B2A9AE",
"^  c #9AA6C3",
"/  c #96BBD3",
"(  c #90BBDA",
")  c #85B2E3",
"_  c #8CB5E2",
"`  c #A8ADC1",
"'  c #A6B3C3",
"]  c #A1B3CC",
"[  c #A7BBC9",
"{  c #A8B7CC",
"}  c #AABBC9",
"|  c #A4BAD4",
" . c #B3B3C3",
".. c #B8B8C6",
"X. c #BBBBC9",
"o. c #87C1EF",
"O. c #87C5F6",
"+. c #89C4F4",
"@. c #8BC8F7",
"#. c #9BC5EA",
"$. c #93CDF4",
"%. c #99CDF1",
"&. c #96D1F8",
"*. c #9DD3F2",
"=. c #9AD5F8",
"-. c #9ED8F9",
";. c #AFCDDC",
":. c #B6C2CE",
">. c #A3DCF9",
",. c #A7E0FA",
"<. c #ABE3FB",
"1. c #B2E5F7",
"2. c #B0E6FB",
"3. c #B3EAFC",
"4. c #BAEEFC",
"5. c #BCF1FC",
"6. c #E5C983",
"7. c #F7D78D",
"8. c #F7D88E",
"9. c #F7D890",
"0. c #FFE99C",
"q. c #FFEAA0",
"w. c #FCF1BF",
"e. c #C2C2CF",
"r. c #C6C6D2",
"t. c #CACAD5",
"y. c #C1DBE2",
"u. c #C1F5FD",
"i. c #C5F9FE",
"p. c #CBFDFE",
"a. c #D6EAEE",
"s. c #D4FEFF",
"d. c #DBFEFF",
"f. c #FCF1C0",
"g. c #E0F5F7",
"h. c #E3FFFF",
"j. c #EAF4F7",
"k. c #EBFEFF",
"l. c #F3FFFF",
"z. c #FEFFFF",
"x. c None",
/* pixels */
"x.x.x.x.x.x.....X.e.t.r.........x.x.x.x.x.x.x.x.x.x.x.x.x.x.x.x.",
"x.x.x.x. . .] _ +.O.@.@.@.#.|  . .x.x.x.x.x.x.x.x.x.x.x.x.x.x.x.",
"x.x.x.! ` ) O.=.-.>.>.>.<.<.-.%.{ ! ! x.x.x.x.x.x.x.x.x.x.x.x.x.",
"x.x.Q ^ 4 &.-.>.<.<.<.>.<.<.3.3.>.| Q W x.x.x.x.x.x.x.x.x.x.x.x.",
"x.T T 4 =.>.<.4.4.4.5.3.-.>.,.4.5.<.] U x.x.x.x.x.x.x.x.x.x.x.x.",
"x.U 3 &.>.3.5.i.p.p.<.i.5.<.2.3.5.u.1.T U x.x.x.x.x.x.x.x.x.x.x.",
"I P O.-.<.5.p.s.d.d.3.5.p.4.5.5.5.i.u.;.I x.x.x.x.x.x.x.x.x.x.x.",
"L 1 =.-.3.i.s.h.k.k.4.4.d.5.i.p.p.p.p.u.L J x.x.x.x.x.x.x.x.x.x.",
"K _ =.,.4.i.s.h.l.l.4.u.d.p.p.p.s.p.s.p.R J x.x.x.x.x.x.x.x.x.x.",
"L +.-.,.3.i.s.h.k.u.5.p.h.p.d.s.d.s.d.p.} < x.x.x.x.x.x.x.x.x.x.",
"I @.-.<.<.>.<.4.4.5.p.h.d.d.d.d.d.d.d.d.[ : x.x.x.x.x.x.x.x.x.x.",
"< @.-.<.2.4.<.3.5.i.d.k.d.d.h.h.h.h.h.h.' ; x.x.x.x.x.x.x.x.x.x.",
"& +.>.<.-.4.i.p.s.d.d.d.d.h.k.k.k.k.k.h.L & x.x.x.x.x.x.x.x.x.x.",
"% 1 >.<.>.>.<.4.i.p.p.d.h.h.k.k.l.l.l.d.% % x.x.x.x.x.x.x.x.x.x.",
"@ = -.<.<.>.3.5.i.p.d.d.h.h.k.l.l.l.l...@ x.x.x.x.x.x.x.x.x.x.x.",
"x.+ 2 <.3.<.2.5.i.p.s.d.h.k.l.l.z.l.j.& @ x.x.x.x.x.x.x.x.x.x.x.",
"x.+ $ %.3.4.4.5.p.p.s.d.h.k.k.l.l.l.I ; J x.x.x.x.x.x.x.x.x.x.x.",
"x.x.+ * *.4.5.5.u.p.p.d.h.k.k.k.l.I ; Q ; x.x.x.x.x.x.x.x.x.x.x.",
"x.x.x.+ $ ( 4.5.p.p.s.d.d.h.h.a.K ; ..U Q X.v c x.x.x.x.x.x.x.x.",
"x.x.x.x.+ + - / 5.i.p.s.h.;.Y @ % Q J X. .Z m x g x.x.x.x.x.x.x.",
"x.x.x.x.x.x.+ + + & > : @ + + + x.< x.L l B G N z f x.x.x.x.x.x.",
"x.x.x.x.x.x.x.x.x.+ + + x.x.x.x.x.x.x.s V w.7.G N h a x.x.x.x.x.",
"x.x.x.x.x.x.x.x.x.x.x.x.x.x.x.x.x.x.x.p D q.w.7.G N u i x.x.x.x.",
"x.x.x.x.x.x.x.x.x.x.x.x.x.x.x.x.x.x.x.w w S q.w.8.G N y w x.x.x.",
"x.x.x.x.x.x.x.x.x.x.x.x.x.x.x.x.x.x.x.x.q 8 A 0.f.8.H N t 8 x.x.",
"x.x.x.x.x.x.x.x.x.x.x.x.x.x.x.x.x.x.x.x.x.7 7 C 0.f.8.H N r 6 x.",
"x.x.x.x.x.x.x.x.x.x.x.x.x.x.x.x.x.x.x.x.x.x.5 O n 0.f.8.H N e O ",
"x.x.x.x.x.x.x.x.x.x.x.x.x.x.x.x.x.x.x.x.x.x.x.. . n 0.f.9.H m o ",
"x.x.x.x.x.x.x.x.x.x.x.x.x.x.x.x.x.x.x.x.x.x.x.x.. . b 0.f.F 9 J ",
"x.x.x.x.x.x.x.x.x.x.x.x.x.x.x.x.x.x.x.x.x.x.x.x.x.. . d 6.0 ~ & ",
"x.x.x.x.x.x.x.x.x.x.x.x.x.x.x.x.x.x.x.x.x.x.x.x.x.x.. . . j @ @ ",
"x.x.x.x.x.x.x.x.x.x.x.x.x.x.x.x.x.x.x.x.x.x.x.x.x.x.x.x.x.x.x.x."
};
