/* XPM */
static char *imframe_send[] = {
/* columns rows colors chars-per-pixel */
"16 16 142 2",
"   c #00006B",
".  c #00006C",
"X  c #00006D",
"o  c #00006F",
"O  c #000070",
"+  c #000071",
"@  c #000072",
"#  c #000373",
"$  c #010273",
"%  c #000274",
"&  c #030575",
"*  c #00097A",
"=  c #030878",
"-  c #000B7F",
";  c #000C7F",
":  c #050C7B",
">  c #060C78",
",  c #050C7C",
"<  c #070E7E",
"1  c #09137F",
"2  c #001285",
"3  c #011686",
"4  c #001689",
"5  c #051B8A",
"6  c #091884",
"7  c #0C1885",
"8  c #0B1B89",
"9  c #0D228C",
"0  c #0D248D",
"q  c #0B2690",
"w  c #0F2B99",
"e  c #0F2D99",
"r  c #0F3097",
"t  c #0D309D",
"y  c #102A95",
"u  c #112E95",
"i  c #122D94",
"p  c #172C96",
"a  c #16399E",
"s  c #0D35A1",
"d  c #0F3AA5",
"f  c #0D39AB",
"g  c #173CA0",
"h  c #0545BD",
"j  c #0F48B1",
"k  c #0D50BC",
"l  c #1140A9",
"z  c #1246AD",
"x  c #1A44A6",
"c  c #1D48A9",
"v  c #154AB1",
"b  c #164FB6",
"n  c #1952B5",
"m  c #1855B9",
"M  c #1A5ABD",
"N  c #2562BE",
"B  c #0054CF",
"V  c #1959C1",
"C  c #1A5FC1",
"Z  c #0063DD",
"A  c #1D60C1",
"S  c #1F64C4",
"D  c #1865CA",
"F  c #1D62CA",
"G  c #0F79E8",
"H  c #007FFF",
"J  c #177DE8",
"K  c #226FD5",
"L  c #3470D3",
"P  c #2278E0",
"I  c #0080FF",
"U  c #0081FF",
"Y  c #0083FF",
"T  c #0184FF",
"R  c #0186FF",
"E  c #0686FF",
"W  c #008AFF",
"Q  c #0589FF",
"!  c #0E85FF",
"~  c #0F87FD",
"^  c #0F87FF",
"/  c #0B88FF",
"(  c #0C89FF",
")  c #0D89FF",
"_  c #0E89FF",
"`  c #1391FF",
"'  c #2F81E7",
"]  c #238DFB",
"[  c #2193FF",
"{  c #2490FF",
"}  c #2491FF",
"|  c #2595FF",
" . c #2696FF",
".. c #2697FF",
"X. c #219AFF",
"o. c #2299FF",
"O. c #2997FF",
"+. c #2998FF",
"@. c #2B98FF",
"#. c #2D99FF",
"$. c #319FFF",
"%. c #399CFF",
"&. c #3DA2FF",
"*. c #3DA4FF",
"=. c #3EA6FF",
"-. c #4089E6",
";. c #4C94E6",
":. c #479DF2",
">. c #49A7FF",
",. c #4AA7FF",
"<. c #4CA8FF",
"1. c #4DA9FF",
"2. c #4CACFF",
"3. c #4CAFFF",
"4. c #55A4F2",
"5. c #50AAFF",
"6. c #51ABFF",
"7. c #53AFFF",
"8. c #59B2FF",
"9. c #64BBFF",
"0. c #6BB7FF",
"q. c #69BBFF",
"w. c #71BAFF",
"e. c #73BAFC",
"r. c #72BCFF",
"t. c #74C1FF",
"y. c #7AC0FE",
"u. c #8AC6FF",
"i. c #8BC6FF",
"p. c #92CAFF",
"a. c #94CCFF",
"s. c #A7D4FF",
"d. c #A8D5FF",
"f. c #AEDCFF",
"g. c #B1D8FF",
"h. c #B1DBFF",
"j. c #C4E6FF",
"k. c #C8E5FF",
"l. c #CEE7FF",
"z. c #D3EDFF",
"x. c gray100",
"c. c None",
/* pixels */
"c.c.N S D n c x c.c.c.c.c.c.c.c.",
"c.c.A :.f.;.j g c.c.c.c.c.c.c.c.",
"c.c.C q.x.z.4.k r u c.c.c.c.c.c.",
"c.c.M 8.l.k.j.e.V q 9 c.c.c.c.c.",
"c.c.m 2.g.s.d.g.r.F 5 1 c.c.c.c.",
"c.c.b =.p.u.u.u.a.t.K 3 & c.c.c.",
"c.c.v $.w.0.0.0.0.r.9.P 3 $ c.c.",
"c.c.z o.5.<.<.>.<.5.5.3.J - c.c.",
"c.c.l ` #.@.@.O.@...[ X.G 2 c.c.",
"c.c.d Q ~ / / ~ E T W Z 2 . c.c.",
"c.c.s T U U U H U T B *   c.c.c.",
"c.c.t ~ ! ! ! ^ ~ h # . c.c.c.c.",
"c.c.e  .} }  .] f $ . c.c.c.c.c.",
"c.c.y *.%.&.' w . . c.c.c.c.c.c.",
"c.c.8 ' 7.L ,   c.c.c.c.c.c.c.c.",
"c.c.> 7 p : . c.c.c.c.c.c.c.c.c."
};
