/* XPM */
static char *imframe_close[] = {
/* columns rows colors chars-per-pixel */
"16 16 159 2",
"   c #000070",
".  c #000071",
"X  c #010371",
"o  c #071384",
"O  c #00158A",
"+  c #01178B",
"@  c #02178A",
"#  c #021B8D",
"$  c #07198B",
"%  c #0C1685",
"&  c #0B1F8A",
"*  c #0F1D8A",
"=  c #0F1E8A",
"-  c #021E90",
";  c #101E8A",
":  c #0E218B",
">  c #012697",
",  c #082392",
"<  c #0D2790",
"1  c #0F2890",
"2  c #0E2994",
"3  c #0C2D9A",
"4  c #11218D",
"5  c #132590",
"6  c #132992",
"7  c #112D95",
"8  c #102C97",
"9  c #122F97",
"0  c #152C95",
"q  c #173098",
"w  c #17359D",
"e  c #18349B",
"r  c #1A379E",
"t  c #0635A3",
"y  c #074ABA",
"u  c #1442AA",
"i  c #1842A8",
"p  c #1D40A9",
"a  c #1848AE",
"s  c #1F4AAC",
"d  c #144BB3",
"f  c #1649B0",
"g  c #1750B5",
"h  c #1B54B8",
"j  c #1D57BA",
"k  c #204EAF",
"l  c #2252B2",
"z  c #2355B5",
"x  c #205BBD",
"c  c #2459B8",
"v  c #265DBB",
"b  c #285BBE",
"n  c #2360BC",
"m  c #2260BF",
"M  c #2460BD",
"N  c #2762BD",
"B  c #2861BD",
"V  c #165FC3",
"C  c #1760C4",
"Z  c #1F63C4",
"A  c #146DD6",
"S  c #007EFF",
"D  c #007FFF",
"F  c #2364C3",
"G  c #2664C2",
"H  c #2A64C1",
"J  c #0082FF",
"K  c #0083FF",
"L  c #0085FF",
"P  c #0086FF",
"I  c #0583FF",
"U  c #0785FF",
"Y  c #0787FF",
"T  c #0088FF",
"R  c #008CFF",
"E  c #008EFF",
"W  c #0589FF",
"Q  c #048AFF",
"!  c #0788FF",
"~  c #0789FF",
"^  c #0D85FF",
"/  c #0C86FF",
"(  c #0D86FF",
")  c #0E85FF",
"_  c #0D8BFF",
"`  c #0F8FFF",
"'  c #0491FF",
"]  c #188DFF",
"[  c #1894FF",
"{  c #2296FF",
"}  c #2490FF",
"|  c #2494FF",
" . c #2495FF",
".. c #2597FF",
"X. c #2696FF",
"o. c #279CFF",
"O. c #2A98FF",
"+. c #2D9FFF",
"@. c #3898FA",
"#. c #3899FC",
"$. c #399BFF",
"%. c #3BA0FF",
"&. c #3BA1FF",
"*. c #42A3FF",
"=. c #47A5FB",
"-. c #44A4FF",
";. c #43AAFF",
":. c #42ADFF",
">. c #48A6FD",
",. c #4DA3FA",
"<. c #4DA3FB",
"1. c #4EA9FB",
"2. c #4DA9FC",
"3. c #4FAAFF",
"4. c #54B0FF",
"5. c #54B1FF",
"6. c #55B1FF",
"7. c #55B2FF",
"8. c #57B3FF",
"9. c #56B4FF",
"0. c #5EB1FF",
"q. c #5FB1FF",
"w. c #5FB2FF",
"e. c #60B2FF",
"r. c #62B3FF",
"t. c #6BBDFF",
"y. c #72BAFF",
"u. c #7ABEFF",
"i. c #7CBEFF",
"p. c #70C3FF",
"a. c #7EC6FF",
"s. c #7FC6FF",
"d. c #80C0FF",
"f. c #81C1FF",
"g. c #81CBFF",
"h. c #88CFFF",
"j. c #96CCFF",
"k. c #97CCFF",
"l. c #99CDFF",
"z. c #9BCEFF",
"x. c #9DCFFF",
"c. c #9BD7FF",
"v. c #A3D1FF",
"b. c #A2D8FF",
"n. c #B1D9FF",
"m. c #B0DFFF",
"M. c #B2DFFF",
"N. c #B9DDFF",
"B. c #B1E0FF",
"V. c #B1E1FF",
"C. c #B2E2FF",
"Z. c #CAE6FF",
"A. c #DBEDFF",
"S. c #DCEFFF",
"D. c #EFF7FF",
"F. c #EDF8FF",
"G. c #EDFAFF",
"H. c #F6FBFF",
"J. c #F7FBFF",
/* pixels */
"N x C F H B v c z l k k u t : : ",
"N A 2.b.m.m.m.B.B.B.B.C.c.2.y : ",
"C =.G.H.D.D.D.D.D.D.D.D.H.G.=.> ",
"Z a.S.Z.Z.Z.Z.Z.Z.Z.Z.Z.Z.A.h.3 ",
"G a.N.n.n.n.n.n.n.n.n.n.n.N.g.9 ",
"m t.x.k.k.k.k.k.k.k.k.k.k.v.p.2 ",
"x 8.f.u.u.u.u.u.u.i.f.y.r.0.:., ",
"j ;.r.0.0.0.0.0.0.3.{ _ ~ ~ ' - ",
"h +.-.*.*.*.*.*.O.P P P P P E # ",
"d [ X.{ X.X.} ] J P J J J J E + ",
"d Q Y Y Y Y J S S S J S S S P + ",
"f ` / / ) ) ) ) ) ) ) ) ) ) ` + ",
"a X.} } } } } } } } } } } } o.$ ",
"i $.$.$.$.$.$.$.$.$.$.$.$.%.@.o ",
"9 b ,.7.4.7.7.7.7.7.7.7.8.<.r X ",
"9 1 w r w q 0 6 5 4 = = 4 % X X "
};
