/* XPM */
static char *imframe[] = {
/* columns rows colors chars-per-pixel */
"32 32 257 2",
"   c black",
".  c #12121E",
"X  c #141420",
"o  c #161621",
"O  c #202035",
"+  c #242437",
"@  c #27273A",
"#  c #282837",
"$  c #2A2A45",
"%  c #2E2E48",
"&  c #37374F",
"*  c #393957",
"=  c #3B3B61",
"-  c #434367",
";  c #49496F",
":  c #454571",
">  c #464674",
",  c #484870",
"<  c #4F4F70",
"1  c #4D4D7A",
"2  c #50507F",
"3  c #53537C",
"4  c #5E5E7E",
"5  c #4E4E81",
"6  c #525281",
"7  c #555580",
"8  c #55558F",
"9  c #56568D",
"0  c #5B5B8D",
"q  c #585891",
"w  c #585895",
"e  c #5A5A95",
"r  c #5B5B97",
"t  c #5F5F92",
"y  c #5E5E95",
"u  c #5E5E99",
"i  c #5E5E9A",
"p  c #616185",
"a  c #666687",
"s  c #60608B",
"d  c #626288",
"f  c #61618F",
"g  c #62629B",
"h  c #61619C",
"j  c #646499",
"k  c #64649D",
"l  c #64649E",
"z  c #66669F",
"x  c #6B6B97",
"c  c #696999",
"v  c #68689B",
"b  c #6C6C98",
"n  c #727288",
"m  c #747496",
"M  c #6767A0",
"N  c #6B6BA1",
"B  c #6A6AA2",
"V  c #6C6CA4",
"C  c #6E6EA4",
"Z  c #6F6FA6",
"A  c #7070A6",
"S  c #7272A7",
"D  c #7777A7",
"F  c #7373A8",
"G  c #7575A9",
"H  c #7777AB",
"J  c #7676AB",
"K  c #7979A2",
"L  c #7B7BA4",
"P  c #7C7CA2",
"I  c #7A7AA8",
"U  c #7979AC",
"Y  c #7979AD",
"T  c #7A7AAD",
"R  c #7C7CAD",
"E  c #7E7EB0",
"W  c #7F7FB1",
"Q  c #8787A5",
"!  c #8282B3",
"~  c #8585B3",
"^  c #8686B3",
"/  c #8686B5",
"(  c #8787B6",
")  c #8989B3",
"_  c #8888B5",
"`  c #8888B7",
"'  c #8989B7",
"]  c #8D8DB2",
"[  c #8F8FB2",
"{  c #8A8AB8",
"}  c #8B8BB8",
"|  c #8C8CB9",
" . c #8D8DBA",
".. c #8E8EBA",
"X. c #8F8FBB",
"o. c #9090BB",
"O. c #9191BC",
"+. c #9292BD",
"@. c #9393BE",
"#. c #9494BB",
"$. c #9595BC",
"%. c #9494BE",
"&. c #9696BE",
"*. c #9696BF",
"=. c #9898BE",
"-. c #9D9DBF",
";. c #9797C0",
":. c #9999C0",
">. c #9999C1",
",. c #9999C2",
"<. c #9C9CC1",
"1. c #9D9DC1",
"2. c #9C9CC3",
"3. c #9D9DC3",
"4. c #9E9EC2",
"5. c #9C9CC4",
"6. c #9D9DC4",
"7. c #9D9DC5",
"8. c #9E9EC5",
"9. c #9F9FC5",
"0. c #9F9FC6",
"q. c #A0A0C5",
"w. c #A1A1C5",
"e. c #A0A0C6",
"r. c #A2A2C7",
"t. c #A4A4C3",
"y. c #A4A4C7",
"u. c #A3A3C8",
"i. c #A4A4C8",
"p. c #A5A5CA",
"a. c #A6A6CA",
"s. c #A7A7CA",
"d. c #A8A8C8",
"f. c #A8A8CA",
"g. c #AAAACB",
"h. c #ABABCB",
"j. c #A9A9CC",
"k. c #AAAACC",
"l. c #ABABCC",
"z. c #ACACCA",
"x. c #ACACCC",
"c. c #ACACCD",
"v. c #ADADCE",
"b. c #AEAECE",
"n. c #AEAECF",
"m. c #AFAFD0",
"M. c #B1B1CF",
"N. c #B1B1D1",
"B. c #B2B2D0",
"V. c #B2B2D1",
"C. c #B3B3D0",
"Z. c #B4B4D1",
"A. c #B6B6D2",
"S. c #B6B6D3",
"D. c #B7B7D5",
"F. c #B8B8D5",
"G. c #B9B9D6",
"H. c #BABAD6",
"J. c #BDBDD6",
"K. c #BDBDD8",
"L. c #BFBFD8",
"P. c #BFBFD9",
"I. c #C0C0D9",
"U. c #C0C0DA",
"Y. c #C2C2D9",
"T. c #C2C2DB",
"R. c #C3C3DA",
"E. c #C4C4DB",
"W. c #C4C4DC",
"Q. c #C5C5DC",
"!. c #C5C5DD",
"~. c #C6C6DC",
"^. c #C6C6DE",
"/. c #C7C7DE",
"(. c #C8C8DD",
"). c #C8C8DF",
"_. c #C9C9DE",
"`. c #C9C9DF",
"'. c #CACADF",
"]. c #CBCBDF",
"[. c #C9C9E0",
"{. c #CACAE0",
"}. c #CBCBE0",
"|. c #CBCBE1",
" X c #CDCDE0",
".X c #CDCDE2",
"XX c #CECEE2",
"oX c #CFCFE3",
"OX c #D0D0E4",
"+X c #D1D1E5",
"@X c #D2D2E4",
"#X c #D2D2E5",
"$X c #D3D3E5",
"%X c #D4D4E5",
"&X c #D4D4E6",
"*X c #D5D5E6",
"=X c #D5D5E7",
"-X c #D6D6E6",
";X c #D6D6E7",
":X c #D6D6E8",
">X c #D7D7E8",
",X c #D9D9E9",
"<X c #DADAE9",
"1X c #DBDBE9",
"2X c #DBDBEA",
"3X c #DCDCE9",
"4X c #DCDCEA",
"5X c #DCDCEB",
"6X c #DDDDEA",
"7X c #DDDDEB",
"8X c #DEDEEB",
"9X c #DDDDEC",
"0X c #DEDEEC",
"qX c #DFDFED",
"wX c #E0E0ED",
"eX c #E1E1ED",
"rX c #E0E0EE",
"tX c #E1E1EE",
"yX c #E3E3EE",
"uX c #E4E4EE",
"iX c #E4E4EF",
"pX c #E5E5F0",
"aX c #E6E6F0",
"sX c #E6E6F1",
"dX c #E7E7F1",
"fX c #E7E7F2",
"gX c #E8E8F2",
"hX c #E9E9F2",
"jX c #EAEAF2",
"kX c #EAEAF3",
"lX c #EBEBF3",
"zX c #EBEBF4",
"xX c #EDEDF4",
"cX c #EDEDF5",
"vX c #EEEEF5",
"bX c #EEEEF6",
"nX c #EFEFF6",
"mX c #F0F0F6",
"MX c #F1F1F6",
"NX c #F1F1F7",
"BX c #F2F2F7",
"VX c #F2F2F8",
"CX c #F3F3F8",
"ZX c #F4F4F9",
"AX c #F5F5FA",
"SX c #F7F7FA",
"DX c #F8F8FA",
"FX c #F9F9FB",
"GX c #FAFAFB",
"HX c #FAFAFC",
"JX c #FBFBFC",
"KX c #FBFBFD",
"LX c #FCFCFD",
"PX c #FCFCFE",
"IX c #FDFDFE",
"UX c #FEFEFE",
"YX c None",
/* pixels */
"YXYXYXYXYXYXYXYXYXYXYXYXYXYXYXYXYXYXYX@.#. . .a     YXYXYXYXYXYX",
"YXYXYXYXYXYXYXYXYXYXYXYXYXYXYXYXYX;.$.@.#.s. .K     YXYXYXYXYXYX",
"YXYXYXYXYXYXYXYXYXYXYXYXYXYXYX$.$.;.@.D.xX>XD.~ #   YXYXYXYXYXYX",
"YXYXYXYXYXYXYXYXYXYXYXYXYX=.>.>.0.[.VXJXGX;XsX/ p     YXYXYXYXYX",
"YXYXYXYXYXYXYXYXYXYXYX3.5.5.i.[.AXUXUXJXAX#XBX0.R     YXYXYXYXYX",
"YXYXYXYXYXYXYXYXYX0.0.0.k.1XUXUXUXUXJXJXBX[.BX[.W <     YXYXYXYX",
"YXYXYXYXYXYXYXi.u.u.S.1XUXUXUXUXUXJXJXAX1X3XBXkX .x     YXYXYXYX",
"YXYXYXYXc.s.s.i.G.sXUXUXUXUXUXUXUXJXAXAX[.sXvXhXD.Y &     YXYXYX",
"YXYXm.c.s.k.).vXUXUXUXUXUXUXUXUXJXGXGXBXC.vXkXhXeXR s     YXYXYX",
"z.c.c.c.).VXUXUXUXUXUXUXUXUXUXUXGXSXSXBXm.vXhXsXsX0.A     YXYXYX",
"m.m.;XGXUXUXUXUXUXUXUXUXUXUXUXJXGXVXBX3XP.vXhXsXeX#XF 3     YXYX",
"M.P.eXuXSXUXUXUXUXUXUXUXUXUXJXGXSXSXBX).).hXhXeXeX0X{ z     YXYX",
"t.c.GXSX;X].eXSXUXUXUXUXUXUXGXGXVXVXBXm.:XkXsXsX0X0XS.V -     YX",
"n k.#XUXUXJX3XP.~.3XSXUXUXGXGXSXVXBXBX3.rXsXrXeX0X2X1XJ 0     YX",
"  -.m.UXUXUXUXUXuXP.m.E.3XSXGXBXBXBXeX3.kXsXrXqX2X1X1Xu.z %     ",
"YXQ r.1XUXUXUXUXUXUXxXP.z.s.H.;XhXvX[.t.0XrXrX2X2X1X:X].B 2     ",
"YX  3.C.UXUXUXUXUXUXUXJXBXP.r.3.3.M.z.C.&X[.:X0X1X:X&XoX{ i     ",
"YX  ] 3.VXUXUXUXUXUXUXJXGXSX0Xk.3.=.$.).rX2XoX^.[.#X&X&XP.i >   ",
"YXYX  >.K.UXUXUXUXUXJXGXSXVX:XoXhX).-.].qX0X2X2XoX~.P.].[.J 8   ",
"YXYX  ] 3.GXUXUXUXJXJXGXVXBX^.0XhXhXsXuXqX2X1X:X:X#XoXP.m.Y w   ",
"YXYXYXm @.].UXUXUXJXJXZXVXeX].kXhXsXeXeX0X2X1X&X#XoX~. .u q ,   ",
"YXYXYX  ) 0.UXUXJXJXAXZXVX:X1XkXhXuXeX0X2X1X:X&X#X0.z w > .     ",
"YXYXYX  L  .1XJXJXJXAXVXvX[.hXsXsXeX0X0X1X:X:Xm.V u 5 O         ",
"YXYXYXYX  / p.JXJXAXVXVXeX:XhXsXuXeX0X0X1XP.R h 9 $           YX",
"YXYXYXYX  L ' xXSXSXBXvX:XsXkXsXeX0X0X#X .z y =             YXYX",
"YXYXYXYXYX4 / C.SXVXvXkX#XhXsXrXeX;X0.V g 1             YXYXYXYX",
"YXYXYXYXYX  U ' vXvXvXeXeXsXsXeXm.Y M 6 X           YXYXYXYXYXYX",
"YXYXYXYXYXYXa R ~.BXvX:XsXsX~./ B t +           YXYXYXYXYXYXYXYX",
"YXYXYXYXYXYX  D ' BXhX0X1X@.V j *           YXYXYXYXYXYXYXYXYXYX",
"YXYXYXYXYXYX  x U @X;Xk.V B ;             YXYXYXYXYXYXYXYXYXYXYX",
"YXYXYXYXYXYXYX  J W Y F 3 X           YXYXYXYXYXYXYXYXYXYXYXYXYX",
"YXYXYXYXYXYXYX  j J f @           YXYXYXYXYXYXYXYXYXYXYXYXYXYXYX"
};
