/* XPM */
static char *imframe_hide[] = {
/* columns rows colors chars-per-pixel */
"16 16 228 2",
"   c #00006E",
".  c #000070",
"X  c #000071",
"o  c #010071",
"O  c #000072",
"+  c #000172",
"@  c #000173",
"#  c #010273",
"$  c #020374",
"%  c #030777",
"&  c #020877",
"*  c #050A78",
"=  c #070F7D",
"-  c #06117E",
";  c #010F81",
":  c #030F81",
">  c #011184",
",  c #071380",
"<  c #071381",
"1  c #041788",
"2  c #041C8C",
"3  c #091682",
"4  c #081684",
"5  c #0A1A86",
"6  c #0A1A87",
"7  c #0B1C87",
"8  c #0D1886",
"9  c #0C1B86",
"0  c #0D1A87",
"q  c #091989",
"w  c #0F1C89",
"e  c #0F1D8A",
"r  c #0D208B",
"t  c #0E228B",
"y  c #0C218C",
"u  c #0F268F",
"i  c #052191",
"p  c #062695",
"a  c #01269B",
"s  c #042499",
"d  c #032C9F",
"f  c #072B99",
"g  c #072F9D",
"h  c #0A2999",
"j  c #0B339D",
"k  c #10278F",
"l  c #122D93",
"z  c #122D94",
"x  c #102F9A",
"c  c #142E99",
"v  c #182D97",
"b  c #192F98",
"n  c #12319B",
"m  c #10339E",
"M  c #12369B",
"N  c #153398",
"B  c #14349B",
"V  c #16389E",
"C  c #16399E",
"Z  c #17399E",
"A  c #173B9F",
"S  c #0631A2",
"D  c #0736A6",
"F  c #0934A1",
"G  c #0E37A0",
"H  c #093AA9",
"J  c #0C3FAC",
"K  c #1038A2",
"L  c #113DA6",
"P  c #193AA3",
"I  c #193FA2",
"U  c #0F42AC",
"Y  c #0F42AF",
"T  c #0D43B0",
"R  c #0D44B2",
"E  c #0F48B3",
"W  c #0E4AB6",
"Q  c #1642A6",
"!  c #1343AA",
"~  c #1442AD",
"^  c #1644A8",
"/  c #1448AE",
"(  c #1A40A3",
")  c #1B45A6",
"_  c #1F43AC",
"`  c #1E4BAB",
"'  c #154CB2",
"]  c #104FB9",
"[  c #1551B6",
"{  c #1354BC",
"}  c #1756BB",
"|  c #1558BF",
" . c #175ABF",
".. c #1C5ABB",
"X. c #1F58B9",
"o. c #1D5DBC",
"O. c #224CB3",
"+. c #2051AF",
"@. c #2257B4",
"#. c #215DBB",
"$. c #205EBC",
"%. c #235FBC",
"&. c #245DBA",
"*. c #285EBC",
"=. c #2560BC",
"-. c #2560BD",
";. c #2663BF",
":. c #2763BE",
">. c #2B61BE",
",. c #175CC3",
"<. c #1860C6",
"1. c #1D63C5",
"2. c #1B66CB",
"3. c #0071EF",
"4. c #0577EF",
"5. c #0D76EE",
"6. c #0175F2",
"7. c #067BF2",
"8. c #0F7AF2",
"9. c #2365C4",
"0. c #2B6AC5",
"q. c #3470C8",
"w. c #3572C9",
"e. c #3475CE",
"r. c #2E7EE4",
"t. c #4879CB",
"y. c #0080FF",
"u. c #0081FF",
"i. c #0083FF",
"p. c #0084FF",
"a. c #0086FF",
"s. c #058BFF",
"d. c #068DFF",
"f. c #0F85FF",
"g. c #098BFF",
"h. c #0A88FF",
"j. c #0A89FF",
"k. c #0A8CFF",
"l. c #0E88FF",
"z. c #0F89FF",
"x. c #0F8AFF",
"c. c #108DFF",
"v. c #1A83F0",
"b. c #1C87F3",
"n. c #1B96FF",
"m. c #1C98FF",
"M. c #2181F0",
"N. c #2285F3",
"B. c #2490FF",
"V. c #2594FF",
"C. c #2595FF",
"Z. c #2799FF",
"A. c #279BFF",
"S. c #2997FF",
"D. c #2A9AFF",
"F. c #2A9CFF",
"G. c #2C99FF",
"H. c #3184E9",
"J. c #308EF0",
"K. c #3193F4",
"L. c #3693F6",
"P. c #3794F8",
"I. c #399BFF",
"U. c #30A1FF",
"Y. c #31A3FF",
"T. c #3DA2FF",
"R. c #3DA3FF",
"E. c #3EA5FF",
"W. c #4E89D7",
"Q. c #4490EC",
"!. c #4492ED",
"~. c #4398F1",
"^. c #459CF4",
"/. c #4899F0",
"(. c #499CF3",
"). c #44AAFF",
"_. c #45ACFF",
"`. c #4AA7FF",
"'. c #4BAAFF",
"]. c #4EA9FF",
"[. c #4CACFF",
"{. c #57A2F2",
"}. c #53AEFF",
"|. c #58A6F5",
" X c #55B0FF",
".X c #58B3FF",
"XX c #59B6FF",
"oX c #6AACF2",
"OX c #67B5FF",
"+X c #6CB0F5",
"@X c #6AB9FF",
"#X c #6ABAFF",
"$X c #6DB8FF",
"%X c #6CBCFF",
"&X c #6DBFFF",
"*X c #75ADEE",
"=X c #71B0F2",
"-X c #7FB8F4",
";X c #80BBF7",
":X c #81C7FF",
">X c #85C4FF",
",X c #82CAFF",
"<X c #89C8FF",
"1X c #89C9FF",
"2X c #8DC8FF",
"3X c #92C6F9",
"4X c #93C8FA",
"5X c #A2C9F3",
"6X c #A2CBF6",
"7X c #A3D2FF",
"8X c #A7D7FF",
"9X c #ACD7FF",
"0X c #A8D8FF",
"qX c #B7D7F5",
"wX c #B6D9F9",
"eX c #BEE0FF",
"rX c #C5E5FF",
"tX c #C5E6FF",
"yX c #C7E8FF",
"uX c #C7E9FF",
"iX c #CAE5FF",
"pX c #E4F1FF",
"aX c #E4F2FF",
"sX c #E9F7FF",
"dX c #E9FAFF",
"fX c #F0FAFF",
"gX c #F0FBFF",
"hX c None",
/* pixels */
":.$.0.q.X.Q A hXhX:.#.9.q.*.^ ( ",
"o.W.wXyX5X>.M hXhX$.e.6XuXqXt.G ",
"1.4XfXaXdX*Xj B &.X.=XsXaXgX3XU ",
"2.:XiXeXtX-XF z @.| ;XtXeXiX,XE ",
"<.%X9X7X0XoXg k +.} +X0X7X9X&XT ",
",..X2X>X1X{.f t ` [ |.1X>X2XXXJ ",
"| ).$XOX#X~.p 9 ) ' ^.#XOX$X_.H ",
"{ U.].`.[.J.i 3 I / K.`.`.].Y.D ",
"] n.D.D.F.v.2 = A ! b.D.D.D.m.S ",
"E s.h.h.k.4.1 * N L 7.g.h.h.d.d ",
"R p.7.y.p.3.> $ l K 6.p.y.y.p.a ",
"Y f.f.f.c.5.: + u m 8.f.f.f.c.s ",
"/ Z.B.B.C.M.: + t x N.C.B.B.A.h ",
"n P.T.I.R.r.+ + 6 y H.R.I.R.L.q ",
", O./. XQ.c   hXhX, P Q.}.(._   ",
"- & w v 9   + hXhX4 % 9 v w + + "
};
