/* XPM */
static char *mainframe[] = {
/* columns rows colors chars-per-pixel */
"32 32 55 1",
"  c #373735",
". c #3D3D3B",
"X c #41423D",
"o c #464643",
"O c #474843",
"+ c #494945",
"@ c #4C4D4A",
"# c #4F504A",
"$ c #52524D",
"% c #555551",
"& c #575853",
"* c #595A55",
"= c #5C5C59",
"- c #5F605B",
"; c #61615D",
": c #646562",
"> c #676863",
", c #696965",
"< c #6C6D6B",
"1 c #6F706A",
"2 c #71716D",
"3 c #737372",
"4 c #777873",
"5 c #797876",
"6 c #7B7C7A",
"7 c #81817D",
"8 c #838382",
"9 c #878789",
"0 c #898987",
"q c #8B8B8A",
"w c #8F908B",
"e c #91918E",
"r c #939393",
"t c #989896",
"y c #9B9B9B",
"u c #A1A19E",
"i c #A3A3A3",
"p c #A8A9A5",
"a c #ACACAC",
"s c #B0B0AE",
"d c #B4B4B4",
"f c #B8B8B6",
"g c #BBBBBB",
"h c #C4C4C4",
"j c #C8C8C6",
"k c #CCCCCB",
"l c #D3D3D3",
"z c #DBDBDB",
"x c #E0E0DE",
"c c #E3E3E3",
"v c #E9E9E7",
"b c #EBEBEB",
"n c #F0F0EE",
"m c #F3F3F3",
"M c #FDFDFD",
/* pixels */
"MMMMMcccmmmmMmcvczvmmMMMvvbmnnMM",
"MMMme222ruglcb,35=gzljsi7<2qkcnm",
"MMMz@ =+Xo$=38%%*#53=&@Xo=@.9kzn",
"MMMa.8ze&&,<<1>%@>122<=%5kg ,pjv",
"MMMq><1<<:==*=@%$O#%==;:<<<,>9dz",
"MMk7%$%#%=:369-&=+=:353<*%$$>5ik",
"Mce==<<,38qryu,&=O=39uyyr96;&49f",
"M0::-,28ysghhk4&*@<qsgjhgdr,,>-r",
"c;*zt-5rflccccf2-48phcvcczq,b2$6",
"b3@cz=2yhcmmMnb5>9rdzbMMMz2um,@5",
"Mi+tM,:rgcmMMMm6,yphcmMMMd=vj$@3",
"mz=$bd=7slmMMMm5:adkvMMMm82m5O=5",
"mby+el=2ujvMMMM6:aglbMMMk:sg#@:9",
"Mnz>#p4>qdzmMMM6:dglbMMMu=s&#=3i",
"Mmvi+;*;6ikvmMM6,sgzbMMl6+;$@,9g",
"MMbz;$@$3rgcmMM5:dglbMMy-o&+&5ik",
"MMMba@=@<6albMM5:sglnMv8@=@%,qgc",
"MMMnz7$$&3ygcmm6=sglbMg>+&%-6ilb",
"MMMmbg@*@29szbm6&aglbmr$%@=<rgxm",
"MMMMnc8@%,3ikvm5&pglnk5%$+,8albM",
"MMMMMvj@%=3egxm3%iglbp:%+=3thcMM",
"MMMMMnv9o&27alb3%igll9=#%29dlmMM",
"MMMMMMbk##>6phc3%iglk3%o<6ihvmMM",
"MMMMMMmvi+=6ygc<%ufkz6#:8rdzmMMM",
"MMMMMMMbz<#qphc<$ifll3@reakbMMMM",
"MMMMMMMmvhtsdkc2$ifkzaysahxmMMMM",
"MMMMMMMMmclhlzb3$igkzvlhkzmMMMMM",
"MMMMMMMMmmvccvn3%ifkcbvzcmmMMMMM",
"MMMMMMMMMMmnmmM<%idlvmmnmMMMMMMM",
"MMMMMMMMMMMMMmc<%yskvmMMMMMMMMMM",
"MMMMMMMMMMMMMz:%%&9hcnMMMMMMMMMM",
"MMMMMMMMMMMMMmi853rhcmMMMMMMMMMM"
};
