/* XPM */
static char *mainframe_findfile[] = {
/* columns rows colors chars-per-pixel */
"22 22 239 2",
"   c #000000",
".  c #111113",
"X  c #121219",
"o  c #272535",
"O  c #2C2B3E",
"+  c #333348",
"@  c #3B3B42",
"#  c #39394B",
"$  c #4F3117",
"%  c #512F19",
"&  c #723F1F",
"*  c #6D3C23",
"=  c #69421A",
"-  c #714024",
";  c #7F4C24",
":  c #424249",
">  c #434353",
",  c #474758",
"<  c #595752",
"1  c #474663",
"2  c #4B4A6A",
"3  c #4F4F74",
"4  c #524E71",
"5  c #505060",
"6  c #5E5E65",
"7  c #525175",
"8  c #555579",
"9  c #575879",
"0  c #59567B",
"q  c #585A7E",
"w  c #616161",
"e  c #63637D",
"r  c #736F6B",
"t  c #7C696E",
"y  c #73706F",
"u  c #737777",
"i  c #377BD1",
"p  c #5A5C81",
"a  c #5074A2",
"s  c #5679A5",
"d  c #567EB2",
"f  c #606283",
"g  c #636589",
"h  c #676D8C",
"j  c #696887",
"k  c #6E6E8C",
"l  c #686C91",
"z  c #726E88",
"x  c #72728F",
"c  c #757694",
"v  c #71769B",
"b  c #747894",
"n  c #7F7E99",
"m  c #3B83D8",
"M  c #778385",
"N  c #76839D",
"B  c #7F819B",
"V  c #6686AD",
"C  c #6B80A6",
"Z  c #6F8FB6",
"A  c #6B8FBE",
"S  c #7D95B3",
"D  c #5498E6",
"F  c #6D94C4",
"G  c #7195C5",
"H  c #7599C9",
"J  c #7EA6C9",
"K  c #7FA3D2",
"L  c #6DACF4",
"P  c #71A9E1",
"I  c #7BB3F5",
"U  c #834B15",
"Y  c #985D1D",
"T  c #824F24",
"R  c #845224",
"E  c #8C5524",
"W  c #8A5429",
"Q  c #8E5925",
"!  c #955D29",
"~  c #985F2A",
"^  c #9A6126",
"/  c #9D6428",
"(  c #A3641C",
")  c #AD6C1D",
"_  c #B7751D",
"`  c #A36621",
"'  c #A96B2B",
"]  c #A06D34",
"[  c #AB732B",
"{  c #B2752A",
"}  c #BC7D29",
"|  c #807C7A",
" . c #937762",
".. c #A67843",
"X. c #C37D1D",
"o. c #C27F24",
"O. c #857A82",
"+. c #867B88",
"@. c #867E91",
"#. c #B5956E",
"$. c #B89678",
"%. c #BC9B72",
"&. c #CD821B",
"*. c #C78223",
"=. c #C88222",
"-. c #E7A027",
";. c #E6A029",
":. c #EAA32A",
">. c #C69555",
",. c #DDB25F",
"<. c #CAA87F",
"1. c #D1B26E",
"2. c #E8B65F",
"3. c #E6C573",
"4. c #EBCA76",
"5. c #ECCC78",
"6. c #F6CC75",
"7. c #F8CE79",
"8. c #F8D07A",
"9. c #878B8B",
"0. c #8C8A89",
"q. c #82829C",
"w. c #89899D",
"e. c #8B9C9C",
"r. c #91868D",
"t. c #939494",
"y. c #9A9995",
"u. c #9F9B98",
"i. c #8787A1",
"p. c #8588A2",
"a. c #8A8CA4",
"s. c #8E91AA",
"d. c #9291A5",
"f. c #9494AA",
"g. c #9A96A8",
"h. c #9A99AE",
"j. c #9D9CB0",
"k. c #8FA6AC",
"l. c #91ACB1",
"z. c #9BA6B9",
"x. c #9EADBE",
"c. c #A3ACAF",
"v. c #A5A3B5",
"b. c #A4A6BB",
"n. c #A2A9BF",
"m. c #ADABBB",
"M. c #ADB0B5",
"N. c #B0ADAC",
"B. c #B0AFBF",
"V. c #B4B1BF",
"C. c #BBB8B5",
"Z. c #BCBAB8",
"A. c #8A9DC1",
"S. c #86AFDA",
"D. c #86B1D6",
"F. c #8CB3DE",
"G. c #9EB9C9",
"H. c #94BEE5",
"J. c #A9ABC1",
"K. c #A7B1C6",
"L. c #A4B6CE",
"P. c #AEB2C5",
"I. c #AABDC9",
"U. c #A0B3D1",
"Y. c #A7BFDA",
"T. c #B4B4C3",
"R. c #B6B6CA",
"E. c #BAB6C3",
"W. c #B9BECA",
"Q. c #8DC2EB",
"!. c #8ECCF9",
"~. c #92C7EE",
"^. c #9BCCE3",
"/. c #9CC9EC",
"(. c #95CAF1",
"). c #97C9FB",
"_. c #9AD1E7",
"`. c #93D4FD",
"'. c #9CD0FB",
"]. c #9DDAFD",
"[. c #ACC6CC",
"{. c #BBC2C9",
"}. c #B2C1D1",
"|. c #BFC2D1",
" X c #A1CFF1",
".X c #A2D4E5",
"XX c #A6D9E6",
"oX c #ACDAE6",
"OX c #A2DEFC",
"+X c #AAD7FA",
"@X c #ABDAF2",
"#X c #AED8FA",
"$X c #B8DEE7",
"%X c #A4E0FD",
"&X c #ABE5FD",
"*X c #AAE8FF",
"=X c #BCE5E3",
"-X c #B3E2FC",
";X c #B7EFFD",
":X c #C2A584",
">X c #C8C3BE",
",X c #FFF5BC",
"<X c #FFF8BE",
"1X c #C7C6C5",
"2X c #C4C8C5",
"3X c gray80",
"4X c #C1CDD7",
"5X c #C4C9DA",
"6X c #CACFD3",
"7X c #CCD9D9",
"8X c #D6D2CD",
"9X c #DFDCD9",
"0X c #C3D2E2",
"qX c #CEDEED",
"wX c #C0E1DF",
"eX c #C2E0E9",
"rX c #C6F2FB",
"tX c #C4FAFF",
"yX c #CCFFFF",
"uX c #DFE4ED",
"iX c #DDEBEF",
"pX c #DBE9F6",
"aX c #D7F5F6",
"sX c #D5FFFF",
"dX c #DDF2F4",
"fX c #DEFFFF",
"gX c #E2DED9",
"hX c gray88",
"jX c #E1EBF7",
"kX c #E9EEF2",
"lX c #E7FFFF",
"zX c #E9F3FD",
"xX c #EEFFFF",
"cX c #F5F2EF",
"vX c #F8F4EF",
"bX c #F4F4F4",
"nX c #FAF8F5",
"mX c #FEFEFD",
"MX c None",
/* pixels */
"MXMXMXMXE.R.W.5X5XT.R.MXMXMXMXMXMXMXMXMXMXMX",
"MXMXm.B.U.H.(./.~. X}.J.B.MXMXMXMXMXMXMXMXMX",
"MXb.v.F.!.OX^.c.I..X*X@XJ.v.MXMXMXMXMXMXMXMX",
"MXj.S.`.&X;X[.Z.N.t.k.oX-Xb.h.MXMXMXMXMXMXMX",
"g.A.!.&XtXwX2XmXnXC.u u l.G.g.MXMXMXMXMXMXMX",
"i.S.].&XrX[.uXzXzXjX{.0.y M a.q.MXMXMXMXMXMX",
"p.Q.OX'.).I L D m i d >Xt.e.x.n MXMXMXMXMXMX",
"s.~.OX+XzXpXqX4X}.L.V u.9.wXI.x MXMXMXMXMXMX",
"c ~.OX#XmXnXcXgX8X6XZ r e.lXz.j MXMXMXMXMXMX",
"f D.%X#XmXbXhX3X1X{.s < 7XxXb f MXMXMXMXMXMX",
"7 v OX-XmXvXgX8X>XM.a t.mX4X9 MXMXMXMXMXMXMX",
"MXp D.P S.H H G A V F mXkXB j MXMXMXMXMXMXMX",
"MX7 p J _..XXXoX=X0XdXiXa.f.a.:X*.MXMXMXMXMX",
"MXMX7 q S oXyXsXfXaXI.b a.J.T.>.&.} MXMXMXMX",
"MXMXMXMX3 q h N b f 3 j w.r.%.2.:.X.[ MXMXMX",
"MXMXMXMXMXMXMX3 3 MXMXMXMX/ ,.<X6.-.} / MXMX",
"MXMXMXMXMXMXMXMXMXMXMXMXMX/ [ 4.,X7.-.) ! MX",
"MXMXMXMXMXMXMXMXMXMXMXMXMXMXE ^ 4.,X8.-.( ; ",
"MXMXMXMXMXMXMXMXMXMXMXMXMXMXMXT Q 3.,X8.:.Y ",
"MXMXMXMXMXMXMXMXMXMXMXMXMXMXMXMX* T 3.<X6.] ",
"MXMXMXMXMXMXMXMXMXMXMXMXMXMXMXMXMX* R 1.#.+.",
"MXMXMXMXMXMXMXMXMXMXMXMXMXMXMXMXMXMX* = t g "
};
