/* XPM */
static char *mainframe_findbuddy[] = {
/* columns rows colors chars-per-pixel */
"22 22 226 2",
"   c #000000",
".  c #111113",
"X  c #121219",
"o  c #272535",
"O  c #2C2B3E",
"+  c #333348",
"@  c #3B3B42",
"#  c #39394B",
"$  c #4F3117",
"%  c #512F19",
"&  c #723F1F",
"*  c #6D3C23",
"=  c #69421A",
"-  c #714024",
";  c #7F4C24",
":  c #424249",
">  c #434353",
",  c #474758",
"<  c #474663",
"1  c #4B4A6A",
"2  c #4F4F74",
"3  c #524E71",
"4  c #505060",
"5  c #5E5E65",
"6  c #525175",
"7  c #555579",
"8  c #56587B",
"9  c #59567B",
"0  c #585A7E",
"q  c #616161",
"w  c #63637D",
"e  c #7C696E",
"r  c #5A5B81",
"t  c #606283",
"y  c #636589",
"u  c #676D8C",
"i  c #696887",
"p  c #6E6E8C",
"a  c #686C91",
"s  c #726E88",
"d  c #72718F",
"f  c #767695",
"g  c #71769B",
"h  c #747894",
"j  c #7F7D97",
"k  c #76839D",
"l  c #6B80A6",
"z  c #7C94B2",
"x  c #5E9BD3",
"c  c #6CA3CE",
"v  c #6FA4D8",
"b  c #71A6CE",
"n  c #79A9CC",
"m  c #71AAD6",
"M  c #74ACDB",
"N  c #7DB6DD",
"B  c #64A6E4",
"V  c #73AEE7",
"C  c #73B4EE",
"Z  c #78B6F2",
"A  c #834B15",
"S  c #985D1D",
"D  c #824F24",
"F  c #845224",
"G  c #8C5524",
"H  c #8A5429",
"J  c #8E5925",
"K  c #955D29",
"L  c #985F2A",
"P  c #9A6126",
"I  c #9D6428",
"U  c #A3641C",
"Y  c #AD6C1D",
"T  c #B7751D",
"R  c #A36621",
"E  c #A96B2B",
"W  c #A06D34",
"Q  c #AB732B",
"!  c #B2752A",
"~  c #BC7D29",
"^  c #937762",
"/  c #A67843",
"(  c #C37D1D",
")  c #C27F24",
"_  c #857A82",
"`  c #867B88",
"'  c #867E91",
"]  c #807E99",
"[  c #B5956E",
"{  c #B89678",
"}  c #BC9B72",
"|  c #CD821B",
" . c #C78223",
".. c #C88222",
"X. c #E7A027",
"o. c #E6A029",
"O. c #EAA32A",
"+. c #C69555",
"@. c #DDB25F",
"#. c #CAA87F",
"$. c #D1B26E",
"%. c #E8B65F",
"&. c #E6C573",
"*. c #EBCA76",
"=. c #ECCC78",
"-. c #F6CC75",
";. c #F8CE79",
":. c #F8D07A",
">. c #81819B",
",. c #89899D",
"<. c #91868D",
"1. c #8787A1",
"2. c #8588A2",
"3. c #8B8BA4",
"4. c #8E91AA",
"5. c #9291A5",
"6. c #9294AA",
"7. c #9A96A8",
"8. c #9A99AE",
"9. c #9D9CB0",
"0. c #99A5B7",
"q. c #9FA5BA",
"w. c #9EAEBF",
"e. c #A5A3B5",
"r. c #A4A6BB",
"t. c #ADABBB",
"y. c #B0AFBF",
"u. c #B4B1BF",
"i. c #8A9DC1",
"p. c #86AFDA",
"a. c #86B1D7",
"s. c #83B9D6",
"d. c #8EB1D0",
"f. c #8BB4DB",
"g. c #8EB9DB",
"h. c #95B7CA",
"j. c #94B9C5",
"k. c #91B9D9",
"l. c #83B7E6",
"z. c #8CBAE5",
"x. c #81BDF2",
"c. c #95BFE6",
"v. c #A6AFC4",
"b. c #A9ABC1",
"n. c #A5B6C5",
"m. c #A0B8CB",
"M. c #AEB2C4",
"N. c #ADBBCA",
"B. c #A1B4D1",
"V. c #B5B4C2",
"C. c #B6B6CA",
"Z. c #BAB6C3",
"A. c #BABBCC",
"S. c #97C3CE",
"D. c #9DC4CE",
"F. c #95C5D5",
"G. c #99C0D4",
"H. c #8EC6E0",
"J. c #8DC2EB",
"K. c #8AC3F2",
"L. c #8DCDFA",
"P. c #92C4ED",
"I. c #9BC4EF",
"U. c #9ECCEE",
"Y. c #93CCF4",
"T. c #91CFFA",
"R. c #9CCAF2",
"E. c #9ACBF8",
"W. c #9BD1E7",
"Q. c #9CD1EB",
"!. c #94D4FF",
"~. c #98D2FA",
"^. c #9ED9FD",
"/. c #A4C0CA",
"(. c #A3C1D8",
"). c #AAC2DC",
"_. c #ADCDDD",
"`. c #A6D6DF",
"'. c #BEC1CF",
"]. c #BFC4D2",
"[. c #A2C6EA",
"{. c #A1CFF6",
"}. c #AEDAE9",
"|. c #A3D4F4",
" X c #A3D8F7",
".X c #A2DBF9",
"XX c #ADD1F4",
"oX c #AFD2F8",
"OX c #A9D9F2",
"+X c #AADDFA",
"@X c #B0D2F5",
"#X c #B0DFF1",
"$X c #BAD8F6",
"%X c #A7E1FC",
"&X c #ACE3F5",
"*X c #AAE5FD",
"=X c #AEE9FF",
"-X c #B5E0E4",
";X c #BBEBEC",
":X c #B1E7F4",
">X c #B2E4FC",
",X c #B4ECF7",
"<X c #B2EAFD",
"1X c #B8F0FF",
"2X c #C2A584",
"3X c #FFF5BC",
"4X c #FFF8BE",
"5X c #C3CBD7",
"6X c #C0D4D7",
"7X c #C5DAF1",
"8X c #CCDEF4",
"9X c #C7E0E4",
"0X c #C2EBF7",
"qX c #C7F8FC",
"wX c #CDF2FF",
"eX c #CBFFFF",
"rX c #D3E1E5",
"tX c #D3F3FB",
"yX c #D4FFFF",
"uX c #D8F6F8",
"iX c #DCFFFF",
"pX c #E2E9EB",
"aX c #E4FEFD",
"sX c #EBFEFE",
"dX c #F5FEFC",
"fX c None",
/* pixels */
"fXfXfXfXZ.V.'.5X5XA.Z.fXfXfXfXfXfXfXfXfXfXfX",
"fXfXt.y.B.c.l.P.c.f.).b.y.fXfXfXfXfXfXfXfXfX",
"fXe.e.z.T.N [.8X7Xk.H.OXb.e.fXfXfXfXfXfXfXfX",
"fX9.p.!.W.v oXXXoXR.c ,XOXr.9.fXfXfXfXfXfXfX",
"5.i.L.<XF.B x.K.J.Z x `.eX_.7.fXfXfXfXfXfXfX",
"1.a.^.1X-XM ~..X^.K.b ;XeXqX6.>.fXfXfXfXfXfX",
"1.z..X<XiXh.R.tXwXz.(.iXyXeXv.j fXfXfXfXfXfX",
"4.Y.*X=X&Xn I.$X$Xz.h.aXiXiXn.d fXfXfXfXfXfX",
"h c.*X<Xs.V |.R.R.E.M 9XsXaX0.i fXfXfXfXfXfX",
"t a.=XQ.m x.Y.Y.Y.K.Z B.dXsXh t fXfXfXfXfXfX",
"7 g *XW.M ^.+X>X=X.X!.d.dX5X8 fXfXfXfXfXfXfX",
"fX0 f.&Xn |.0XtXtX;XU.m.pX>.i fXfXfXfXfXfXfX",
"fX6 0 g.&XS.j./././.].rX3.5.3.2X..fXfXfXfXfX",
"fXfX6 0 z }.eXiXiXiX/.h 3.v.V.+.( ~ fXfXfXfX",
"fXfXfXfX3 0 u k h t 3 i ,.<.} %.O.( Q fXfXfX",
"fXfXfXfXfXfXfX6 6 fXfXfXfXU $.4X-.X.~ I fXfX",
"fXfXfXfXfXfXfXfXfXfXfXfXfXP Q *.3X-.o.Y K fX",
"fXfXfXfXfXfXfXfXfXfXfXfXfXfXG P *.3X;.o.U ; ",
"fXfXfXfXfXfXfXfXfXfXfXfXfXfXfXD J &.3X;.o.S ",
"fXfXfXfXfXfXfXfXfXfXfXfXfXfXfXfX* F &.4X-.W ",
"fXfXfXfXfXfXfXfXfXfXfXfXfXfXfXfXfX* F $.[ ` ",
"fXfXfXfXfXfXfXfXfXfXfXfXfXfXfXfXfXfX* * e y "
};
