/* XPM */
static char *menu_buddy_im[] = {
/* columns rows colors chars-per-pixel */
"16 16 182 2",
"   c #282869",
".  c #2A2A6B",
"X  c #2B2B6C",
"o  c #2D2D6C",
"O  c #2D2D6D",
"+  c #2F2F6E",
"@  c #2F2F6F",
"#  c #2F2F70",
"$  c #303070",
"%  c #313170",
"&  c #323272",
"*  c #333373",
"=  c #323274",
"-  c #353575",
";  c #363676",
":  c #373776",
">  c #393978",
",  c #393979",
"<  c #3A3A78",
"1  c #3A3A79",
"2  c #3B3B7A",
"3  c #3C3C7A",
"4  c #3D3D7C",
"5  c #3D3D7D",
"6  c #40407F",
"7  c #414180",
"8  c #434381",
"9  c #464683",
"0  c #484885",
"q  c #494985",
"w  c #484886",
"e  c #494986",
"r  c #4A4A86",
"t  c #4A4A87",
"y  c #4B4B88",
"u  c #4C4C89",
"i  c #4D4D8B",
"p  c #4F4F8C",
"a  c #51518D",
"s  c #53538F",
"d  c #57578E",
"f  c #555590",
"g  c #555591",
"h  c #575791",
"j  c #565692",
"k  c #5A5A93",
"l  c #5A5A95",
"z  c #5C5C96",
"x  c #5C5C97",
"c  c #5E5E98",
"v  c #616198",
"b  c #62629B",
"n  c #63639A",
"m  c #64649C",
"M  c #65659C",
"N  c #66669E",
"B  c #68689F",
"V  c #6A6AA1",
"C  c #6B6BA0",
"Z  c #6A6AA2",
"A  c #6C6CA1",
"S  c #6C6CA2",
"D  c #7272A4",
"F  c #7272A7",
"G  c #7676A7",
"H  c #7272A8",
"J  c #7575A8",
"K  c #7777A9",
"L  c #7676AA",
"P  c #7777AA",
"I  c #7878A9",
"U  c #7878AA",
"Y  c #7979AA",
"T  c #7979AB",
"R  c #7B7BA9",
"E  c #7B7BAA",
"W  c #7C7CAA",
"Q  c #7C7CAF",
"!  c #7D7DAF",
"~  c #8080B0",
"^  c #8181B0",
"/  c #8181B1",
"(  c #8282B2",
")  c #8585B3",
"_  c #8686B3",
"`  c #8888B6",
"'  c #8888B7",
"]  c #8B8BB6",
"[  c #8B8BB7",
"{  c #8B8BB8",
"}  c #8C8CB9",
"|  c #8D8DB9",
" . c #9090BC",
".. c #9191BC",
"X. c #9999BF",
"o. c #9898C0",
"O. c #9999C0",
"+. c #9A9AC0",
"@. c #A3A3C8",
"#. c #A7A7C8",
"$. c #A7A7CA",
"%. c #A9A9CA",
"&. c #AAAACA",
"*. c #ABABCB",
"=. c #ABABCC",
"-. c #ACACCE",
";. c #AEAECF",
":. c #AFAFD0",
">. c #B0B0CF",
",. c #B1B1D0",
"<. c #B2B2D1",
"1. c #B3B3D2",
"2. c #B5B5D2",
"3. c #B6B6D3",
"4. c #B7B7D6",
"5. c #B8B8D2",
"6. c #BCBCD5",
"7. c #BCBCD6",
"8. c #BCBCD8",
"9. c #BDBDD8",
"0. c #BDBDDA",
"q. c #BFBFD8",
"w. c #BEBEDA",
"e. c #C2C2DB",
"r. c #C3C3DD",
"t. c #C5C5DC",
"y. c #C5C5DD",
"u. c #C6C6DE",
"i. c #C8C8DD",
"p. c #CACAE1",
"a. c #CBCBE1",
"s. c #CBCBE2",
"d. c #CECEE1",
"f. c #CECEE2",
"g. c #CECEE3",
"h. c #CFCFE3",
"j. c #CECEE4",
"k. c #CFCFE6",
"l. c #D0D0E4",
"z. c #D1D1E4",
"x. c #D1D1E6",
"c. c #D2D2E4",
"v. c #D2D2E6",
"b. c #D3D3E6",
"n. c #D5D5E6",
"m. c #D3D3E8",
"M. c #D7D7E8",
"N. c #D8D8E8",
"B. c #D8D8EB",
"V. c #DBDBEB",
"C. c #DCDCEB",
"Z. c #DCDCEC",
"A. c #DDDDED",
"S. c #DEDEEC",
"D. c #E0E0ED",
"F. c #E0E0EE",
"G. c #E2E2ED",
"H. c #E2E2F0",
"J. c #E3E3F0",
"K. c #E6E6F0",
"L. c #E7E7F1",
"P. c #E8E8F1",
"I. c #E9E9F2",
"U. c #E9E9F3",
"Y. c #EBEBF5",
"T. c #EBEBF6",
"R. c #F0F0F7",
"E. c #F1F1F6",
"W. c #F2F2F7",
"Q. c #F0F0F8",
"!. c #F2F2F8",
"~. c #F2F2F9",
"^. c #F3F3F9",
"/. c #F5F5F8",
"(. c #F6F6FC",
"). c #F9F9FC",
"_. c #FBFBFD",
"`. c gray99",
"'. c #FCFCFD",
"]. c #FDFDFE",
"[. c #FEFEFE",
"{. c None",
/* pixels */
"{.{.{.{.{.{.{.{.Z b Z N l {.{.{.",
"{.{.{.{.{.{.H Z Y *.s.o.l {.{.{.",
"{.{.{.{.P P / <.L.[.L.i.Z w {.{.",
"{.{./ ! o.u.W.[.[.[.c.n.X.w {.{.",
"' ] $.c.^.[.[.[.[.L.q.F.u.i 6 {.",
"..d.W.[.[.[.[.[.[.A.&.G.n.Y 1 {.",
"} d.L.c.d.K.[.[.(.j.&.A.B.@.3 : ",
"Y -.[.W.M.6.$.6.M.5.-.c.j.r.b X ",
"G ^ G.[.[.[.A.o.W W 4.w.8.r.' & ",
"{.Z :.[.[.[.W.s.w.<.j.s.w.4...1 ",
"{.B Y T.[.(.F.r.G.A.c.d.4.D 1 @ ",
"{.{.c <.[.W.k.c.A.n.r.) 9     {.",
"{.{.d Y W.T.j.G.n.X.d $ @ {.{.{.",
"{.{.{.d <.Y.n.:.N : $ {.{.{.{.{.",
"{.{.{.w Y 3.G 8 : {.{.{.{.{.{.{.",
"{.{.{.w y y 1 3 {.{.{.{.{.{.{.{."
};
