/* XPM */
static char *menu_buddy_connect[] = {
/* columns rows colors chars-per-pixel */
"16 16 153 2",
"   c black",
".  c #010001",
"X  c #000002",
"o  c #0A0F18",
"O  c #0E102B",
"+  c #111B28",
"@  c #20313C",
"#  c #00084B",
"$  c #000A4D",
"%  c #000B4D",
"&  c #000B4F",
"*  c #000D4F",
"=  c #010E51",
"-  c #001151",
";  c #011259",
":  c #10184A",
">  c #08236A",
",  c #08206E",
"<  c #0D257D",
"1  c #202C62",
"2  c #13415D",
"3  c #10447D",
"4  c #284150",
"5  c #34497A",
"6  c #4E5248",
"7  c #4C5155",
"8  c #504E48",
"9  c #525150",
"0  c #52585B",
"q  c #606264",
"w  c #001897",
"e  c #0B2986",
"r  c #0A359B",
"t  c #1C3A89",
"y  c #1935A6",
"u  c #243886",
"i  c #263FC4",
"p  c #0D4F9C",
"a  c #164790",
"s  c #2C4C90",
"d  c #2747B5",
"f  c #384FA4",
"g  c #346CA2",
"h  c #334DCA",
"j  c #4D5784",
"k  c #476F9C",
"l  c #5D6794",
"z  c #406FA4",
"x  c #557FA6",
"c  c #78789B",
"v  c #557FC8",
"b  c #426CE2",
"n  c #4876F8",
"m  c #6C7FCE",
"M  c #1587FF",
"N  c #1686FE",
"B  c #1787FF",
"V  c #1C86F3",
"C  c #2386EB",
"Z  c #2885E0",
"A  c #3797F4",
"S  c #5B82B3",
"D  c #679A99",
"F  c #6B91A3",
"G  c #6DA2A7",
"H  c #4D9BCB",
"J  c #4C9FD3",
"K  c #5489C2",
"L  c #5889C2",
"P  c #439CE1",
"I  c #5B96EC",
"U  c #4CA6FB",
"Y  c #688DC0",
"T  c #6099D5",
"R  c #669ED5",
"E  c #6C90DA",
"W  c #649BE2",
"Q  c #6C96E2",
"!  c #6C98EA",
"~  c #639CF6",
"^  c #7597EB",
"/  c #7EABC4",
"(  c #72BBE9",
")  c #66D3FA",
"_  c #7FC3FF",
"`  c #79CBF1",
"'  c #7BCAF2",
"]  c #8E7925",
"[  c #DDAF22",
"{  c #E1CD20",
"}  c #8D908D",
"|  c #8F928F",
" . c #8F938F",
".. c #879296",
"X. c #919491",
"o. c #919591",
"O. c #939693",
"+. c #949794",
"@. c #959895",
"#. c #979A97",
"$. c #9B9E9B",
"%. c #9C9F9C",
"&. c #8E98BF",
"*. c #9FA19F",
"=. c #A2AE81",
"-. c #A5A7A5",
";. c #A8ABA8",
":. c #ADB0AD",
">. c #AEB0AE",
",. c #B2B4B2",
"<. c gray71",
"1. c #B5B6B5",
"2. c #8F9BC1",
"3. c #8195D9",
"4. c #8EACCE",
"5. c #88B3D8",
"6. c #9BB8C2",
"7. c #95B3D3",
"8. c #A3ABCD",
"9. c #A1BDD5",
"0. c #A4BFD1",
"q. c #ACCB84",
"w. c #BEC0BE",
"e. c #97C9DC",
"r. c #9BC4DE",
"t. c #83C8E1",
"y. c #90D2F5",
"u. c #BDC6CC",
"i. c #BEC7CC",
"p. c #B7C9D2",
"a. c #B8C2D5",
"s. c #B9C6DA",
"d. c #BAC8D2",
"f. c #ADCEE4",
"g. c #BDCFE2",
"h. c #B1C8F6",
"j. c #BED4E4",
"k. c #C7BDFF",
"l. c #D3C992",
"z. c #EDF19D",
"x. c #CCCDCC",
"c. c #D3D2D3",
"v. c #D7D7D7",
"b. c #DBDADB",
"n. c #DFDFDF",
"m. c gray88",
"M. c #E7E6E7",
"N. c gray91",
"B. c #ECECEC",
"V. c gray93",
"C. c #F1F0F1",
"Z. c gray100",
"A. c None",
/* pixels */
"A.* z r.0.m > A.A.A.A.A.A.A.A.A.",
"$ 1 0.p.j.0.q & A.A.A.A.A.A.A.A.",
"# 5 6.e.4.2.l = A.A.A.A.A.A.A.A.",
"; t / ( E E f > M.M.n.b.<.O.A.A.",
"< d Y W ! ^ E 8.b.1.;.;.%.#.#.#.",
"y b Q 7.f.j.s.&.*.O.X.} O.#.#.#.",
"i n _ y.' ) U h A.A.A.A.A.A.#.#.",
": u L t.' J s O A.A.A.A.A.A.A.O.",
"    o @ 4 +     A.A.A.A.X.} X.>.",
"A.A.A.A.A.A.A.M M V ..%.-.,.x.B.",
"A.A.A.A.A.M A Z C R i.v.n.B.C.A.",
"A.A.K h.T P H G F d.i.<.c.A.A.A.",
"A.A.k ~ I D q.z.=.g x A.A.A.A.A.",
"A.A.8 c k.l.{ [ ] 2 A.A.A.A.A.A.",
"A.A.9 q 4.v 0 6 a 3 A.A.A.A.A.A.",
"A.A.A.7 e w r p A.A.A.A.A.A.A.A."
};
