/* XPM */
static char *menu_findbuddy[] = {
/* columns rows colors chars-per-pixel */
"16 16 225 2",
"   c #2E274F",
".  c #2A284B",
"X  c #28284C",
"o  c #2F2A56",
"O  c #312B5F",
"+  c #303155",
"@  c #363350",
"#  c #373450",
"$  c #383550",
"%  c #393550",
"&  c #393859",
"*  c #38395B",
"=  c #393B5B",
"-  c #3E3F5F",
";  c #3B3963",
":  c #3D3E60",
">  c #17472E",
",  c #1E4C36",
"<  c #037200",
"1  c #007500",
"2  c #017900",
"3  c #027900",
"4  c #037800",
"5  c #037900",
"6  c #027A00",
"7  c #037D00",
"8  c #047900",
"9  c #067B07",
"0  c #057F04",
"q  c #087901",
"w  c #0D7F03",
"e  c #0C7C0C",
"r  c #224D35",
"t  c #24503D",
"y  c #315D4B",
"u  c #3C4E68",
"i  c #3C4A72",
"p  c #451B0A",
"a  c #4F200A",
"s  c #54250D",
"d  c #57290D",
"f  c #58280D",
"g  c #59280C",
"h  c #592A0D",
"j  c #562810",
"k  c #632D0A",
"l  c #682E08",
"z  c #65310E",
"x  c #67310D",
"c  c #6A330D",
"v  c #6B340D",
"b  c #6C340D",
"n  c #683310",
"m  c #793605",
"M  c #7C3907",
"N  c #7D390A",
"B  c #7C3A09",
"V  c #7F400E",
"C  c #7B4110",
"Z  c #7F4110",
"A  c #6A4127",
"S  c #6B4E39",
"D  c #724121",
"F  c #7D5639",
"G  c #44425E",
"H  c #474564",
"J  c #47486A",
"K  c #4C4C6A",
"L  c #565370",
"P  c #565B76",
"I  c #565879",
"U  c #595976",
"Y  c #55627B",
"T  c #655B57",
"R  c #69565A",
"E  c #6A555F",
"W  c #626078",
"Q  c #65637D",
"!  c #6F6A7A",
"~  c #5C6692",
"^  c #4F70A0",
"/  c #5378A2",
"(  c #5B77A4",
")  c #587BAC",
"_  c #666681",
"`  c #626B85",
"'  c #666984",
"]  c #686D86",
"[  c #6F6C86",
"{  c #6E6E87",
"}  c #6A6E88",
"|  c #6A6D8D",
" . c #6E6E88",
".. c #68738C",
"X. c #647497",
"o. c #62759B",
"O. c #70738E",
"+. c #75758E",
"@. c #77768D",
"#. c #7D7D95",
"$. c #7F7F95",
"%. c #7F7F96",
"&. c #008000",
"*. c #038300",
"=. c #019F00",
"-. c #089E07",
";. c #099C09",
":. c #1B910D",
">. c #04BD00",
",. c #07BE02",
"<. c #1BB50D",
"1. c #259313",
"2. c #01C200",
"3. c #02C000",
"4. c #21C810",
"5. c #7FC94B",
"6. c #7AD349",
"7. c #7DD24B",
"8. c #79DB48",
"9. c #5481B9",
"0. c #7C829E",
"q. c #6392CB",
"w. c #6999D1",
"e. c #77A1D0",
"r. c #77A6D6",
"t. c #6AB6F2",
"y. c #6CB8F2",
"u. c #75C8FD",
"i. c #7AC5F0",
"p. c #7BCCF9",
"a. c #79CCFD",
"s. c #7DD0FB",
"d. c #84420D",
"f. c #904708",
"g. c #9A500C",
"h. c #9B510C",
"j. c #A65308",
"k. c #B05C0B",
"l. c #A7753C",
"z. c #847678",
"x. c #D27D19",
"c. c #D37F18",
"v. c #9BE05E",
"b. c #D58019",
"n. c #D88219",
"m. c #CA9640",
"M. c #D3AE5F",
"N. c #CCA860",
"B. c #CFAE63",
"V. c #E2B056",
"C. c #FED774",
"Z. c #FEDA73",
"A. c #FED874",
"S. c #808097",
"D. c #818198",
"F. c #84839A",
"G. c #88869A",
"H. c #8C8CA2",
"J. c #8199B5",
"K. c #8499BC",
"L. c #8C9AB5",
"P. c #9091A7",
"I. c #84A4C4",
"U. c #86A6C9",
"Y. c #B0BECA",
"T. c #83CAF1",
"R. c #82D1F9",
"E. c #83D2FB",
"W. c #87D6FB",
"Q. c #84D7FE",
"!. c #89D6F6",
"~. c #8CD6F8",
"^. c #8FDCF8",
"/. c #8FDEFC",
"(. c #9AD3E1",
"). c #98DBF3",
"_. c #95E1FB",
"`. c #96E3FB",
"'. c #95E3FC",
"]. c #96E9FE",
"[. c #98E6FB",
"{. c #9AE6FB",
"}. c #9EE3F9",
"|. c #9CE6FB",
" X c #9EEBFB",
".X c #9FEBFB",
"XX c #9EECFE",
"oX c #BCD3DC",
"OX c #A3EEFB",
"+X c #A6E9FB",
"@X c #A8EDFB",
"#X c #ABEEFC",
"$X c #A8F1FC",
"%X c #AEF7FD",
"&X c #ABFBFE",
"*X c #B2F6FC",
"=X c #B0F8FD",
"-X c #B2FEFE",
";X c #B6FDFD",
":X c #B9FBFC",
">X c #BEFBFD",
",X c #BCFEFD",
"<X c #BEFDFD",
"1X c #C2FBFD",
"2X c #C2FEFD",
"3X c #C3FEFE",
"4X c #C4FEFD",
"5X c #C8FDFD",
"6X c #C9FEFD",
"7X c #CCFDFD",
"8X c #CEFDFD",
"9X c #D0FEFD",
"0X c #D1FEFD",
"qX c #D2FEFE",
"wX c #D6FDFD",
"eX c #D7FEFE",
"rX c #D8F8FC",
"tX c #DBFBFC",
"yX c #DBFDFD",
"uX c #E3EDF0",
"iX c #E1FDFD",
"pX c #E8FDFD",
"aX c #F2FEFE",
"sX c #FEFEFE",
"dX c None",
/* pixels */
"dXG.P.K.e.r.I.L.H.dXdXdXdXdXdXdX",
"+.0.w.y.p.E.s.T.I.D.dXdXdXdXdXdX",
"O.q.u.{.OX{.!./.'.J.[ dXdXdXdXdX",
"o.t.'.<X8X+X$X X&X(.} dXdXdXdXdX",
") a.OX8XrX#X>X;X<X>X..dXdXdXdXdX",
"9.E.^.|.@X1X8X5X8X8X` dXdXdXdXdX",
"^ Q.~.|.*X5X8XyXyXtXP dXdXdXdXdX",
"i i.W._.*X2XwXpXsXY.* dXdXdXdXdX",
". / ].XX%X3XwXaXuX' J dXdXdXdXdX",
"dXo ( ).-X2XwXoX] | z.k.h.dXdXdX",
"dX;.> u ~ X.Y = I ! l.x.j.V dXdX",
"dX2.4.e dXdXdXdXdXD m.A.n.f.z dX",
">.>.7.*.7 7 dXdXdXm C M.A.b.M s ",
"<.6.v.v.1.1 dXdXdXdXk z N.A.b.l ",
"< =.6.< 6 4 dXdXdXdXdXa d B.V.A ",
"dX7 :.1 dXdXdXdXdXdXdXdXp g S G "
};
