/* XPM */
static char *menu_buddy_log[] = {
/* columns rows colors chars-per-pixel */
"16 16 34 1",
"  c black",
". c gray24",
"X c gray44",
"o c #767676",
"O c gray52",
"+ c #8B8B8B",
"@ c gray56",
"# c gray62",
"$ c gray63",
"% c #AAAAAA",
"& c gray74",
"* c #E6E6E6",
"= c gray91",
"- c #E9E9E9",
"; c gray92",
": c #ECECEC",
"> c gray93",
", c gray94",
"< c #F1F1F1",
"1 c gray95",
"2 c #F3F3F3",
"3 c #F4F4F4",
"4 c gray96",
"5 c #F6F6F6",
"6 c gray97",
"7 c #F8F8F8",
"8 c #F9F9F9",
"9 c gray98",
"0 c #FBFBFB",
"q c gray99",
"w c #FDFDFD",
"e c #FEFEFE",
"r c gray100",
"t c None",
/* pixels */
"@@@@@@@@@@@ttttt",
"@rrrrrr88r@ttttt",
"@rrrr282<8@tttrt",
"@rrrr822<<@tttrt",
"@rr8822<><@o$#rt",
"@rrr82<>--@%%%%%",
"@r22<<@@@@@rr8r%",
"@r<<<2@rrr@822r%",
"@r2222@rr@-822r%",
"@rrrrr@r@-882<r%",
"@@@@@@@@-822<<r%",
"tt  t%r2822&&&&%",
"ttttt%r2822&rr%O",
"ttttt%r8888&r%$.",
"ttttt%rrrrr&%+.t",
"ttttt%%%%%%%X.tt"
};
