/* XPM */
static char *menu_exit[] = {
/* columns rows colors chars-per-pixel */
"16 16 146 2",
"   c black",
".  c #9F1005",
"X  c #9F1105",
"o  c #A01201",
"O  c #A01105",
"+  c #A01205",
"@  c #A11703",
"#  c #A21705",
"$  c #A11708",
"%  c #A21905",
"&  c #A21907",
"*  c #A21B09",
"=  c #A41A0C",
"-  c #A41A0D",
";  c #A51D0C",
":  c #A51F0E",
">  c #A51F10",
",  c #A52110",
"<  c #A72312",
"1  c #A72413",
"2  c #A72718",
"3  c #A82B19",
"4  c #B23E18",
"5  c #AA2E20",
"6  c #AC3120",
"7  c #AC3122",
"8  c #AC3421",
"9  c #AC3422",
"0  c #AC3423",
"q  c #AC3525",
"w  c #AF3526",
"e  c #AE3829",
"r  c #AF3829",
"t  c #B03F2F",
"y  c #B14030",
"u  c #B8522C",
"i  c #B8532E",
"p  c #B95831",
"a  c #BB5E37",
"s  c #BC5C36",
"d  c #BD6038",
"f  c #C06B43",
"g  c #C26D46",
"h  c #C26E48",
"j  c #C46B49",
"k  c #C3714A",
"l  c #C4724B",
"z  c #C6714C",
"x  c #C4744D",
"c  c #C4754E",
"v  c #C5764F",
"b  c #C57750",
"n  c #C77753",
"m  c #C67953",
"M  c #C77954",
"N  c #C77955",
"B  c #C67B54",
"V  c #C77C57",
"C  c #C77E57",
"Z  c #C87754",
"A  c #C87C54",
"S  c #C87C57",
"D  c #C87E58",
"F  c #C98159",
"G  c #C8815A",
"H  c #CA8158",
"J  c #C8825C",
"K  c #CA815D",
"L  c #CA875C",
"P  c #CC815E",
"I  c #CC855A",
"U  c #CA8A5E",
"Y  c #CA8A5F",
"T  c #CC8A5F",
"R  c #C98560",
"E  c #C98661",
"W  c #CA8862",
"Q  c #CA8963",
"!  c #CD8863",
"~  c #CE8F63",
"^  c #CF8B6A",
"/  c #CF926E",
"(  c #CF9469",
")  c #D09468",
"_  c #D1956B",
"`  c #D0976D",
"'  c #D39173",
"]  c #D59376",
"[  c #D19B72",
"{  c #D39977",
"}  c #D39E72",
"|  c #D29D76",
" . c #D79F79",
".. c #D49E7F",
"X. c #D59E7F",
"o. c #D8997B",
"O. c #D89B7E",
"+. c #D5A576",
"@. c #D5A677",
"#. c #D4A17D",
"$. c #D7A07F",
"%. c #D5A283",
"&. c #D7A582",
"*. c #D7A585",
"=. c #D7A685",
"-. c #D9A185",
";. c #DBA285",
":. c #DCA288",
">. c #D9A88B",
",. c #DAA98D",
"<. c #DCAC90",
"1. c #DBB092",
"2. c #DCB492",
"3. c #DDB593",
"4. c #E2AB93",
"5. c #E1B195",
"6. c #E3B097",
"7. c #E2B39A",
"8. c #E1B59A",
"9. c #E3B59B",
"0. c #E5B59E",
"q. c #E5C8AE",
"w. c #E9C0A9",
"e. c #ECC5B1",
"r. c #EDC7B2",
"t. c #EEC6B3",
"y. c #F0CDBA",
"u. c #F1CFBC",
"i. c #F2CFBD",
"p. c #F3D0BF",
"a. c #F7D4C5",
"s. c #F8D7C8",
"d. c #F9DED0",
"f. c #FADFD1",
"g. c #FCE4D5",
"h. c #FDE7DA",
"j. c #FFEFE5",
"k. c #FFF0E6",
"l. c #FFF0E7",
"z. c #FFF1E7",
"x. c #FFF2E8",
"c. c #FFF5EC",
"v. c #FFFAF3",
"b. c #FFFFF9",
"n. c gray100",
"m. c None",
/* pixels */
"m.$ O y r r w w 9 7 3 7 9 . = m.",
"$ r 3.z M A D H G I Y Y ~ @.2 = ",
". 3.4 i p s d ' ] f g z v M } O ",
"t S i a j a.n.n.n.n.p.J C A ( 3 ",
"w m p j n.n.s.:.4.k.n.v.E J ( 1 ",
"r A s a.n.4.g i.t.b 0.n.y.E ( < ",
"w C n n.s.g k j.x.C C x.n.E ` < ",
"w F ' n.o.k x k.k.C H e.n.$.[ : ",
"9 H ] n.O.x b k.k.G E r.n.<.| : ",
"7 I K n.p.m M x.x.E E c.n.{  .& ",
"7 L g k.n.-.D f.i.E w.n.d.X.#.& ",
"3 Y l ^ n.n.f.8.8.g.n.b.-.%.=.# ",
"w Q v A ! d.n.n.n.n.h.-.X.,.=.& ",
". @.m C J E / 4.8.{ X.%.>.q.C X ",
"= 2 } ) ( ( ` [ |  .#.&.1.M . : ",
"m.= O 3 < < < : : & & # @ . : m."
};
