/* XPM */
static char *menu_find[] = {
/* columns rows colors chars-per-pixel */
"16 16 180 2",
"   c #3F4065",
".  c #743304",
"X  c #703509",
"o  c #723509",
"O  c #743608",
"+  c #773909",
"@  c #783604",
"#  c #403F64",
"$  c #403F65",
"%  c #6E4C39",
"&  c #764522",
"*  c #754625",
"=  c #404065",
"-  c #404066",
";  c #424267",
":  c #474365",
">  c #434368",
",  c #47476B",
"<  c #48476B",
"1  c #48486B",
"2  c #4A496B",
"3  c #48486C",
"4  c #4C4C70",
"5  c #4D4E72",
"6  c #4E4E72",
"7  c #515074",
"8  c #545477",
"9  c #565678",
"0  c #59597A",
"q  c #5B5B7D",
"w  c #5D5D7F",
"e  c #5F5F7F",
"r  c #664B41",
"t  c #684E47",
"y  c #605E7C",
"u  c #605E7F",
"i  c #0952E8",
"p  c #2D68D5",
"a  c #2372F9",
"s  c #3276E8",
"d  c #545C87",
"f  c #585D85",
"g  c #5C5E80",
"h  c #5D618C",
"j  c #4862A0",
"k  c #616082",
"l  c #676687",
"z  c #66698D",
"x  c #67698D",
"c  c #6B6B8B",
"v  c #697493",
"b  c #706E8C",
"n  c #747390",
"m  c #747A9C",
"M  c #7A7895",
"N  c #3C8CFE",
"B  c #6483B8",
"V  c #4290FE",
"C  c #549AFC",
"Z  c #5EA3FD",
"A  c #7096CC",
"S  c #7497D6",
"D  c #61A6FD",
"F  c #60A9FE",
"G  c #64A9FE",
"H  c #64ABFE",
"J  c #67AEFE",
"K  c #6FABF5",
"L  c #68ACFE",
"P  c #69ACFE",
"I  c #6CB0FE",
"U  c #79A8E9",
"Y  c #823A00",
"T  c #813C04",
"R  c #863F02",
"E  c #873F02",
"W  c #92745B",
"Q  c #D77909",
"!  c #DA7A08",
"~  c #DA7B09",
"^  c #DA7C0C",
"/  c #DA7D0C",
"(  c #DD7B08",
")  c #DD7C08",
"_  c #DD7F09",
"`  c #D17911",
"'  c #E07C05",
"]  c #A68C77",
"[  c #A48C7A",
"{  c #A48D7A",
"}  c #A98D74",
"|  c #DD840F",
" . c #DE860F",
".. c #DE8710",
"X. c #E18710",
"o. c #E18810",
"O. c #E08913",
"+. c #E18913",
"@. c #D8A350",
"#. c #E4AF55",
"$. c #FBDB6F",
"%. c #FDDB6F",
"&. c #F8DC76",
"*. c #96898F",
"=. c #9B8E8D",
"-. c #8387A1",
";. c #878EA9",
":. c #8E8DA4",
">. c #848BB1",
",. c #8F98B7",
"<. c #8B99B9",
"1. c #9192AC",
"2. c #9393AF",
"3. c #9296B2",
"4. c #9297B6",
"5. c #9297B7",
"6. c #9C9CB2",
"7. c #9E9EB3",
"8. c #A3A0B0",
"9. c #A2A3B7",
"0. c #A2A4B9",
"q. c #A4A4B8",
"w. c #A4ACBF",
"e. c #A9A7B8",
"r. c #A9A7BC",
"t. c #A9A9BC",
"y. c #A9A9BD",
"u. c #AAAABD",
"i. c #ABABBE",
"p. c #ABABBF",
"a. c #AFACBE",
"s. c #B0AEBE",
"d. c #8DB2E6",
"f. c #A0ACC0",
"g. c #AABBD7",
"h. c #B0AFC2",
"j. c #B5B3C6",
"k. c #B5B5C6",
"l. c #B1B5C9",
"z. c #82C2FE",
"x. c #86C5FE",
"c. c #89CBFE",
"v. c #8FCCFE",
"b. c #93C3ED",
"n. c #90CEFE",
"m. c #90D3FE",
"M. c #92D1FE",
"N. c #98D8FE",
"B. c #9ED8FE",
"V. c #9FDBFE",
"C. c #ACC9DD",
"Z. c #BEC2D1",
"A. c #A0DAFE",
"S. c #A1DBFE",
"D. c #A4DDFE",
"F. c #AFDDF3",
"G. c #B6D2E8",
"H. c #A6E0FE",
"J. c #AAE2F9",
"K. c #B6ECFE",
"L. c #B8EBFE",
"P. c #BBEEFE",
"I. c #BBF2FE",
"U. c #BFF1FE",
"Y. c #FEE482",
"T. c #FEE683",
"R. c #C0CFE0",
"E. c #C2F0FE",
"W. c #C9F5FE",
"Q. c #CCF5FE",
"!. c #CCF9FE",
"~. c #D0EDF9",
"^. c #D7F7FE",
"/. c #D7F8FE",
"(. c #E0F0F7",
"). c #E3F6FB",
"_. c #E4FEFE",
"`. c #E8FEFE",
"'. c #FCFEFE",
"]. c None",
/* pixels */
"].].M :.0.l.h.r.u.].].].].].].].",
"].b ;.C.~.).(.R.k.p.].].].].].].",
"y m b.I.Q././.W.G.j.u.].].].].].",
"y A m.H.L.E.E.K.A.g.s.].].].].].",
"f s L v.A.D.A.B.c.d.i.].].].].].",
"d i a C I L Z F H U e.].].].].].",
"5 p N G z.v.x.L V S 8.].].].].].",
": j F m.P.!.E.N.K 4.1.].].].].].",
"$ < B J._.'.`.F.<.2.*.].].].].].",
"].$ < v f.Z.w.-.n >.W | ! ].].].",
"].].; < 7 0 k l w t @.$. .Q ].].",
"].].].].].].].].].Y O.T.&. .Q ].",
"].].].].].].].].].. E X.Y.&. .! ",
"].].].].].].].].].].X E O.T.%.| ",
"].].].].].].].].].].].o E O.#.} ",
"].].].].].].].].].].].].O T r h "
};
