/* XPM */
static char *menu_prefs[] = {
/* columns rows colors chars-per-pixel */
"16 16 141 2",
"   c black",
".  c #040404",
"X  c #0A0700",
"o  c #0F0A05",
"O  c #090909",
"+  c gray6",
"@  c #090916",
"#  c #161207",
"$  c gray7",
"%  c #191921",
"&  c #1D1D20",
"*  c #1F1F24",
"=  c #191933",
"-  c #241B09",
";  c #2E2004",
":  c #27272B",
">  c #292424",
",  c gray16",
"<  c #2C2C2C",
"1  c #222233",
"2  c #2E2E33",
"3  c gray20",
"4  c #313135",
"5  c #3F3F42",
"6  c #3E3E46",
"7  c #3E435D",
"8  c #443502",
"9  c #493D0C",
"0  c #504116",
"q  c #524517",
"w  c #5B4A16",
"e  c #6E5A1B",
"r  c #6A5A23",
"t  c #444446",
"y  c #47474B",
"u  c #484848",
"i  c #494949",
"p  c #48484E",
"a  c #535256",
"s  c #5C5C63",
"d  c gray38",
"f  c #64646B",
"g  c #696971",
"h  c #6B6B72",
"j  c #706B7A",
"k  c #717075",
"l  c #707078",
"z  c #78787C",
"x  c #816C1B",
"c  c #907613",
"v  c #977E1E",
"b  c #9C810E",
"n  c #AD8D15",
"m  c #BC9B1C",
"M  c #AA8F37",
"N  c #9D8E4B",
"B  c #988951",
"V  c #BAAB6F",
"C  c #D5B539",
"Z  c #E3BD2C",
"A  c #CCB96E",
"S  c #CDBC70",
"D  c #F7C918",
"F  c #EACB33",
"G  c #EBC83B",
"H  c #FDD125",
"J  c #FFDE2E",
"K  c #FFE22B",
"L  c #DAC36D",
"P  c #D7C671",
"I  c #F4D24D",
"U  c #818181",
"Y  c #808084",
"T  c #828287",
"R  c #828089",
"E  c #8E8B85",
"W  c #88888E",
"Q  c #8B8B91",
"!  c #939397",
"~  c #97979E",
"^  c #98989B",
"/  c #9B9B9D",
"(  c gray62",
")  c #9394A5",
"_  c #9A9AA2",
"`  c #A4A4A4",
"'  c #AAAAAA",
"]  c #ABABAF",
"[  c gray68",
"{  c #BAB3A3",
"}  c #B1B1B5",
"|  c #B2B2B7",
" . c #B0B0B8",
".. c #B3B3B9",
"X. c gray75",
"o. c #BABAC0",
"O. c #BEBEC5",
"+. c #D5C587",
"@. c #D2C89A",
"#. c #D4C89A",
"$. c #D0CDBF",
"%. c #DED2A4",
"&. c #E3D380",
"*. c #EDDC82",
"=. c #E6D590",
"-. c #ECDEAA",
";. c #F7E79A",
":. c #FFF29E",
">. c #FFF6AA",
",. c #C3C3C8",
"<. c #C3C4CC",
"1. c #D0D1D3",
"2. c #D7D6D2",
"3. c #D1D1D9",
"4. c #D2D2D8",
"5. c #D3D3DA",
"6. c #D6D6D9",
"7. c #D7D7DB",
"8. c #D8D8DC",
"9. c #DBDAE3",
"0. c #DFE1EE",
"q. c #E1E0E0",
"w. c #E0E0E5",
"e. c #E3E4E9",
"r. c #E4E4E8",
"t. c #E5E4E8",
"y. c #E5E5E9",
"u. c #E7E7E9",
"i. c #EBEBEF",
"p. c #ECECEF",
"a. c #ECEBF3",
"s. c #EDEDF0",
"d. c #EFEFF3",
"f. c #F1F3FA",
"g. c #F7F7F8",
"h. c #F7F7FA",
"j. c #F9F9FC",
"k. c #FBFBFC",
"l. c #FAFCFF",
"z. c #FCFCFD",
"x. c None",
/* pixels */
"x.x.x.x.x.x.x.x.x.x.x.U 3 x.x.x.",
"x.x.  u O x.x.x.x.  Q a   x.x.x.",
"x.x.  ( ' , x.x.  ] 9.4 1 + x.x.",
"x.x.x.< X.` u   / a.s   g 6 2 x.",
"x.x.x.  d [ q./ 0.l   p f R * x.",
"x.x.x.x.. ( e.2.S x > ) ~ : x.x.",
"x.x.x.x.= Y $.+.G D &.{ % x.x.x.",
"x.x.x.j 4.l.-.I @.%.P *.w x.x.x.",
"x.x.g 6.k.r.#.H =.7 X N >.0 x.x.",
"x.y r.i.k.O.1.:.C   x.  B ;.; x.",
"$ ,.k.d.g.o.f.E Z v x.x.  V L   ",
"R 4.8.k.| } r.@ 9 J c   x.o A M ",
"p.| _ 9.<.d.W   x.e K b   x.# r ",
"6.4.u...k z & x.x.  q F n   x.  ",
"t ! 7     x.x.x.x.x.x.- m 8 x.x.",
"x.  x.x.x.x.x.x.x.x.x.x.    x.x."
};
