/* XPM */
static char *menu_buddy_remove[] = {
/* columns rows colors chars-per-pixel */
"16 16 168 2",
"   c #646775",
".  c #6A6F7D",
"X  c #6D7280",
"o  c #6E7380",
"O  c #6E7381",
"+  c #6F7481",
"@  c #6F7482",
"#  c #6F7585",
"$  c #707582",
"%  c #7B8195",
"&  c #7D8397",
"*  c #7F8497",
"=  c #FE0000",
"-  c #FD0E0F",
";  c #FE1704",
":  c #FB1616",
">  c #F91C1D",
",  c #FE2509",
"<  c #FE240B",
"1  c #FE240C",
"2  c #FC2217",
"3  c #FE2910",
"4  c #FE2913",
"5  c #FE3519",
"6  c #F72F30",
"7  c #F93328",
"8  c #FE3C20",
"9  c #FE3F21",
"0  c #FE3E22",
"q  c #F93E2B",
"w  c #F74330",
"e  c #F94E3B",
"r  c #FD5938",
"t  c #FB5644",
"y  c #F9614A",
"u  c #FE6A48",
"i  c #F76851",
"p  c #FE7755",
"a  c #EE7B6A",
"s  c #F87767",
"d  c #F7856E",
"f  c #F88276",
"g  c #FE9170",
"h  c #828591",
"j  c #828692",
"k  c #838693",
"l  c #838792",
"z  c #838793",
"x  c #848791",
"c  c #848793",
"v  c #858893",
"b  c #858993",
"n  c #868995",
"m  c #9A9FB2",
"M  c #9BA0B1",
"N  c #9CA3B7",
"B  c #9FA4B8",
"V  c #A0A7B8",
"C  c #A2A8BC",
"Z  c #A3AABE",
"A  c #A4AABE",
"S  c #A8AEC2",
"D  c #AEB1C2",
"F  c #ACB1C4",
"G  c #B0B5C3",
"H  c #B0B6C6",
"J  c #B5BCCA",
"K  c #BBBEC9",
"L  c #B8BDCE",
"P  c #BDC2CE",
"I  c #BFC3CE",
"U  c #DDA19F",
"Y  c #EC969A",
"T  c #F7938B",
"R  c #FE9C80",
"E  c #F9A091",
"W  c #E6AFB1",
"Q  c #E9A9B0",
"!  c #F1AFB1",
"~  c #F7B3A8",
"^  c #F7B7AE",
"/  c #F8B1A0",
"(  c #FEBBA7",
")  c #FBB9A9",
"_  c #EDB9C0",
"`  c #C3C8D6",
"'  c #C5C9D1",
"]  c #C4C8D5",
"[  c #C5C9D5",
"{  c #C5CAD6",
"}  c #C6CBD8",
"|  c #C9CEDA",
" . c #CBD0DE",
".. c #CCD0DC",
"X. c #CCD1DC",
"o. c #CED1DC",
"O. c #CFD2DE",
"+. c #D8CCD5",
"@. c #CBD5E3",
"#. c #D1D5E0",
"$. c #D1D6E1",
"%. c #D1D6E3",
"&. c #D3D7E1",
"*. c #D5D8E2",
"=. c #DBDDE7",
"-. c #DBE0EC",
";. c #DEE1EC",
":. c #DAE2F0",
">. c #D8E4F1",
",. c #E7CCD0",
"<. c #E8CAD1",
"1. c #E3D5DE",
"2. c #E6D7DB",
"3. c #EBD6D7",
"4. c #FED5C8",
"5. c #FED7CB",
"6. c #FEE0D5",
"7. c #E1E2EC",
"8. c #E1E2ED",
"9. c #E0E3EE",
"0. c #E3E7F2",
"q. c #E1EBF6",
"w. c #E6E8F2",
"e. c #E7E9F3",
"r. c #E6E9F5",
"t. c #E1EDF8",
"y. c #E6EEF9",
"u. c #ECEEF7",
"i. c #E2F3FD",
"p. c #ECF1F8",
"a. c #ECF5FD",
"s. c #EDF6FC",
"d. c #EEF7FD",
"f. c #EDF9FD",
"g. c #ECFCFE",
"h. c #F3EDF0",
"j. c #F3F3F6",
"k. c #F2F3FB",
"l. c #F0F2FC",
"z. c #F3F5F9",
"x. c #F3F6FB",
"c. c #F1F7FC",
"v. c #F5F7FB",
"b. c #F7F7F9",
"n. c #F2F8FC",
"m. c #F2F9FD",
"M. c #F1FEFE",
"N. c #F3FCFE",
"B. c #F3FDFE",
"V. c #F7F9FB",
"C. c #F6FBFC",
"Z. c #F7FBFD",
"A. c #F5FDFE",
"S. c #F8F8FB",
"D. c #F8F9FB",
"F. c #F9FBFC",
"G. c #F9FBFD",
"H. c #F8FBFE",
"J. c #F9FBFE",
"K. c #FBFCFD",
"L. c #FEF9F8",
"P. c #FEFCFB",
"I. c #FDFDFD",
"U. c #FCFEFE",
"Y. c #FDFEFE",
"T. c #FEFEFE",
"R. c gray100",
"E. c None",
/* pixels */
"{ *.&.&.&.O.| ] H S B E.E.E.E.E.",
"..T.T.T.T.T.V.s.O.=.L m E.E.E.E.",
"..T.T.T.T.T.V.z.&.x.S.` S E.E.E.",
"..T.T.T.T.T.G.G.G K ' ' m % E.E.",
"..T.T.T.T.T.G.K.{ J D M B # E.E.",
"..T.T.T.T.T.K.b.m.p.>.} ... E.E.",
"..T.P.4.4.T.A.N.2.a U @.%.X E.E.",
"..T.6.R g ) a.3.i , w +.:.+ E.E.",
"..T.L.( p u d y , q W ;.;.X E.E.",
"..T.V.V./ r 9 3 e ,.t.;.q.O E.E.",
"..T.m.N.~ 0 1 ; 7 <.i.8.e.+ E.E.",
"..T.j.E 0 3 t 2 = : Q q.e.$ E.E.",
"..T.^ 5 1 f d.! - = > 1.y.# E.E.",
"O.T.h.s T m.a.g._ 6 Y 8.e.+ E.E.",
"..T.T.T.T.T.K.K.A.N.d.u.s.$ E.E.",
"I b n z z z z z l z k h c   E.E."
};
