/* XPM */
static char *menu_debug[] = {
/* columns rows colors chars-per-pixel */
"16 16 73 1",
"  c black",
". c #0C0C0C",
"X c gray6",
"o c gray8",
"O c #191919",
"+ c gray14",
"@ c gray19",
"# c #434343",
"$ c gray29",
"% c #4C4C4C",
"& c #4E4E4E",
"* c gray32",
"= c #555555",
"- c gray38",
"; c #626262",
": c gray40",
"> c gray42",
", c #6D6D6D",
"< c #717171",
"1 c #777777",
"2 c gray47",
"3 c gray48",
"4 c #898989",
"5 c gray55",
"6 c #8D8D8D",
"7 c #8E8E8E",
"8 c gray56",
"9 c #929292",
"0 c #939393",
"q c gray59",
"w c gray61",
"e c #A2A2A2",
"r c gray64",
"t c #A4A4A4",
"y c #AAAAAA",
"u c #AFAFAF",
"i c #B2B2B2",
"p c gray71",
"a c #B6B6B6",
"s c #B9B9B9",
"d c #C3C3C3",
"f c gray77",
"g c #C5C5C5",
"h c #D5D5D5",
"j c gray84",
"k c #DADADA",
"l c gray87",
"z c #E1E1E1",
"x c gray89",
"c c #E6E6E6",
"v c #E7E7E7",
"b c gray91",
"n c #EAEAEA",
"m c gray92",
"M c #ECECEC",
"N c #EEEEEE",
"B c #EFEFEF",
"V c #F1F1F1",
"C c gray95",
"Z c #F3F3F3",
"A c #F4F4F4",
"S c gray96",
"D c #F6F6F6",
"F c gray97",
"G c #F8F8F8",
"H c #F9F9F9",
"J c gray98",
"K c #FBFBFB",
"L c gray99",
"P c #FDFDFD",
"I c #FEFEFE",
"U c gray100",
"Y c None",
/* pixels */
"Y99999999999999Y",
"Y9UUUUUUUUKKAU9Y",
"Y9UUUUUUKKAAVU9Y",
"Y9UUUAKKAAAAVU9Y",
"Y9UUUehUUAAVVU9Y",
"Y9UUM,iUpVAKVq+Y",
"Y9-&#pyA&fUf$->Y",
"Y:6wuUrf4-3@rU9Y",
"Y9UUUUp1m=*kUU9Y",
"Y9UUKUh3AzVUAU9Y",
"Y9mxmMmlAAKKUU9Y",
"Y9mzmmMAAK99999Y",
"Y9MmMMVAAK9VUdOY",
"Y9VmMVAKKU9UpoYY",
"Y9UUUUUUUU9rXYYY",
"Y996666669,XYYYY"
};
