/* XPM */
static char *menu_addbuddy[] = {
/* columns rows colors chars-per-pixel */
"16 16 149 2",
"   c black",
".  c #000009",
"X  c #000916",
"o  c #000C19",
"O  c #000620",
"+  c #000F27",
"@  c #00142C",
"#  c #081D35",
"$  c #0F1F33",
"%  c #141F2E",
"&  c #0E2037",
"*  c #0C243D",
"=  c #142537",
"-  c #222E3C",
";  c #0C2544",
":  c #0E2C4C",
">  c #072950",
",  c #0E2F55",
"<  c #0D335A",
"1  c #132A46",
"2  c #102A48",
"3  c #1A4576",
"4  c #314E6F",
"5  c #3A5169",
"6  c #325278",
"7  c #465A71",
"8  c #1C5BA3",
"9  c #2A5688",
"0  c #2F5D8B",
"q  c #345E88",
"w  c #28609C",
"e  c #486A93",
"r  c #5C728A",
"t  c #4579B0",
"y  c #497DB1",
"u  c #607890",
"i  c #6C7E96",
"p  c #4481BE",
"a  c #6C8198",
"s  c #4B84C3",
"d  c #5B91CC",
"f  c #5A95D4",
"g  c #5A95D6",
"h  c #579DE5",
"j  c #6A97C0",
"k  c #6E96C6",
"l  c #729AC4",
"z  c #63A0DC",
"x  c #79A3D5",
"c  c #60A5EA",
"v  c #60A6EF",
"b  c #67A8E5",
"n  c #6DACE9",
"m  c #65ADF2",
"M  c #72B0EF",
"N  c #73B4EF",
"B  c #76B6EF",
"V  c #7AB9EF",
"C  c #75B5F3",
"Z  c #7FC0F8",
"A  c #88BCEF",
"S  c #8CBFEF",
"D  c #84BAF0",
"F  c #84BFF0",
"G  c #84C1F3",
"H  c #86C1F1",
"J  c #87C3F3",
"K  c #84C2F7",
"L  c #86C6FC",
"P  c #8AC1F0",
"I  c #8DC0F0",
"U  c #8CC3F1",
"Y  c #8CC5F2",
"T  c #8DC7F3",
"R  c #8EC5F2",
"E  c #8FC7F2",
"W  c #8FC9F3",
"Q  c #89C8FA",
"!  c #8DC9F8",
"~  c #9CC3EF",
"^  c #90C2F0",
"/  c #91C3F0",
"(  c #90C7F2",
")  c #95C3F3",
"_  c #97C5F4",
"`  c #90C9F4",
"'  c #91CCF7",
"]  c #93CCF4",
"[  c #95CDF5",
"{  c #97CFF5",
"}  c #98CFF5",
"|  c #9AD1F6",
" . c #9BD1F6",
".. c #9BD2F5",
"X. c #9DD3F7",
"o. c #A8C6E8",
"O. c #ABC7E8",
"+. c #A7CCF2",
"@. c #A7CFF3",
"#. c #A8CCF2",
"$. c #A8CDF2",
"%. c #A9CCF3",
"&. c #ACCFF7",
"*. c #A3D7F7",
"=. c #A7D1F6",
"-. c #A0D5FB",
";. c #A1D6F8",
":. c #A4D8F8",
">. c #A6DAFA",
",. c #A4DCFF",
"<. c #A8D0F4",
"1. c #A9D1F4",
"2. c #A8D1F6",
"3. c #ACD4FB",
"4. c #A8DAFC",
"5. c #A8DCF9",
"6. c #ABDDFA",
"7. c #ACDEFA",
"8. c #B0D0F2",
"9. c #B4D3F4",
"0. c #B0D3F8",
"q. c #B0DAF8",
"w. c #B2DCFC",
"e. c #ABE0FF",
"r. c #AEE0FA",
"t. c #B0E1FA",
"y. c #B1E1FB",
"u. c #BBE3FF",
"i. c #B9E6FD",
"p. c #BDE3FB",
"a. c #B9E8FD",
"s. c #BDE9FE",
"d. c #BCEBFD",
"f. c #C1EEFE",
"g. c #C2EDFE",
"h. c #C3EDFE",
"j. c #C2EEFF",
"k. c #CCF4FF",
"l. c #CDF4FF",
"z. c #DCEBFB",
"x. c #D8F2FE",
"c. c #DCF3FE",
"v. c #DFF0FF",
"b. c #D9FEFF",
"n. c #DBFDFF",
"m. c #E0EFFE",
"M. c #E4FFFF",
"N. c #E7FFFF",
"B. c None",
/* pixels */
"B.B.B.B.  8 x O.O.k 2 B.B.B.B.B.",
"B.B.B.B.3 &.m.z.z.c.~ : B.B.B.B.",
"B.B.B.O f 0.+.$.%.+.3.s . B.B.B.",
"B.B.B.> v A I / / S D h # B.B.B.",
"B.B.B., m V H Y Y F B c * B.B.B.",
"B.B.B.@ b ' ..:.*.} ! z o B.B.B.",
"B.B.B.  q 4.s.h.h.i.-.6   B.B.B.",
"B.B.B.B.+ f p.c.x.u.d X B.B.B.B.",
"B.B.B.  w _ 8.$.%.9.) 9 B.B.B.B.",
"B.B.B.< C 1.1.1.1.@.=.M 1 B.B.B.",
"B.B.  s K U W ( Y Y I Z t   B.B.",
"B.B.; M J W { ....[ W G n $ B.B.",
"B.B.0 Q [ *.6.r.r.5.X.W L 4 B.B.",
"B.B.y e.:.y.s.h.h.a.7.:.,.e B.B.",
"B.B.& j q.k.b.N.M.b.k.w.l % B.B.",
"B.B.B.  = 5 r i a u 7 -   B.B.B."
};
