/* XPM */
static char *menu_about[] = {
/* columns rows colors chars-per-pixel */
"16 16 129 2",
"   c black",
".  c #000072",
"X  c #030777",
"o  c #050C7C",
"O  c #050D7C",
"+  c #07117F",
"@  c #001184",
"#  c #011385",
"$  c #02188C",
"%  c #081481",
"&  c #0C1785",
"*  c #0A1986",
"=  c #0A1B86",
"-  c #0E1C89",
";  c #0D1E8C",
":  c #0C208B",
">  c #0D228D",
",  c #0E258E",
"<  c #102992",
"1  c #102A92",
"2  c #112D95",
"3  c #122F96",
"4  c #102F9A",
"5  c #133299",
"6  c #15379D",
"7  c #17369F",
"8  c #16399D",
"9  c #183FA2",
"0  c #02458F",
"q  c #034B9B",
"w  c #185595",
"e  c #0452A9",
"r  c #0F5BB6",
"t  c #1940A4",
"y  c #1A45A7",
"u  c #1B46A8",
"i  c #1D4BAC",
"p  c #1F4BAE",
"a  c #1449B2",
"s  c #1148B9",
"d  c #1A4CB9",
"f  c #1952B6",
"g  c #1B57BA",
"h  c #1D5BBD",
"j  c #1760B2",
"k  c #2155B4",
"l  c #2259B7",
"z  c #235AB8",
"x  c #245DBA",
"c  c #245EBB",
"v  c #2560BC",
"b  c #2561BD",
"n  c #2663BF",
"m  c #2664BF",
"M  c #0050CA",
"N  c #0A69DD",
"B  c #1D64C6",
"V  c #1D66C7",
"C  c #1A61CC",
"Z  c #007AF6",
"A  c #007EF7",
"S  c #2260C7",
"D  c #256ACF",
"F  c #2E66CA",
"G  c #326FD1",
"H  c #3D78C6",
"J  c #4C73C5",
"K  c #4B78C9",
"L  c #0080FF",
"P  c #0083FF",
"I  c #0086FF",
"U  c #0384FF",
"Y  c #0385FF",
"T  c #0480FA",
"R  c #0F85FF",
"E  c #178FFF",
"W  c #1F92FF",
"Q  c #3582DD",
"!  c #3A85DD",
"~  c #2490FF",
"^  c #2898FF",
"/  c #3D8CE5",
"(  c #309BFF",
")  c #399BFF",
"_  c #489BF6",
"`  c #499CF7",
"'  c #40A2FF",
"]  c #45A1FA",
"[  c #4EA5FF",
"{  c #57AEFF",
"}  c #5DB1FF",
"|  c #7292C6",
" . c #719DD6",
".. c #729CDB",
"X. c #669FE3",
"o. c #62B2FF",
"O. c #77BAFF",
"+. c #7BBFFF",
"@. c #95A3C6",
"#. c #83B7EF",
"$. c #80BFFF",
"%. c #94BFEF",
"&. c #81C1FF",
"*. c #82C2FF",
"=. c #8CC8FF",
"-. c #8FC8FF",
";. c #95CAFF",
":. c #97CCFF",
">. c #A2D2FF",
",. c #A9D2FA",
"<. c #ABD6FF",
"1. c #B3D4F7",
"2. c #B3DBFF",
"3. c #B7DDFF",
"4. c #B8D8F9",
"5. c #C0C3C9",
"6. c #C0C3CA",
"7. c #C1C4CC",
"8. c #C1C6D2",
"9. c #C0E1FF",
"0. c #CEE7FF",
"q. c #DDEEFF",
"w. c #E1E5EF",
"e. c #E2EBF7",
"r. c #ECF6FF",
"t. c #F7FBFF",
"y. c #F9FCFF",
"u. c gray100",
"i. c None",
/* pixels */
"i.i.i.i.x l k g f y 9 8 i.i.i.i.",
"i.i.v v B X.,.3.3.4...p 3 1 i.i.",
"i.S v ! 9.q.r.y.e.q.q.0.K , : i.",
"i.v Q 2.9.9.t.u.u.| 9.9.9.J = i.",
"m V -.>.>.>.0.w.@. .>.>.>.:.4 + ",
"v / *.*.*.*.*.#.%.*.*.*.+.} D O ",
"l ] o.o.o.1.u.u.u.H { ^ I I A X ",
"h ( ' ' ' ' <.u.u.r I I I I I # ",
"g E W ~ W ~ -.u.u.e I I I I I # ",
"i T I I I L *.u.u.q I L L I Z . ",
"u N L L L L $.u.u.0 L L L L M . ",
"t a R R R R ;.u.u.w R R R R $ . ",
"i.8 C ~ ~ O.8.6.6.6.j ~ ~ s . i.",
"i.5 3 S ) ) ) ) ) ) ) ) d . . i.",
"i.i.< > 7 G ` [ [ _ F ; . . i.i.",
"i.i.i.i.= % O - & . . . i.i.i.i."
};
