/* XPM */
static char *menu_sign[] = {
/* columns rows colors chars-per-pixel */
"16 16 202 2",
"   c black",
".  c #020200",
"X  c #020201",
"o  c #020202",
"O  c #030302",
"+  c #030305",
"@  c #030306",
"#  c #050503",
"$  c #060708",
"%  c #08070A",
"&  c #09090E",
"*  c #0C0D0F",
"=  c #0E0E13",
"-  c gray7",
";  c #121214",
":  c #181823",
">  c #1D1D27",
",  c #1F1E33",
"<  c #1F1D38",
"1  c #242429",
"2  c #262631",
"3  c #282734",
"4  c #2A2935",
"5  c #2A293E",
"6  c #342E35",
"7  c #262440",
"8  c #2D2C46",
"9  c #2E2D46",
"0  c #343447",
"q  c #313049",
"w  c #333249",
"e  c #36364E",
"r  c #39384F",
"t  c #3A3851",
"y  c #3B3A56",
"u  c #593B26",
"i  c #553F31",
"p  c #403F68",
"a  c #41404A",
"s  c #4E4F53",
"d  c #564E45",
"f  c #524F59",
"g  c #4E4D61",
"h  c #525163",
"j  c #535264",
"k  c #55556F",
"l  c #595767",
"z  c #5F5F6D",
"x  c #545276",
"c  c #615047",
"v  c #7F5F4B",
"b  c #504F8B",
"n  c #525184",
"m  c #5A578C",
"M  c #605E91",
"N  c #636193",
"B  c #626097",
"V  c #656292",
"C  c #676496",
"Z  c #676498",
"A  c #686694",
"S  c #696697",
"D  c #6F6D91",
"F  c #79788B",
"G  c #72709E",
"H  c #76759C",
"J  c #79779F",
"K  c #726EA3",
"L  c #716FA7",
"P  c #7E7BA7",
"I  c #7E7DA4",
"U  c #7E7DAB",
"Y  c #806C59",
"T  c #896A54",
"R  c #827F8A",
"E  c #817FA9",
"W  c #827EAB",
"Q  c #807DAC",
"!  c #807EB0",
"~  c #B5935E",
"^  c #A79C63",
"/  c #BB9666",
"(  c #BFA36B",
")  c #B2A87D",
"_  c #C1A05A",
"`  c #D9C46C",
"'  c #8481AD",
"]  c #8885AF",
"[  c #8683B4",
"{  c #8785B1",
"}  c #8985B1",
"|  c #8986B1",
" . c #8C8BB1",
".. c #8D8BB4",
"X. c #8F8BB4",
"o. c #8E8CB7",
"O. c #8F8CBC",
"+. c #928FB8",
"@. c #938FBB",
"#. c #9A9AAF",
"$. c #9391B9",
"%. c #9591B9",
"&. c #9793BA",
"*. c #9896BD",
"=. c #9996BD",
"-. c #9A97BC",
";. c #9E9CBF",
":. c #A3A199",
">. c #A3A0BF",
",. c #BABAA8",
"<. c #9E9BC0",
"1. c #9F9DC1",
"2. c #A29FC3",
"3. c #A09DC4",
"4. c #A19EC5",
"5. c #A4A1C5",
"6. c #A5A2C4",
"7. c #A5A2C5",
"8. c #A6A3C5",
"9. c #A7A4C5",
"0. c #A7A4CB",
"q. c #A8A5C6",
"w. c #A8A5C7",
"e. c #A9A6C8",
"r. c #AAA7C8",
"t. c #AAA7C9",
"y. c #ACA9C0",
"u. c #ABA8C8",
"i. c #ABA8CE",
"p. c #ACA9C9",
"a. c #ADAAC9",
"s. c #ADAACA",
"d. c #AEADCE",
"f. c #AEAED1",
"g. c #B0ACCB",
"h. c #B0ADCC",
"j. c #B1ADCC",
"k. c #B0AFCC",
"l. c #B1AECC",
"z. c #B1AED2",
"x. c #B2AFD0",
"c. c #B2AFD2",
"v. c #B3B0CD",
"b. c #B2B0CF",
"n. c #B5B2CF",
"m. c #B6B2CF",
"M. c #B6B3CF",
"N. c #B0B0D7",
"B. c #B4B1D1",
"V. c #B5B1D0",
"C. c #B6B3D2",
"Z. c #B5B4D2",
"A. c #B7B4D0",
"S. c #B7B5D0",
"D. c #BAB7D1",
"F. c #BAB7D9",
"G. c #BAB9D4",
"H. c #BAB9D5",
"J. c #BBBAD6",
"K. c #BCB8D3",
"L. c #BDBAD3",
"P. c #BEBAD4",
"I. c #BFBBD7",
"U. c #BFBDD4",
"Y. c #BEBCD6",
"T. c #BFBDD6",
"R. c #C1B08D",
"E. c #CBBE87",
"W. c #C1BED6",
"Q. c #C2BFD6",
"!. c #C4C28F",
"~. c #CAC7CA",
"^. c #C3C0D7",
"/. c #C3C2D9",
"(. c #C5C3D9",
"). c #C5C2DD",
"_. c #C5C4DA",
"`. c #C7C4D9",
"'. c #C8C6DB",
"]. c #C8C5DF",
"[. c #C9C7DC",
"{. c #CBC8DC",
"}. c #CCC9DC",
"|. c #CECBDD",
" X c #D1CEDF",
".X c #D4D1E1",
"XX c #D6D2E2",
"oX c #D6D4E3",
"OX c #D7D4E3",
"+X c #D8D5E3",
"@X c #DAD7E3",
"#X c #DCD8E5",
"$X c #DEDBE7",
"%X c #DEDCE7",
"&X c #E0DDE8",
"*X c #E1DEE9",
"=X c #E2DFE9",
"-X c #E1DEF1",
";X c #E8E4EC",
":X c #E9E6EE",
">X c #E9E6F2",
",X c None",
/* pixels */
",X,X,X,X,X,X,X%.W  .R.( T u ,X,X",
",X,X,X,X,X,X3.G m m A :.E.~ Y * ",
",X,X,X,X9.%.W ] X.| U L F ' f # ",
",X,XH.k.;.9.g.a.9.5.;.-.%.Q H 4 ",
"N.Z.l.Z.U.Q.L.D.S.A.n.l.g.a.@.5 ",
"#.U.=XXX X X[._.`.Q.Q.J.g.X.K < ",
") ,.-X>X=X$X$X@XXX@XU.a.n.@.M , ",
"/ ` !.~.@X$X;X;X=X[.%.| 9.Z.D = ",
"6 v _ ^ y.].`..X'.I.X.Z ' B.1.0 ",
",X$ i c x *.1.5.).>.h w S a.z.t ",
",X,X,X@ o 1 x P F 1 o ,XI t.0.9 ",
",X,X,X,X,X,Xo > o o z l.9.5.[ w ",
",X,X,X,X,X,X,X,X,X,Xi.c.5.{ C 3 ",
",X,X,X,X,X,X,X,X,X,XQ J.*.V 5 o ",
",X,X,X,X,X,X,X,X,X,XM N.F.*.s ,X",
",X,X,X,X,X,X,X,X,X,X8 e l f a o "
};
