/* XPM */
static char *menu_buddy_ban[] = {
/* columns rows colors chars-per-pixel */
"16 16 128 2",
"   c #B30000",
".  c #B50000",
"X  c #B50100",
"o  c #B60000",
"O  c #B60100",
"+  c #B70000",
"@  c #B60200",
"#  c #B80100",
"$  c #B90100",
"%  c #B80300",
"&  c #B90200",
"*  c #BB0300",
"=  c #BB0400",
"-  c #BE0000",
";  c #BC0400",
":  c #BD0600",
">  c #BD0700",
",  c #BE0600",
"<  c #BE0700",
"1  c #BE0800",
"2  c #BF0800",
"3  c #BF0900",
"4  c #C60000",
"5  c #C20B00",
"6  c #C30C00",
"7  c #C40D00",
"8  c #C50E00",
"9  c #C60F00",
"0  c #CC0000",
"q  c #CC0300",
"w  c #CE0B00",
"e  c #C61000",
"r  c #C81000",
"t  c #C81200",
"y  c #C81300",
"u  c #CB1600",
"i  c #CB1601",
"p  c #CA1602",
"a  c #CC1401",
"s  c #CE1400",
"d  c #CE1500",
"f  c #CF1900",
"g  c #D11601",
"h  c #D01902",
"j  c #D11902",
"k  c #D11903",
"l  c #D01B00",
"z  c #D11A02",
"x  c #D11A03",
"c  c #D31900",
"v  c #D31A00",
"b  c #D01C00",
"n  c #D22303",
"m  c #D52000",
"M  c #D62200",
"N  c #D62A06",
"B  c #D62B06",
"V  c #D72A07",
"C  c #D72B06",
"Z  c #D72B07",
"A  c #DA2200",
"S  c #DB2200",
"D  c #DB2700",
"F  c #DC2700",
"G  c #DD2800",
"H  c #D83009",
"J  c #DB390B",
"K  c #EC0000",
"L  c #F90000",
"P  c #FE0000",
"I  c #FE0600",
"U  c #F91300",
"Y  c #E12900",
"T  c #E22900",
"R  c #E22A00",
"E  c #E22D00",
"W  c #E22E00",
"Q  c #E22F00",
"!  c #E33000",
"~  c #E33100",
"^  c #E63D04",
"/  c #E63D06",
"(  c #FE2204",
")  c #F82B06",
"_  c #F92B06",
"`  c #FE3C0E",
"'  c #E0430F",
"]  c #E64B0D",
"[  c #E74A0C",
"{  c #E34D12",
"}  c #E44C13",
"|  c #EE4815",
" . c #FB4411",
".. c #F94D16",
"X. c #F94E16",
"o. c #F94E17",
"O. c #FB4F17",
"+. c #F95017",
"@. c #FB5017",
"#. c #FB5018",
"$. c #FE541C",
"%. c #F96324",
"&. c #FB6324",
"*. c #FB6424",
"=. c #FB6526",
"-. c #FE6024",
";. c #FE6025",
":. c #FE6126",
">. c #FE6226",
",. c #FE6227",
"<. c #FE6327",
"1. c #FC6423",
"2. c #FC6526",
"3. c #FE6C2F",
"4. c #FB702F",
"5. c #F9823E",
"6. c #FB813D",
"7. c #FE8446",
"8. c #F79B59",
"9. c #FB9351",
"0. c #FE985D",
"q. c #FBA363",
"w. c #FCA363",
"e. c #FEAB74",
"r. c #FCB677",
"t. c #FCB777",
"y. c #FEBE8F",
"u. c None",
/* pixels */
"u.u.W R u.u.u.u.u.u.u.u.8 e u.u.",
"u.R ^ ] D u.u.u.u.u.u.8 n y 3 u.",
"W ^ 8.t.{ v u.u.u.u.8 B 2.| 8 < ",
"T ] t.y.q.' d u.u.8 B %.,.#.r < ",
"W A } q.e.9.J 9 6 N &.,.o.k < < ",
"u.u.c ' 9.0.5.H N &.,.o.c = u.u.",
"u.u.u.d J 5.7.4.2.,.o.c ; u.u.u.",
"u.u.u.u.r H 4.3.-.#.k $ u.u.u.u.",
"u.u.u.u.6 Z %.-.$. .g $ u.u.u.u.",
"u.u.u.8 N &.<.#. .` ) w @ u.u.u.",
"u.u.6 B %.<.o.k g ) ( U 0 @ u.u.",
"r e N &.,.o.k $ $ w U I L 0 @ $ ",
"e n 2.2.#.c $ u.u.@ 0 L P L 4 @ ",
"8 y | #.c ; u.u.u.u.@ 0 L K ; @ ",
"u.3 e d $ u.u.u.u.u.u.@ 4 ;   u.",
"u.u.< = u.u.u.u.u.u.u.u.@ @ u.u."
};
