/* XPM */
static char *offline[] = {
/* columns rows colors chars-per-pixel */
"22 22 223 2",
"   c #000000",
".  c #00000A",
"X  c #090000",
"o  c #0B0B0B",
"O  c #000014",
"+  c gray9",
"@  c #000C2F",
"#  c #00073B",
"$  c #041134",
"%  c #061438",
"&  c #101A37",
"*  c #1B2137",
"=  c #3F0000",
"-  c #380805",
";  c #3F0A35",
":  c #212120",
">  c #000D41",
",  c #01164C",
"<  c #081740",
"1  c #081B4F",
"2  c #001152",
"3  c #00115B",
"4  c #011856",
"5  c #0C1F51",
"6  c #00156C",
"7  c #001A64",
"8  c #00196B",
"9  c #001A74",
"0  c #001F78",
"q  c #152349",
"w  c #142453",
"e  c #052868",
"r  c #0F2969",
"t  c #01247D",
"y  c #05287F",
"u  c #0D2A75",
"i  c #0D2D7B",
"p  c #122A6B",
"a  c #182C66",
"s  c #1B306A",
"d  c #1E397D",
"f  c #25376E",
"g  c #430401",
"h  c #550000",
"j  c #57100D",
"k  c #4E063D",
"l  c #660000",
"z  c #6A0200",
"x  c #7F0000",
"c  c #76160F",
"v  c #6A231B",
"b  c #762018",
"n  c #782A21",
"m  c #523B7A",
"M  c #4E4E4E",
"N  c #5F5C5D",
"B  c #444D74",
"V  c #5E6161",
"C  c #717171",
"Z  c #052980",
"A  c #0C2D82",
"S  c #053185",
"D  c #0F3085",
"F  c #1C3984",
"G  c #1A3A8B",
"H  c #24418D",
"J  c #2B4380",
"K  c #2C458E",
"L  c #2D498E",
"P  c #234291",
"I  c #244398",
"U  c #294592",
"Y  c #2B4993",
"T  c #2E4B9B",
"R  c #334888",
"E  c #394F87",
"W  c #394E8B",
"Q  c #304D9B",
"!  c #365191",
"~  c #3E5490",
"^  c #3A559C",
"/  c #3D589C",
"(  c #3D5DA6",
")  c #445584",
"_  c #41579F",
"`  c #415B9A",
"'  c #435CA3",
"]  c #405BAB",
"[  c #4F629D",
"{  c #4961A6",
"}  c #4A63A9",
"|  c #4D6CB0",
" . c #4D70A3",
".. c #5C72AE",
"X. c #5C72B2",
"o. c #5E71B8",
"O. c #6A568E",
"+. c #6A5E95",
"@. c #606998",
"#. c #6472A5",
"$. c #6274AB",
"%. c #6276B3",
"&. c #637BB2",
"*. c #6778BB",
"=. c #697CB4",
"-. c #6A7CBD",
";. c #6081BE",
":. c #7482A8",
">. c #798CBB",
",. c #7485C9",
"<. c #7F8BC2",
"1. c #7D8CCE",
"2. c #7F90CD",
"3. c #7B9AD6",
"4. c #850000",
"5. c #A5110D",
"6. c #8F3D54",
"7. c #914167",
"8. c #B04F6C",
"9. c #E81205",
"0. c #FF2B21",
"q. c #FF352D",
"w. c #FF3A2E",
"e. c #FF4E06",
"r. c #FC4510",
"t. c #FF4437",
"y. c #FF7131",
"u. c #C8704C",
"i. c #D86152",
"p. c #FE4349",
"a. c #FF4841",
"s. c #FF4B4B",
"d. c #FF5448",
"f. c #FF5D4B",
"g. c #FF7F49",
"h. c #FF745F",
"j. c #FF6967",
"k. c #FF7469",
"l. c #8272A3",
"z. c #BE8169",
"x. c #C39E75",
"c. c #E1865E",
"v. c #FF825D",
"b. c #FF8C6B",
"n. c #FF8571",
"m. c #FF8976",
"M. c #FF9863",
"N. c #FF9F6A",
"B. c #EEA352",
"V. c #FFAD52",
"C. c #FFB05E",
"Z. c #EDB270",
"A. c #F9B96E",
"S. c #FFB176",
"D. c #FFB976",
"F. c #FFC570",
"G. c #FFCD7D",
"H. c #FFD078",
"J. c #818CB8",
"K. c #8B88B8",
"L. c #8391BA",
"P. c #8C98B4",
"I. c #ABAFB0",
"U. c #BCBDBD",
"Y. c #8392CC",
"T. c #8A9DC7",
"R. c #8392D0",
"E. c #8E9AD4",
"W. c #909EC3",
"Q. c #959FD3",
"!. c #94A1C7",
"~. c #90A0C9",
"^. c #9CA8C7",
"/. c #94A3D2",
"(. c #99A3D7",
"). c #9CA6D9",
"_. c #9DABD1",
"`. c #A0AAD4",
"'. c #A6AFDC",
"]. c #AAB3CA",
"[. c #A0B3DE",
"{. c #A9B5D2",
"}. c #AEB5E3",
"|. c #B0B8E3",
" X c #BFC4BF",
".X c #B7C2E1",
"XX c #BAC3E3",
"oX c #BEC7EB",
"OX c #BFCDEC",
"+X c #C1AAAB",
"@X c #C6BFB8",
"#X c #D7A5A7",
"$X c #F0BF85",
"%X c #E5CE8C",
"&X c #E2C995",
"*X c #FFC886",
"=X c #FFD181",
"-X c #E1C9AF",
";X c #C1C7DB",
":X c #C1C6E8",
">X c #C4CBE6",
",X c #CBD1E5",
"<X c #D2D7E5",
"1X c #D0D7E8",
"2X c #D3D9EB",
"3X c #D1D7F1",
"4X c #D6DAF2",
"5X c #D9DDF3",
"6X c #DBE3EA",
"7X c #D7E0F5",
"8X c #DBE0F5",
"9X c #E6EEEC",
"0X c #EFEAED",
"qX c #E1E4F4",
"wX c #E2E6FA",
"eX c #E3E8F7",
"rX c #E5EAFB",
"tX c #EAEDFA",
"yX c #EEF1FF",
"uX c #F1F4FF",
"iX c #F5F8FD",
"pX c #FDFDFE",
"aX c None",
/* pixels */
"aXaXaXaXaX6 9 A Y / ! d , . aXaXaXaXaXaXaXaX",
"aXaXaXaX3 ` _.eXpXpXpXpX8XL.q   aXaXaXaXaXaX",
"aXaXaX4 ~.pXpXpXiXpXpXpXpXpX8X)   aXaXaXaXaX",
"aXaX> /.pXtX6X<X,XtXiXuXuXyXiXtXW   aXaXaXaX",
"aXO o.8X;X].].].].5XeXtXeX8XeXrXoXa   aXaXaX",
"aXp R.^.P.!.!.T.XXrX2X,X;X5X8X4X3Xo.O aXaXaX",
". Q { :.>.>.>..XtXuXuXrXwXwX5X2X:X1.5 aXaXaX",
"@ ] u ~ ......7XpXpXuXyXeX8X>X:X`.E.R   aXaX",
"1 ,.Y.$.` ^ ^ &.2XqXiXuXrX5X>X`.$.*._   aXaX",
"s Y.Q.|.L.J G G H L 1XpXwX4X:X[ E { H . aXaX",
"w Y.Q.'.XX) 8 y y 9 !.pXqX5X=.7 K T 9   aXaX",
"$ 1.Q.|.J.7 t t t 9 >.uX5X[.S e %.( E   aXaX",
". X.).#.F t t t t t Y 5X>XO.k ; K.,XiX: aXaX",
"  f 1.r 6 Z y A A D A | +.9.e.r.#XiXV   C + ",
"aXO ' Y i A G H K U P A 8.y.V.-X6Xz.h N pXM ",
"aXaX% I U ^ ^ / ' _ ( m t.v.A.].x.B.c.0XI.o ",
"aXaX  % Q } ..%.=.=.;.7.s.n.C.A.F.%X9X+XX aX",
"aXaXaX  & ` *.Y.Y.Y.3.8.a.j.M.H.G.@X Xu.= aX",
"aXaXaXaXaX  & B @.l. .6.0.q.k.N.G.&X%XD.c aX",
"aXaXaXaXaXaXaXX   4.l 4.0.w.d.k.b.S.*Xh.g aX",
"aXaXaXaXaXaXaXaXaXX z z 5.t.f.k.n.m.i.j   aX",
"aXaXaXaXaXaXaXaXaXaXaXaX  g b n v -     aXaX"
};
