/* XPM */
static char *online[] = {
/* columns rows colors chars-per-pixel */
"22 22 184 2",
"   c #000000",
".  c #000900",
"X  c #0B070B",
"o  c #080B0A",
"O  c #011301",
"+  c #001B00",
"@  c #002200",
"#  c #0A260B",
"$  c #003500",
"%  c #003B00",
"&  c #0E3708",
"*  c #0A3D02",
"=  c #103B09",
"-  c #1C3C1E",
";  c #1F2420",
":  c #1F2821",
">  c #2B352C",
",  c #004500",
"<  c #004B00",
"1  c #0E4505",
"2  c #0F5007",
"3  c #14460D",
"4  c #1A4915",
"5  c #13540A",
"6  c #145D0D",
"7  c #036900",
"8  c #0E680A",
"9  c #007300",
"0  c #007D00",
"q  c #0A7B00",
"w  c #13660B",
"e  c #126804",
"r  c #177218",
"t  c #197F17",
"y  c #215917",
"u  c #265D1A",
"i  c #206614",
"p  c #26681A",
"a  c #317E26",
"s  c #327D28",
"d  c #008300",
"f  c #018C00",
"g  c #088400",
"h  c #0F8008",
"j  c #0A8C00",
"k  c #009200",
"l  c #009A00",
"z  c #0D9400",
"x  c #148009",
"c  c #128904",
"v  c #19800E",
"b  c #198D0D",
"n  c #1F8C13",
"m  c #129D05",
"M  c #179D0A",
"N  c #1A920D",
"B  c #189D0C",
"V  c #1F9613",
"C  c #00A300",
"Z  c #00AB00",
"A  c #0DA302",
"S  c #0BAB02",
"D  c #00B000",
"F  c #0BB001",
"G  c #0EBC08",
"H  c #17A30B",
"J  c #14B30A",
"K  c #13B90B",
"L  c #249219",
"P  c #229915",
"I  c #2A9C1C",
"U  c #2C8821",
"Y  c #2C9620",
"T  c #329626",
"R  c #329B27",
"E  c #349C2A",
"W  c #3E9932",
"Q  c #31A524",
"!  c #35A328",
"~  c #38A22D",
"^  c #3FA334",
"/  c #0AC402",
"(  c #0BCC04",
")  c #12C00A",
"_  c #12D50B",
"`  c #15D90F",
"'  c #17D812",
"]  c #1CD815",
"[  c #24D71D",
"{  c #31D628",
"}  c #478E3D",
"|  c #488E3D",
" . c #45983A",
".. c #45A838",
"X. c #49A13D",
"o. c #4AAB3C",
"O. c #4D8F40",
"+. c #4C9240",
"@. c #598853",
"#. c #53964B",
"$. c #5E9D52",
"%. c #4DAD41",
"&. c #52A445",
"*. c #57A64F",
"=. c #52AE48",
"-. c #54B348",
";. c #55B847",
":. c #59B24F",
">. c #5DBB4F",
",. c #649660",
"<. c #67B65E",
"1. c #6DBD64",
"2. c #70B363",
"3. c #73B96B",
"4. c #79BD6B",
"5. c #7CB874",
"6. c #42C03D",
"7. c #63C255",
"8. c #75C26B",
"9. c #78C46E",
"0. c #79C371",
"q. c #7FC679",
"w. c #73DE6A",
"e. c #82BA7C",
"r. c #82CC73",
"t. c #85CA7B",
"y. c #89C67F",
"u. c #89D07C",
"i. c #87E57D",
"p. c #87C480",
"a. c #8ACB82",
"s. c #8FCE89",
"d. c #9BC697",
"f. c #9BC997",
"g. c #94D387",
"h. c #94D38A",
"j. c #92D985",
"k. c #9AD194",
"l. c #9DD098",
"z. c #8EE584",
"x. c #98E18E",
"c. c #A8D6A4",
"v. c #ADD5A9",
"b. c #AADEA0",
"n. c #B0D8AD",
"m. c #B6D8B1",
"M. c #B9D9B6",
"N. c #A3E294",
"B. c #AAE39D",
"V. c #AFE1A5",
"C. c #AEE9A2",
"Z. c #B1EAA3",
"A. c #B8E4AE",
"S. c #B8EDAD",
"D. c #BDE6B7",
"F. c #BCEBB1",
"G. c #BFF2B2",
"H. c #C1E2BC",
"J. c #C0EEB5",
"K. c #C3ECBA",
"L. c #C2F4B6",
"P. c #C3E1C0",
"I. c #C7EBC3",
"U. c #CAE5C5",
"Y. c #CAE9C4",
"T. c #CFF0C9",
"R. c #CCF9C1",
"E. c #D1EFCC",
"W. c #D5EDD1",
"Q. c #D0F5C7",
"!. c #D4F4CC",
"~. c #D8F9CF",
"^. c #DAF4D5",
"/. c #DFFAD8",
"(. c #E1F5DD",
"). c #E2FBDD",
"_. c #E4FCE0",
"`. c #E9FDE4",
"'. c #EDFEEA",
"]. c #F1FEED",
"[. c #F5FFF2",
"{. c #F8FFF6",
"}. c #FDFFFC",
"|. c None",
/* pixels */
"|.|.|.|.|.|.< , w a | | s 1 @   |.|.|.|.|.|.",
"|.|.|.|.+ < #.v.'.}.}.}.}.[.m.@.@   |.|.|.|.",
"|.|.|.$ 6 H.}.}.}.{.{.}.}.}.}.}.Y.4   |.|.|.",
"|.|.  w K.}.}.].`._.].}.}.{.{.}.}.Y.3   |.|.",
"|.  5 F.}.^.D.M.m.n.W.}.{.{.[.].].}.A.* |.|.",
"|.+ r.).v.d.f.f.f.l.^.W.(.`.W.'.'.'.].2.. |.",
"  i j.f.e.y.y.t.s.I.{._.(.U.^.'.`.).).C.1 |.",
". &.Q *.3.1.1.q.(.}.{.{.{.[.].`.).).^.G.+.  ",
"@ >.g t =.:.=.1.].}.}.}.{.[.'.`.E.^.K.L.4.. ",
"* j.B.9.=.E ^ ~ 9.].{.{.}.[.'.`.E.D.4.t.r.@ ",
"u Z.J.Q.K. .b P V R Y c.}.[.'.)./.8.X...;.@ ",
"y C.F.K.!.E.U d j j d <.}.[.`.`.h.9 T 8.P + ",
"& B.F.J.~.5.9 d d d 0 ..{.]._.K.L g %.I d O ",
"O g.L.K.A.n 0 d d d d N (.].!.-.9 7 V.S. .  ",
"  $.R.y.q d d d d d d d a.`.9.g q v b.L.p   ",
"|.= N.R 9 d d f k k k k M Q d 0 I P ! o.+ |.",
"|.  | 7.c j k l C C C C l l k k j N f <   |.",
"|.|.+ W m H A Z Z D D D D Z C H B z 7 . |.|.",
"|.|.|.O h S K G ) ( / / / ) K J S 7 .   |.|.",
"|.|.|.|.O t G { ] ' ` ' _ ( ( S 8   |.|.|.|.",
"|.|.|.|.|.  - ,.j.x.i.z.w.o.r #   |.|.|.|.|.",
"|.|.|.|.|.|.|.  o : > > : X   |.|.|.|.|.|.|."
};
