/* XPM */
static char *prefframe_filetransfer[] = {
/* columns rows colors chars-per-pixel */
"32 32 173 2",
"   c black",
".  c #7F0000",
"X  c #7F2A00",
"o  c #8F2F00",
"O  c #8D3800",
"+  c #912400",
"@  c #942A00",
"#  c #953500",
"$  c #963A00",
"%  c #993500",
"&  c #9B3A00",
"*  c #A03E00",
"=  c #9F4000",
"-  c #A24101",
";  c #A54709",
":  c #A64905",
">  c #AA4604",
",  c #AA4A06",
"<  c #AA4D0B",
"1  c #AA4D12",
"2  c #AC520B",
"3  c #AC5013",
"4  c #B14E07",
"5  c #B3520B",
"6  c #B25B0C",
"7  c #BB530A",
"8  c #BC5B0D",
"9  c #B05611",
"0  c #B45B13",
"q  c #B35B1A",
"w  c #B85D13",
"e  c #BD6112",
"r  c #BB6813",
"t  c #B76521",
"y  c #BE7225",
"u  c #C2590A",
"i  c #C75C11",
"p  c #C16511",
"a  c #C16B14",
"s  c #CC6814",
"d  c #C2751B",
"f  c #D56612",
"g  c #D26D15",
"h  c #DF6A15",
"j  c #D57117",
"k  c #DC7318",
"l  c #DF7A1C",
"z  c #C9752A",
"x  c #C47D3D",
"c  c #CE7E35",
"v  c #D9752E",
"b  c #DF7A22",
"n  c #D37A3B",
"m  c #E46E17",
"M  c #E47219",
"N  c #E47A1B",
"B  c #EE751A",
"V  c #EB7A1C",
"C  c #F77B1D",
"Z  c #FC7D1E",
"A  c #CC7F46",
"S  c #D58039",
"D  c #DE9024",
"F  c #FF811F",
"G  c #FF8E16",
"H  c #FF891E",
"J  c #E38B22",
"K  c #EC8520",
"L  c #F58C23",
"P  c #FF8421",
"I  c #FF8D24",
"U  c #FF892B",
"Y  c #FF8B35",
"T  c #FC8E39",
"R  c #F29A29",
"E  c #FE9224",
"W  c #FF942A",
"Q  c #FF9926",
"!  c #FE9929",
"~  c #FF9433",
"^  c #FF9738",
"/  c #FF9A38",
"(  c #E8AE30",
")  c #EBB232",
"_  c #EFB935",
"`  c #EFBC39",
"'  c #FFA327",
"]  c #FDA42D",
"[  c #FFA923",
"{  c #FCA82D",
"}  c #FFA231",
"|  c #F9AC31",
" . c #F2B534",
".. c #F2BF38",
"X. c #FEB131",
"o. c #FCBA35",
"O. c #FEBD38",
"+. c #C58043",
"@. c #D88F46",
"#. c #D28D55",
"$. c #DA9149",
"%. c #D89456",
"&. c #DC9C60",
"*. c #DE9F6A",
"=. c #DBA25C",
"-. c #E79342",
";. c #E2945C",
":. c #E39F5F",
">. c #EB9C51",
",. c #EA9F5A",
"<. c #E09762",
"1. c #E9A051",
"2. c #EBBA4E",
"3. c #FFA542",
"4. c #FFA34B",
"5. c #FFAA41",
"6. c #FFA848",
"7. c #F4A957",
"8. c #FFA753",
"9. c #FFA35A",
"0. c #FFAC53",
"q. c #FFAC58",
"w. c #FFBF4A",
"e. c #FFB757",
"r. c #FFBD56",
"t. c #E1A976",
"y. c #E7B967",
"u. c #FEAB66",
"i. c #FFB364",
"p. c #FFBC6B",
"a. c #FFBC73",
"s. c #FFC235",
"d. c #FFC33A",
"f. c #FECD3D",
"g. c #FFCA4E",
"h. c #FFD440",
"j. c #FFD843",
"k. c #FFD849",
"l. c #FFC167",
"z. c #FFC26A",
"x. c #FFCB6C",
"c. c #FFC175",
"v. c #FFC971",
"b. c #FFDB6A",
"n. c #FFD17A",
"m. c #FFE06E",
"M. c #E6B486",
"N. c #EABB8E",
"B. c #F7BC81",
"V. c #FFBA81",
"C. c #F2C481",
"Z. c #F0C089",
"A. c #FFC486",
"S. c #FFCC8B",
"D. c #FFC794",
"F. c #FFCF92",
"G. c #F8C898",
"H. c #FFD883",
"J. c #F7D098",
"K. c #FFD797",
"L. c #FBD69C",
"P. c #FFD99A",
"I. c #FFD1A1",
"U. c #FED8A0",
"Y. c #FDDAA8",
"T. c #FEE19A",
"R. c #FFE8AD",
"E. c #FDE3BA",
"W. c #FFEED0",
"Q. c #FFF5C7",
"!. c #FFF4D1",
"~. c #FFF2D9",
"^. c None",
/* pixels */
"^.^.^.^.^.^.^.^.^.^.^.^.^.^.^.^.^.. % $ & ^.^.^.^.^.^.^.^.^.^.^.",
"^.^.^.^.^.^.^.^.^.^.^.^.^.^.^.% & & 5 < & ^.^.^.^.^.^.^.^.^.^.^.",
"^.^.^.^.^.^.^.^.^.^.^.^.^.$ % & 0 =.K.3 % ^.^.^.^.^.^.^.^.^.^.^.",
"^.^.^.^.^.^.^.^.^.^.^.# % & y y.T.Q.J.- # ^.^.^.^.^.^.^.^.^.^.^.",
"^.^.^.^.^.^.^.^.^.& % - d 2.m.b.g.H.C.q - % & ^.^.^.^.^.^.^.^.^.",
"^.^.^.^.^.^.^.^.% & d ` k.k.f.s.s.n.P.L.Z.#.1 & % ^.^.^.^.^.^.^.",
"^.^.^.^.^.^.^.^.X $ r f.j.f.f.d.d.w.r.z.S.Y.G.+.& & ^.^.^.^.^.^.",
"^.^.^.^.^.^.^.^.^.^.o 6 d.j.f.d.O.o.X.' } 0.A.I.<.- & ^.^.^.^.^.",
"^.^.^.^.^.^.^.^.^.^.^.% < _ h.d.o.O.O.o.X.Q ~ i.D.;.* % ^.^.^.^.",
"^.^.^.^.^.^.^.^.^.^.^.^.& ; ) f.O.O.6 6 D X.! P 9.V.n & o ^.^.^.",
"^.^.^.^.^.^.^.^.^.^.^.^.^.& : ) f.o.- # % e | Q P 9.u.3 $ ^.^.^.",
"^.^.$ $ % % % $ & ^.^.^.^.^.& 3 ( _ - ^.# # w { I Y 9.v $   ^.^.",
"^.^.& q +.S y 9 & ^.^.^.^.^.^.& - a - ^.^.^.% a { P T T > & ^.^.",
"^.^.& b x.R.!.t % ^.^.^.^.^.^.^.$ & & ^.^.^.# $ J ! Z U i % ^.^.",
"^.^.* N [ x.E.1 % ^.^.^.^.^.^.^.^.@ % ^.^.^.^.# p { P P m & ^.^.",
"^.^.& N { x.Y.1 % ^.^.^.^.^.^.^.^.^.^.^.^.^.^.& , ] P Z B * ^.^.",
"^.^.& k ' l.U.6 % ^.^.^.^.^.^.^.^.^.^.^.^.^.^.+ - R I Z C - ^.^.",
"^.^.$ g ' e.K.z % ^.^.^.^.^.^.^.^.^.^.^.^.^.^.X - R I Z C - ^.^.",
"^.^.$ 8 Q 5.S.1.& % ^.^.^.% & $ ^.^.^.^.^.^.^.O - ] I P Z - ^.^.",
"^.^.% - L ! p.c.e # ^.^.^.& : & $ ^.^.^.^.^.^.$ ; J M m f * ^.^.",
"^.^.^.& g ! 3.c.7., % ^.^.% c @.& & ^.^.^.^.^.& * & & * & & ^.^.",
"^.^.^.% , ! ! 0.c.-.- % # % %.~.$.* & ^.^.^.^.^.^.^.^.^.^.^.^.^.",
"^.^.^.% $ j ! W q.a.>.w * % :.~.~.%.* % ^.^.^.^.^.^.^.^.^.^.^.^.",
"^.^.^.^.% - K Q U 4.a.a.1.n B.S.a.W.t.* % ^.^.^.^.^.^.^.^.^.^.^.",
"^.^.^.^.^.& > K ! I ~ 8.a.S.I.i.G 6.E.M.- $ ^.^.^.^.^.^.^.^.^.^.",
"^.^.^.^.^.^.% - l ! E P I ^ 4./ E E ! S.N.1 & . ^.^.^.^.^.^.^.^.",
"^.^.^.^.^.^.^.$ & u K ! ! I H I I I E E a.*.& * ^.^.^.^.^.^.^.^.",
"^.^.^.^.^.^.^.^.o $ & 7 s K I P I I I V u ; & # ^.^.^.^.^.^.^.^.",
"^.^.^.^.^.^.^.^.^.^.& # # k ! I I V u - $ % ^.^.^.^.^.^.^.^.^.^.",
"^.^.^.^.^.^.^.^.^.^.^.^.* K ! k 7 & # # ^.^.^.^.^.^.^.^.^.^.^.^.",
"^.^.^.^.^.^.^.^.^.^.^.# * f 4 & $ % ^.^.^.^.^.^.^.^.^.^.^.^.^.^.",
"^.^.^.^.^.^.^.^.^.^.^.% * $ % % ^.^.^.^.^.^.^.^.^.^.^.^.^.^.^.^."
};
