/* XPM */
static char *prefframe_user[] = {
/* columns rows colors chars-per-pixel */
"32 32 257 2",
"   c #000000",
".  c #02060D",
"X  c #030B19",
"o  c #3F3D39",
"O  c #091C40",
"+  c #0A1F4B",
"@  c #0B2049",
"#  c #122E66",
"$  c #153371",
"%  c #383E48",
"&  c #3C414A",
"*  c #403E3A",
"=  c #41403E",
"-  c #4A4847",
";  c #484F5A",
":  c #434A56",
">  c #54524D",
",  c #595550",
"<  c #595856",
"1  c #585856",
"2  c #56606E",
"3  c #5E656F",
"4  c #5C6679",
"5  c #64625F",
"6  c #666360",
"7  c #67696A",
"8  c #6A6761",
"9  c #6C6A68",
"0  c #797775",
"q  c #797875",
"w  c #7A7978",
"e  c #777572",
"r  c #1E4086",
"t  c #1F4189",
"y  c #23468D",
"u  c #26488E",
"i  c #28498E",
"p  c #2C4D91",
"a  c #264B96",
"s  c #2E519B",
"d  c #305091",
"f  c #385A9F",
"g  c #375AA0",
"h  c #3859A0",
"j  c #375FB0",
"k  c #2E60CB",
"l  c #3364CC",
"z  c #3C6BCE",
"x  c #3D6AC6",
"c  c #3267D6",
"v  c #3469D7",
"b  c #356AD9",
"n  c #3E73DD",
"m  c #5F789D",
"M  c #5C7498",
"N  c #5A77A2",
"B  c #466AB7",
"V  c #617799",
"C  c #6B7E9A",
"Z  c #647A9A",
"A  c #426FD0",
"S  c #4A75D1",
"D  c #4D79D2",
"F  c #4476D9",
"G  c #5279C8",
"H  c #507DDE",
"J  c #567FD4",
"K  c #77879F",
"L  c #7C899D",
"P  c #6D85A7",
"I  c #6487BC",
"U  c #668ABE",
"Y  c #7487A3",
"T  c #7C92B5",
"R  c #7B94B8",
"E  c #5580DE",
"W  c #5C83D4",
"Q  c #5A83DA",
"!  c #588BD8",
"~  c #5C90DE",
"^  c #4E8DEC",
"/  c #548DE6",
"(  c #518FEB",
")  c #5A85E2",
"_  c #5D8AE4",
"`  c #5391ED",
"'  c #5993EC",
"]  c #5E98EC",
"[  c #5592F0",
"{  c #5B97F0",
"}  c #648BC6",
"|  c #6086D6",
" . c #6288D6",
".. c #6089DF",
"X. c #6E96D0",
"o. c #6E9ADD",
"O. c #6695D9",
"+. c #7596C7",
"@. c #7997C6",
"#. c #7F9ECD",
"$. c #7195D2",
"%. c #7B9FD5",
"&. c #7D9FDD",
"*. c #698FE1",
"=. c #658DE2",
"-. c #6090E5",
";. c #659CEE",
":. c #6C94E3",
">. c #6F9FE6",
",. c #6F9CEA",
"<. c #629BF0",
"1. c #729AE6",
"2. c #709EEB",
"3. c #799CE5",
"4. c #7B9BE8",
"5. c #7297E2",
"6. c #78A0DB",
"7. c #6AA0EE",
"8. c #6DA2F1",
"9. c #72A3EE",
"0. c #77A8EE",
"q. c #7AA2E9",
"w. c #7BA8ED",
"e. c #70A4F1",
"r. c #78A9F0",
"t. c #86837F",
"y. c #838383",
"u. c #888786",
"i. c #8A8987",
"p. c #87898B",
"a. c #868A92",
"s. c #8A8D94",
"d. c #8E9094",
"f. c #959390",
"g. c #9B9B9A",
"h. c #989797",
"j. c #858DA3",
"k. c #879CBE",
"l. c #8997B0",
"z. c #8F9EB3",
"x. c #8999B9",
"c. c #9FA1A2",
"v. c #96A2B6",
"b. c #95A4BA",
"n. c #A3A29E",
"m. c #A3A2A1",
"M. c #A8A7A5",
"N. c #A9A8A6",
"B. c #ACABA9",
"V. c #B0AFAB",
"C. c #B5B4B4",
"Z. c #BCBCBD",
"A. c #819EC9",
"S. c #819CE2",
"D. c #86A0C7",
"F. c #83A0CB",
"G. c #89A1C4",
"H. c #87A8DC",
"J. c #8CACDD",
"K. c #94A5C5",
"L. c #95A8CA",
"P. c #93ACD4",
"I. c #99AFDD",
"U. c #97AED6",
"Y. c #98B1DD",
"T. c #82A3E5",
"R. c #81A6E9",
"E. c #82A9EC",
"W. c #88A6E8",
"Q. c #8CA9E7",
"!. c #8BABEA",
"~. c #81ACF1",
"^. c #80AFF8",
"/. c #8EB2EE",
"(. c #81B0F8",
"). c #89B3F2",
"_. c #8FB8F1",
"`. c #88B3F6",
"'. c #92ACEA",
"]. c #93AFE1",
"[. c #93B3EC",
"{. c #95B8EF",
"}. c #9AB4EB",
"|. c #9DB8ED",
" X c #9EB8E5",
".X c #91B9F3",
"XX c #99BCF2",
"oX c #9ABFF9",
"OX c #93B5F1",
"+X c #A8B3C8",
"@X c #A5B7DE",
"#X c #A1B4D3",
"$X c #B3BFD4",
"%X c #A7BEE0",
"&X c #A3BBEC",
"*X c #A1B4E4",
"=X c #A1BDF1",
"-X c #A9BEF1",
";X c #9EC0F4",
":X c #B0C4DF",
">X c #A4C1EE",
",X c #ABC2EE",
"<X c #A4C4F4",
"1X c #A3C5F9",
"2X c #A7C8FA",
"3X c #ACC4F1",
"4X c #ADC9F4",
"5X c #ABC8F9",
"6X c #B1C3EC",
"7X c #B9C9EF",
"8X c #B0C6F1",
"9X c #B3CBF3",
"0X c #B4CFF8",
"qX c #BACDF2",
"wX c #B6D0F7",
"eX c #BCD2F6",
"rX c #C0BEBA",
"tX c #C3C3C3",
"yX c #C5C6C9",
"uX c #C6C8C9",
"iX c #C9C7C6",
"pX c #CACBCB",
"aX c #CBC9C6",
"sX c #C4CCDD",
"dX c #CED0D3",
"fX c #D3D1CE",
"gX c #D3D4D4",
"hX c #D4D6D9",
"jX c #D9D7D0",
"kX c #DAD9D6",
"lX c #DBDBDA",
"zX c #CDD7EA",
"xX c #C9D8EF",
"cX c #CBD3E1",
"vX c #C2D4F4",
"bX c #C6D8F6",
"nX c #CBD9F5",
"mX c #C9D4F1",
"MX c #D6DCE2",
"NX c #D6DEED",
"BX c #D8DEEC",
"VX c #DDDDE0",
"CX c #D2DDF5",
"ZX c #DEE0E2",
"AX c #D6E0F3",
"SX c #D9E1F3",
"DX c #E0DFDE",
"FX c #E4E4E4",
"GX c #EAE8E7",
"HX c #ECECEC",
"JX c #ECEEF5",
"KX c #F1F0EF",
"LX c #F5F5F5",
"PX c #F7F8F8",
"IX c #FAF9F7",
"UX c #FAFAFA",
"YX c None",
/* pixels */
"YXX t G | |  . . . . . . . . . . . . . .~  . . . . . .B $   YXYX",
"X ) mXBXCXCXCXCXCXCXCXCXCXCXAXSXAXAXCXCXCXAXCXCXCXCXnXNX7Xj   YX",
"a vXlXGXzXbXnXnXnXnXnXbXAXHXKXKXKXHXAXnXnXnXCXnXnXnXzXFXFX=X+ YX",
"Q vXcXgXmXbXnXbXbXbXbXBXKXHXLXJXLXHXHXBXbXbXbXbXbXbXxXgXcXmXy o ",
" .7X7XeXeXeXbXbXvXvXnXGXHXLXjXNXUXUXHXGXmXeXbXeXvXvXvXeXqXqXd * ",
" .6XqXwXeXeXeXeXeXeXMXFXUXUXrXIXUXUXUXFXZXeXeXeXeXwXqXqX8X8Xd * ",
"W ,X3X4X0XwX0XwX0X0XlXHX,XUXLX$XUXUX6XHXlXwXwXwX0X0X4X9X-X-Xd o ",
"J &X&X3X4X5X4X4X4X5XjXGXUXUXUXLXUXUXUXGXgX2X4X4X4X4X3X,X-X&Xi o ",
"J }.|.|.<X<X<X<X<X<XpXkXUXPXLXLXPXUXUXlXpX;X<X<X<X<X;X|.{.}.i = ",
"z 3.{.{.|.;X;X.X~.7.R g.ZXPXLXLXLXPXZXtX:X;X;X;X;X;XXX{.[.Q.i o ",
"k c F ' ' %.#.X.^ ` / d.g.hXPXPXPXhXg.d.w.{.{.@X:X:X/./.Q.T.i = ",
"k b n W Z.iXjXaXZ.O.` ! a.f.g.B.g.f.a.! ^ 6.gXlXFXkXdX].q.3.i o ",
"k b D rXgXUXS.IXdXZ.~ ( ( I Y L Y U ` ( ~ Z.gXIX&XUXpXfX6.:.i * ",
"k v z.aXw C.UXLXIXuXb.( ' ` ` ` ` ` ` ( b.iXIXLXUXy.DXgX+X=.u o ",
"l b V.:XvXi.Z.UX6X:XB.' ' ' ' ' ' ' ' ` V.$X6XIXB.kXxXsXZ._ y o ",
"l n M.lXIXUXIXLXIXlXn.;.] ] ] ] ] ] ] { M.lXIXLXUXPXIXDXC.) y o ",
"l F l.Z.UXLXLXLXPXZ.z.;.;.;.;.;.7.;.;.{ z.Z.PXLXLXLXUXZ.b.) y o ",
"l E  .M.yXLXUXUXyXn.>.7.7.7.7.7.7.7.7.7.>.m.yXPXUXPXyXn.W H y o ",
"z E _ $.c.N.C.N.c.6.0.e.9.o.} } } 7.0.e.e.%.m.B.C.N.c.$.-.E y o ",
"z _ :.2.9.F.G.F.0.0.0.0.0.M t.g.5 U r.r.r.r.r.F.G.A.9.,.:.) y o ",
"A :.1.q.r.(.(.(.~.~.~.~.~.V n.tX9 m r.~.~.~.r.(.(.r.w.q.5.=.y o ",
"A 5.q.w.+.6 0 2 `.).).).).V u.c.< m ).).).).`., w > ).w.3.:.u o ",
"S 3.W.).@.f.pX: _..X_._._.P t.g., m .X_._._._.e pX< T.!.R.3.y o ",
"S T.!.{.A.0 g.% {.;X{.{.XXC c.uX9 m ;XXXXXXXoX6 h.- H.[.!.q.u o ",
"S Q.[.XXA.u.C.& |.;X;X<X;XF.yXFXy.Y <X;X;X;X1X9 C.- J.XX[.W.i o ",
"S '.|.=XP.C.GX; >X<X<X<X<X2Xb.p.3 R <X<X<X<X2Xs.GX7 J.|.}.Q.i o ",
"D }.I.K.2Xb.p.4 >X3X4X<X4X4X XY C I.4X<X4X4X4X#Xs.3 I. X&X'.i o ",
"S }.h.h.K.&Xx.G.3X4X8X4X3X4X3X,X3X3X3X3X4X4X8X6XA.x.L.m.a.}.r o ",
"t '.j.y.@X8X8X8X8X8X8X8X8X8X8X8X3X6X6X4X8X8X8X8X8X8XU.q s.4.O = ",
". x '.-X,X3X3X6X-X6X8X6X3X3X6X8X3X3X3X3X6X-X3X-X3X,X6X*X4.a   YX",
"YX  # s f f f f f f f f f h f f h f h h f f f f f f h a +     YX",
"YXYX* o * * * * * * * o o o o o o o o o * * * * * * o o = YXYXYX"
};
