/* XPM */
static char *prefframe_buddylist[] = {
/* columns rows colors chars-per-pixel */
"32 32 135 2",
"   c black",
".  c #002C8F",
"X  c #03339B",
"o  c #0032A4",
"O  c #0638A1",
"+  c #053AA9",
"@  c #083CA3",
"#  c #043CBD",
"$  c #0231C5",
"%  c #0330D9",
"&  c #0940A5",
"*  c #0A43AA",
"=  c #0B45B1",
"-  c #0E4BB5",
";  c #114BAD",
":  c #114FB7",
">  c #1553B2",
",  c #1454BA",
"<  c #175ABE",
"1  c #1858B6",
"2  c #1A5DB8",
"3  c #1E63BC",
"4  c #2067BE",
"5  c #0641C1",
"6  c #0844C3",
"7  c #0C4AC6",
"8  c #1253C9",
"9  c #195EC1",
"0  c #195CCD",
"q  c #0347FD",
"w  c #0349FF",
"e  c #094FFF",
"r  c #0C52FF",
"t  c #1157FF",
"y  c #145AFF",
"u  c #195EFF",
"i  c #1C63C4",
"p  c #1E63D0",
"a  c #1D63FF",
"s  c #236BC2",
"d  c #216BC9",
"f  c #2167D2",
"g  c #256BD3",
"h  c #2671C6",
"j  c #2572CE",
"k  c #2875C8",
"l  c #2C7BCC",
"z  c #2972D6",
"x  c #2A7BD4",
"c  c #2E79D9",
"v  c #327DDB",
"b  c #2066FF",
"n  c #256AFF",
"m  c #296FFF",
"M  c #2D72FF",
"N  c #3176FF",
"B  c #357AFF",
"V  c #397EFF",
"C  c #2E82D9",
"Z  c #3184D2",
"A  c #3284DB",
"S  c #3489D6",
"D  c #328ADD",
"F  c #3886DE",
"G  c #3790DE",
"H  c #358EE0",
"J  c #3D8CE1",
"K  c #3C82FF",
"L  c #3691E2",
"P  c #3894E4",
"I  c #4186FF",
"U  c #4489FF",
"Y  c #488DFF",
"T  c #4395E5",
"R  c #489BE8",
"E  c #4D92FF",
"W  c #5297FF",
"Q  c #559AFF",
"!  c #589DFF",
"~  c #4CA2EA",
"^  c #5CA1FF",
"/  c #768CE3",
"(  c #61A6FF",
")  c #65AAFF",
"_  c #69ADFF",
"`  c #6DB1FF",
"'  c #6EBBF5",
"]  c #7DA0FD",
"[  c #70B5FF",
"{  c #75B9FF",
"}  c #7ABEFF",
"|  c #7BC0FF",
" . c #D56106",
".. c #DE790E",
"X. c #E18515",
"o. c #F6AF27",
"O. c #FBD157",
"+. c #FCDA74",
"@. c #818181",
"#. c #82A5FE",
"$. c #85A8FF",
"%. c #89ACFF",
"&. c #8DB0FF",
"*. c #91B4FF",
"=. c #96B9FF",
"-. c #9BBDFF",
";. c #80C4FF",
":. c #84C8FF",
">. c #8ACEFF",
",. c #A1C3FF",
"<. c #A6C8FF",
"1. c #AACCFF",
"2. c #AFD1FF",
"3. c #B2D5FF",
"4. c #B7D9FF",
"5. c #BADCFF",
"6. c #BEE0FF",
"7. c #FCE8A0",
"8. c #C8C7D4",
"9. c #CDCCD8",
"0. c #D0CEDA",
"q. c #D4D2DD",
"w. c #D8D6E0",
"e. c #DCDBE4",
"r. c #DFDFEC",
"t. c #FEF3CB",
"y. c #E1E0E7",
"u. c #E3E3ED",
"i. c #EAE9EE",
"p. c #E6E6F0",
"a. c #EBEBF3",
"s. c #F1F1F6",
"d. c #F5F5F8",
"f. c #FDFDFE",
"g. c None",
/* pixels */
"g.g.g.g.g.g.g.g.g.g.g.g.g.g.g.g.g.g.g.g.g.g.g.g.g.g.g.g.g.g.g.g.",
"g.P G S Z Z l l k k h s s 4 3 3 2 1 > > ; ; ; & & @ O X X     g.",
"P P ~ ~ R T T T J F A v c z z g f p 0 0 8 8 7 7 6 5 # # o .     ",
"P ' >.:.;.} [ ` _ ( ! Q E Y I V B M m b u y r w w w w w $ o     ",
"P >.:.;.} { [ _ ) ^ ! W E U I V N M n a u t e w w w w w % o     ",
"P :.;.} } [ ` _ ( ! Q W Y I K B N m n a u r e w w w w w % o     ",
"P 6.6.5.4.4.3.3.3.1.1.<.<.,.,.=.=.*.*.&.%.$.$.$.] ] ] ] / o     ",
"P f.f.f.f.@.f.f.f.f.f.f.f.f.f.f.f.f.f.f.f.f.d.d.d.d.d.d.i.o     ",
"P f.f.f.f.@.f.f.f.f.f.f.f.f.f.f.f.f.f.f.f.f.f.d.d.d.d.d.u.o     ",
"P f.f.f.f.@.f.f.f.f.f.f.X.X.X.X... .f.f.d.f.d.f.d.d.d.s.y.o     ",
"L f.f.f.f.@.f.f.f.f.f.f.X.f.f.t.7. .f.f.f.d.d.d.d.d.d.s.y.o     ",
"L f.f.f.f.@.f.f.f.f.f.f.X.f.t.7.+. .f.d.f.d.d.d.d.d.s.s.e.o     ",
"D f.f.f.f.@.@.@.@.@.@.@.X.t.7.+.O. .d.f.d.d.d.d.s.s.s.a.e.o     ",
"D f.f.f.f.@.f.f.f.f.f.f...7.+.O.o. .d.d.d.d.d.d.s.s.s.s.e.o     ",
"D f.f.f.f.@.f.f.f.f.f.f. . . . . . .f.d.d.d.d.s.s.a.s.a.w.o     ",
"D f.f.f.f.@.f.f.f.f.f.f.f.f.f.d.f.d.d.d.d.s.s.s.s.a.a.a.q.o     ",
"D f.f.f.f.@.f.f.f.f.f.f.f.f.f.d.d.d.d.d.s.s.s.s.a.a.a.p.w.o     ",
"A f.f.f.f.@.f.f.f.f.f.f.f.d.f.d.d.d.d.d.s.s.s.a.a.a.a.p.9.o     ",
"C f.f.f.f.@.f.f.f.f.f.f.X.X.X.X... .d.d.s.a.a.a.a.a.p.a.9.o     ",
"A f.f.f.f.@.f.f.f.f.d.f.X.f.f.t.7. .s.s.s.a.a.a.a.a.p.p.9.o     ",
"C f.f.f.f.@.f.f.f.f.d.f.X.f.t.7.+. .s.a.s.a.a.a.p.p.p.p.9.o     ",
"C f.f.f.f.@.@.@.@.@.@.@.X.t.7.+.O. .s.s.a.a.a.p.p.p.p.p.9.o     ",
"C f.f.f.f.f.f.f.f.d.d.d...7.+.O.o. .a.a.a.a.p.a.p.p.p.r.9.o     ",
"x f.f.f.f.f.f.d.f.f.d.d. . . . . . .a.a.a.a.p.p.p.p.p.p.9.o     ",
"x f.f.f.f.f.f.d.f.d.d.d.d.s.s.s.a.a.a.a.a.p.p.p.r.p.r.r.9.o     ",
"x f.f.f.f.d.f.d.d.d.d.d.s.s.s.s.a.a.a.a.p.a.u.p.p.r.r.r.9.o     ",
"x s.a.a.i.i.i.i.u.y.y.e.e.e.w.w.q.q.q.9.9.9.9.9.8.9.9.9.8.o     ",
"x j j d d i i < < , , , - = = + + + o o o o o o o o o o o o     ",
"                                                                ",
"                                                                ",
"g.g.g.g.g.g.g.g.g.g.g.g.g.g.g.g.g.g.g.g.g.g.g.g.g.g.g.g.g.g.g.g.",
"g.g.g.g.g.g.g.g.g.g.g.g.g.g.g.g.g.g.g.g.g.g.g.g.g.g.g.g.g.g.g.g."
};
