/* XPM */
static char *prefframe_connection[] = {
/* columns rows colors chars-per-pixel */
"32 32 125 2",
"   c #000000",
".  c #0B0B0B",
"X  c #0F101F",
"o  c gray7",
"O  c #1B1B1B",
"+  c #131322",
"@  c #1E1E3C",
"#  c #202020",
"$  c #2C2C2C",
"%  c #24243C",
"&  c #31312F",
"*  c #323232",
"=  c gray23",
"-  c #2F2F56",
";  c #3A3A58",
":  c #323262",
">  c #3C3C62",
",  c #39386F",
"<  c #3C3C73",
"1  c gray27",
"2  c gray35",
"3  c #494974",
"4  c #51517C",
"5  c gray40",
"6  c DimGray",
"7  c #757575",
"8  c #7C7C7C",
"9  c #4E4E82",
"0  c #4E4D95",
"q  c #535381",
"w  c #52519B",
"e  c #5555A1",
"r  c #5B5BA5",
"t  c #5D5DAA",
"y  c #5D5CB1",
"u  c #6666A6",
"i  c #6363AA",
"p  c #6A6AAD",
"a  c #6465B0",
"s  c #6C6DB2",
"d  c #6D6FBF",
"f  c #6F71BB",
"g  c #7676A8",
"h  c #7474B3",
"j  c #7575B9",
"k  c #7877B4",
"l  c #7979B6",
"z  c #7C7CBB",
"x  c #757AC4",
"c  c #7A7FC8",
"v  c #7C81C8",
"b  c #818181",
"n  c #929292",
"m  c gray60",
"M  c #8383BD",
"N  c #8989BF",
"B  c #A4A4A3",
"V  c #ABABAB",
"C  c gray70",
"Z  c gray74",
"A  c #8083C0",
"S  c #8186CA",
"D  c #8688C3",
"F  c #8388C9",
"G  c #8C8CC1",
"H  c #8B8FCD",
"J  c #9494C4",
"K  c #9495C9",
"L  c #9C9CCA",
"P  c #9196D3",
"I  c #969EE1",
"U  c #9CA2DB",
"Y  c #9FA4E3",
"T  c #A5A5CE",
"R  c #A0A3D6",
"E  c #A9AAD5",
"W  c #B3B3D5",
"Q  c #B2B3D8",
"!  c #BBBBDA",
"~  c #ACAFE2",
"^  c #ADB2E3",
"/  c #B3BCF1",
"(  c #BDC2EA",
")  c #B4C1FF",
"_  c #BEC4F0",
"`  c #B9C6FD",
"'  c #BDC9FF",
"]  c gray76",
"[  c #C1C1CD",
"{  c gray79",
"}  c #C2C2DE",
"|  c #D3D3D3",
" . c gray85",
".. c #C2C7EB",
"X. c #CACBE5",
"o. c #C6CDF3",
"O. c #C2CDFE",
"+. c #C6D1FF",
"@. c #CAD4FE",
"#. c #CFD8FF",
"$. c #D1D1E6",
"%. c #D1D3EB",
"&. c #D8D7E9",
"*. c #DCDCEC",
"=. c #D4D6F0",
"-. c #D0D7FD",
";. c #D5DAF4",
":. c #D3DBFE",
">. c #DCDEF1",
",. c #D8DEFF",
"<. c #DBE2FE",
"1. c #E6E6E6",
"2. c #E2E2EE",
"3. c #E9E9E9",
"4. c #E2E3F1",
"5. c #E1E6FE",
"6. c #E5EAFF",
"7. c #ECECF4",
"8. c #E9EDFE",
"9. c #EDF0FE",
"0. c #F5F5F4",
"q. c #F2F4FE",
"w. c #F6F8FF",
"e. c #FEFEFE",
"r. c None",
/* pixels */
"r.r.r.r.r.r.r.r.r.r.r.r.r.r.r.r.r.r.r.r.r.r.r.r.r.r.r.r.r.r.r.r.",
"r.r.r.r.r.r.r.r.r.r.r.r.r.r.r.r.r.r.r.r.r.r.r.r.r.r.r.r.r.r.r.r.",
"r.r.r.r.r.r.N N M z N J J N M k h h h h h r.r.r.r.r.r.r.r.r.r.r.",
"r.r.r.r.r.N N K Q X.;.5.5.;.o.( ^ U K M k h s s p p p r.r.r.r.r.",
"r.r.r.r.r.J 4.e.w.w.9.8.6.6.5.<.,.:.#.+.O./ ^ U P j p r.r.r.r.r.",
"r.r.r.r.r.J 7.e.e.e.w.q.8.5.<.,.:.-.@.+.+.+.@.@.+.H u r.r.r.r.r.",
"r.r.r.r.r.N *.e.e.e.e.e.e.w.q.5.<.:.:.<.<.<.:.6.%.M i r.r.r.r.r.",
"r.r.r.r.r.N *.e.e.e.e.e.w.w.w.q.q.9.9.*.X.X.&.3.2.D i r.r.r.r.r.",
"r.r.r.r.r.l $.e.e.e.e.e.w.w.w.q.9.q.%.T ! } %.2.*.D i r.r.r.r.r.",
"r.r.r.r.r.l X.e.e.e.e.w.w.w.q.q.9.q.X.L W } *.=.o.S i r.r.r.r.r.",
"r.r.r.r.r.l ! e.e.e.w.w.w.q.q.8.9.9.2.} 4.8.:.@.+.F i r.r.r.r.r.",
"r.r.r.r.r.l W e.w.w.w.w.q.q.q.q.8.6.w.w.6.<.#.@.O.v r r.r.r.r.r.",
"r.r.r.r.r.l T e.w.w.q.8.q.8.8.8.8.6.w.q.6.<.:.+.O.S r r.r.r.r.r.",
"r.r.r.r.r.l L 0.w.w.q.8.8.q.8.8.6.5.w.9.6.<.:.@.' v e r.r.r.r.r.",
"r.r.r.r.r.l N q.w.q.8.8.5.8.8.6.6.5.q.q.6.<.:.+.` v e r.r.r.r.r.",
"r.r.r.r.r.l N q.w.8.8.8.5.5.6.6.5.<.9.q.6.<.:.O.) v e r.r.r.r.r.",
"r.r.r.r.r.k k 8.q.9.8.6.5.<.5.6.5.<.9.q.6.<.:.' ) c e r.r.r.r.r.",
"r.r.r.r.r.k h >.w.q.6.6.<.<.,.<.<.<.8.q.6.<.#.` ) c e r.r.r.r.r.",
"r.r.r.r.r.r.k l E %.8.6.<.<.:.#.:.,.9.q.8.,.O.) ) c e r.r.r.r.r.",
"r.r.r.r.r.r.r.s s s K ..<.<.<.#.@.+.<.8.5.+.O.` ) x y r.r.r.r.r.",
"r.r.r.r.r.r.r.r.r.s i p A ^ #.<.@.+.#.5.#.@.` I d 0 < r.r.r.r.r.",
"r.r.r.r.r.r.r.r.r.r.r.r.s i z P O.@.:.6.@.~ f 0 : X     r.r.r.r.",
"r.r.r.r.r.r.r.r.r.r.r.r.r.% > s i P ..~ s , @           r.r.r.r.",
"r.r.r.r.r.r.r.r.r.r.r.r.r.  * [ g w r : X           r.r.r.r.r.r.",
"r.r.r.r.r.r.r.r.r.r.r.r.r.  * 0.B               r.r.r.r.r.r.r.r.",
"r.r.r.r.r.r.r.r.        r.r.= e.C         r.r.r.r.r.r.r.r.r.r.r.",
"r.r.r.r.r.r.r.r.r.r.r.  .   = 0.V   .   r.r.r.r.r.r.  r.r.r.r.r.",
"r.r.r.r.r.r.. * * * * $ 2 B C | { V n $ $ * * * * .     r.r.r.r.",
"r.r.r.r.r.  1 1.3.1.3. .8 | { Z ] { C 7 { 1.1.1.0.*     r.r.r.r.",
"r.r.r.r.r.  1 m m m m n b C V V V V B 5 b m m m B $     r.r.r.r.",
"r.r.r.r.r.. $ # O # # # 6 8 7 7 7 7 8 1 o # # O O O     r.r.r.r.",
"r.r.r.r.r.              . . . . . . . .                 r.r.r.r."
};
