/* XPM */
static char *prefframe[] = {
/* columns rows colors chars-per-pixel */
"32 32 207 2",
"   c #000000",
".  c #070709",
"X  c #0C0000",
"o  c #0D0A00",
"O  c #0B0B0C",
"+  c #0E0E1C",
"@  c #150C00",
"#  c #12100A",
"$  c #1B1200",
"%  c #181409",
"&  c #131314",
"*  c #1A1A1D",
"=  c #1C1C21",
"-  c #231705",
";  c #261D02",
":  c #291B00",
">  c #342800",
",  c #3F310B",
"<  c #3B3017",
"1  c #3E341B",
"2  c #232327",
"3  c #24242B",
"4  c #28272D",
"5  c #2B2B2B",
"6  c #2D2C33",
"7  c #323235",
"8  c #33333B",
"9  c #3A3A3D",
"0  c #373742",
"q  c #3B3B45",
"w  c #403313",
"e  c #443718",
"r  c #553C00",
"t  c #4E401D",
"y  c #5C4400",
"u  c #66541E",
"i  c #725D10",
"p  c #605026",
"a  c #65552A",
"s  c #7C671D",
"d  c #7C6E3D",
"f  c #424243",
"g  c #4C4C4C",
"h  c #444455",
"j  c #4B4A53",
"k  c #4F4E59",
"l  c #565656",
"z  c #54545A",
"x  c #5A5A5C",
"c  c #575660",
"v  c #5B5B65",
"b  c #5E5E68",
"n  c #62616A",
"m  c #6A6A6A",
"M  c #666671",
"N  c #777164",
"B  c #747479",
"V  c #7B7B7C",
"C  c #777784",
"Z  c #7B7B82",
"A  c #7C7C88",
"S  c #826601",
"D  c #8A6F18",
"F  c #8F700C",
"G  c #94720C",
"H  c #9F7B03",
"J  c #997C16",
"K  c #8B7422",
"L  c #837335",
"P  c #A27F0D",
"I  c #81785A",
"U  c #9C801D",
"Y  c #AA8508",
"T  c #A18214",
"R  c #B68E0A",
"E  c #B69714",
"W  c #AA8E2C",
"Q  c #A18934",
"!  c #AE952E",
"~  c #BC9A22",
"^  c #B49731",
"/  c #AFA376",
"(  c #C29A0D",
")  c #C8AA15",
"_  c #C4A026",
"`  c #CCA920",
"'  c #D1AF25",
"]  c #D3B136",
"[  c #D5B53B",
"{  c #DCBA3B",
"}  c #E3B100",
"|  c #F1B700",
" . c #C7AD4D",
".. c #C9B461",
"X. c #D3BF70",
"o. c #F7C105",
"O. c #FCCA0E",
"+. c #F8C916",
"@. c #FCCD1D",
"#. c #FFD913",
"$. c #FFDB18",
"%. c #ECC73C",
"&. c #EFCC3A",
"*. c #F3C723",
"=. c #F7CD26",
"-. c #F1CD34",
";. c #FED428",
":. c #FFDE21",
">. c #FFDD29",
",. c #FBD53A",
"<. c #FEDB32",
"1. c #FFDC3B",
"2. c #FFE22C",
"3. c #FFED2C",
"4. c #FFE533",
"5. c #FFE23B",
"6. c #DEC870",
"7. c #E0C348",
"8. c #E6C84F",
"9. c #EAC844",
"0. c #EFD355",
"q. c #F1D24B",
"w. c #F5D557",
"e. c #F8D95E",
"r. c #E1C96D",
"t. c #E8D66D",
"y. c #EAD77F",
"u. c #EED87C",
"i. c #FEDE65",
"p. c #FADE6F",
"a. c #F6DA71",
"s. c #FFE142",
"d. c #FFE056",
"f. c #FFE05A",
"g. c #FFE462",
"h. c #FFE861",
"j. c #FCE171",
"k. c #838383",
"l. c #81818B",
"z. c #8E8E8E",
"x. c #888792",
"c. c #898892",
"v. c #92929C",
"b. c #99999B",
"n. c #9597A0",
"m. c #9A9AA4",
"M. c #A6A095",
"N. c #BEB797",
"B. c #A4A4A4",
"V. c #A4A3AB",
"C. c #ABABAB",
"Z. c #ACACB4",
"A. c #B3B3B4",
"S. c #B3B3BB",
"D. c #BBBABD",
"F. c #B5B4C0",
"G. c #BABAC2",
"H. c #D1C285",
"J. c #C9C1A6",
"K. c #DBCFA4",
"L. c #D0CAB4",
"P. c #E6D589",
"I. c #E0D5AA",
"U. c #FCE98C",
"Y. c #FBE492",
"T. c #FFF18A",
"R. c #FFF491",
"E. c #FFFF93",
"W. c #EFE1A6",
"Q. c #EAE2BE",
"!. c #F2E4AB",
"~. c #FFF4A8",
"^. c #FFF7B0",
"/. c #FFFDB6",
"(. c #FFFABC",
"). c #C2C2C2",
"_. c #C4C5CB",
"`. c #CFCBC2",
"'. c #CBCBCC",
"]. c #CCCCD3",
"[. c #D0CCC2",
"{. c #D3D3D5",
"}. c #D4D4DB",
"|. c #D8D7DF",
" X c #D9D9DC",
".X c #D6D7E3",
"XX c #DCDCE2",
"oX c #DFE1F2",
"OX c #E0DFE8",
"+X c #FFFCC4",
"@X c #FFFFCD",
"#X c #FFFFD3",
"$X c #FFFFDB",
"%X c #E2E2E4",
"&X c #E3E3E9",
"*X c #E7E9EE",
"=X c #EAEAED",
"-X c #E5E7F1",
";X c #E6E8F0",
":X c #EDEEF1",
">X c #FFFFE6",
",X c #F2F2F4",
"<X c #F5F5F8",
"1X c #F4F8FF",
"2X c #FFFFF1",
"3X c #FDFDFD",
"4X c None",
/* pixels */
"4X4X4X4X4X4X4X4X4X4X4X4X4X4X4X4X4X4X4X4X4X4XA.<Xf 4X4X4X4X4X4X4X",
"4X4X4X4X4X4X4X4X4X4X4X4X4X4X4X4X4X4X4X4X4X4X& x g . 4X4X4X4X4X4X",
"4X4X4X4X4X4X4X  4X4X4X4X4X4X4X4X4X4X4X4X4XA x . #   4X4X4X4X4X4X",
"4X4X4X4X4X  g V & 4X4X4X4X4X4X4X4X4X4X9 m.,X|.4     4X4X4X4X4X4X",
"4X4X4X4X4X  b.=X).9   4X4X4X4X4X4X4X5 _.&X Xx.O 4X4X4X4X4X4X4X4X",
"4X4X4X4X4X4X7 ,X{.'.V O 4X4X4X4X4Xq }.<X].S.*   4Xv.2 4X4X4X4X4X",
"4X4X4X4X4X4X  k.).C %XB.5   4X4X  S.<X].].n   4Xx S.= 4X4X4X4X4X",
"4X4X4X4X4X4X4XO L.{.B.b.'.f     V.3X}.{.b     + F.z   l.l.  4X4X",
"4X4X4X4X4X4X4X  l D.f m  X].7 A 3X X.XC     4XV m.. z }.c   4X4X",
"4X4X4X4X4X4X4X4XO z.C. X3X3XL.A.;X.XC #   4X8 Z.6 z }.v     4X4X",
"4X4X4X4X4X4X4X4X  4 ).%X%X%X%X).J.V d K 4X  v.v B XXM     4X4X4X",
"4X4X4X4X4X4X4X4X4X  g `.'._._.`.e.' 0.i 4XM m.V.&XM .   4X4X4X4X",
"4X4X4X4X4X4X4X4X4X4X. V ].{.V.H.5.5.O.} ! `.oX&Xn     4X4X4X4X4X",
"4X4X4X4X4X4X4X4X4Xz Z._.A.Q.q.6...=.o.1.U.g.P.j     4X4X4X4X4X4X",
"4X4X4X4X4X4X4X4XZ  X3X<XL.j.~.w.N N.P.j.R.(.U.E > 4X4X4X4X4X4X4X",
"4X4X4X4X4X4Xh m.=X3X,X3X%Xr.h.=.Y.1X*XC.L 7.(.$Xq.r 4X4X4X4X4X4X",
"4X4X4X4X4Xf m.,X<X,X<X3XK.!.+.| i.3X].0   ; ` /.3X%.: 4X4X4X4X4X",
"4X4X4X4Xz S.,X X%X<X3XD./ I.*.;.f.M.3       o T ^.2X] $ 4X4X4X4X",
"4X4X4X8 S.3X,X X,X3X<Xl.b.;XW.d.h.s   4X4X4X4X  J /.>X~   4X4X4X",
"4X4X+ G.3X<XOX*X3X3X&Xc.=X3X,Xp.s.9.- 4X4X4X4X4X  W @X+XG   4X4X",
"4X& b.=X&X*X{.%X3X3X{.Z.%X<X;XN ,.s.^   4X4X4X4X4Xo  .#XU.y 4X4X",
"4Xf  XXX&X<X<X<X3X=Xb.D.*X3Xm.. Q 2.5.K 4X4X4X4X4X4X; r.#X8.: 4X",
"& V.G.].3X3X3X3X3X}.v  X3X=Xq   % { $.<.D   4X4X4X4X  < u./._ o ",
"B XX]._.V. X3X3X}.k B 3X3XV.O 4X4X< &.#.>.P   4X4X4X4X  e P.E.F ",
"].:X:X_.h Z.].}.S.c.'.=X<Xb   4X4X  a <.$.>.H   4X4X4X4X  e t.W ",
",X=X_.A Z XX]._.]. X X,X_.=   4X4X4X  p -.:.>.Y @ 4X4X4X4X  $ o ",
"=X:XF.m.}.3X3X<X|.Z. X&Xc   4X4X4X4X4X  1 [ 2.4.( $ 4X4X4X4X    ",
"b.3XG.=X3X,XZ.n 3 . * 6 .   4X4X4X4X4X4X  % Q 1.4.R X 4X4X4X4X4X",
"5 D.3X&Xm.9       4X4X  4X4X4X4X4X4X4X4X4X    u -.3.S   4X4X4X4X",
"4X= x 6     4X4X4X4X4X4X4X4X4X4X4X4X4X4X4X4X4X  , ) S   4X4X4X4X",
"4X4X    4X4X4X4X4X4X4X4X4X4X4X4X4X4X4X4X4X4X4X4X        4X4X4X4X",
"4X4X4X4X4X4X4X4X4X4X4X4X4X4X4X4X4X4X4X4X4X4X4X4X4X      4X4X4X4X"
};
