/* XPM */
static char *profiledialog[] = {
/* columns rows colors chars-per-pixel */
"16 16 182 2",
"   c black",
".  c #000005",
"X  c #000A0A",
"o  c #00080C",
"O  c #000D0D",
"+  c #000810",
"@  c #000B13",
"#  c #000F17",
"$  c #000C18",
"%  c #051D28",
"&  c #04202C",
"*  c #032234",
"=  c #022533",
"-  c #052232",
";  c #0D2F42",
":  c #063047",
">  c #00304A",
",  c #0E3D4F",
"<  c #133745",
"1  c #153847",
"2  c #1A5174",
"3  c #1D5374",
"4  c #2B5D6F",
"5  c #24617F",
"6  c #1B5D84",
"7  c #006695",
"8  c #0073A2",
"9  c #29658D",
"0  c #256C9F",
"q  c #31749C",
"w  c #36789A",
"e  c #3E7C95",
"r  c #287BA6",
"t  c #098DC6",
"y  c #359DD4",
"u  c #518091",
"i  c #468DBE",
"p  c #5599BA",
"a  c #6C9AAC",
"s  c #69A9BF",
"d  c #4294CE",
"f  c #4B9ACB",
"g  c #4EA7DE",
"h  c #5AADDC",
"j  c #4EA3E4",
"k  c #53ABE9",
"l  c #6AB5DD",
"z  c #77B3CC",
"x  c #63AFF9",
"c  c #63B2E2",
"v  c #6DB5EC",
"b  c #7BBEEA",
"n  c #7BBEEB",
"m  c #74BDFF",
"M  c #7BC3F9",
"N  c #7DC3FF",
"B  c #84B5C7",
"V  c #85CCE6",
"C  c #84C3FF",
"Z  c #87C4FF",
"A  c #86C7FF",
"S  c #82CAFF",
"D  c #8BC7FF",
"F  c #8AC9FF",
"G  c #8ECDFF",
"H  c #90CEE7",
"J  c #97CAFF",
"K  c #91D4FF",
"L  c #94D1FF",
"P  c #97D2FF",
"I  c #94D4FF",
"U  c #97DAFF",
"Y  c #99D4FF",
"T  c #9FDBFF",
"R  c #9CDCFF",
"E  c #9CDDFF",
"W  c #A2CCDB",
"Q  c #A1C9EC",
"!  c #A6CDEA",
"~  c #A4CCEC",
"^  c #A9CAEC",
"/  c #AEDFEC",
"(  c #A3D3FF",
")  c #A2D9FF",
"_  c #A4DEFB",
"`  c #A8D4F5",
"'  c #ABDCFB",
"]  c #ADDAFF",
"[  c #B2CDEC",
"{  c #B6CDED",
"}  c #B2DDFF",
"|  c #B3DDFF",
" . c #B5D8FF",
".. c #B4DCFB",
"X. c #BEDDFB",
"o. c #BFDFFB",
"O. c #BDDDFF",
"+. c #BCDFFF",
"@. c #A3E3FF",
"#. c #AAE4FF",
"$. c #ADE3FB",
"%. c #B0E2F3",
"&. c #B5E5FA",
"*. c #B1E9FF",
"=. c #BEE0FF",
"-. c #BBECFD",
";. c #C8C7D8",
":. c #CDD3E5",
">. c #C9D4E9",
",. c #C5DEF2",
"<. c #D1D7E5",
"1. c #D2DBEA",
"2. c #D5DDEA",
"3. c #D9D9E3",
"4. c #DCDAE7",
"5. c #D8DEEC",
"6. c #DFDEEA",
"7. c #C7E3FF",
"8. c #C9E6F0",
"9. c #C9E3FD",
"0. c #CCE4FC",
"q. c #CDEBFF",
"w. c #C1F1FF",
"e. c #C7F9FF",
"r. c #DDE3EE",
"t. c #DFE5EF",
"y. c #D1E8FF",
"u. c #D3E8FF",
"i. c #DDEDFF",
"p. c #D0F4FF",
"a. c #D5F1FE",
"s. c #DEF3FC",
"d. c #D9FEFF",
"f. c #E1E0E8",
"g. c #E2E2EA",
"h. c #E3E1ED",
"j. c #E1E6EF",
"k. c #E6E4EE",
"l. c #ECEDEF",
"z. c #E6E6F0",
"x. c #E5E8F0",
"c. c #E5EAF1",
"v. c #E7EBF1",
"b. c #E0EEFD",
"n. c #E8E8F1",
"m. c #EBEEF3",
"M. c #ECE9F1",
"N. c #ECECF4",
"B. c #EEEEF5",
"V. c #EFEFF4",
"C. c #EFEFF6",
"Z. c #E2F1FA",
"A. c #EEF1F5",
"S. c #E8F1FE",
"D. c #ECF2FD",
"F. c #ECF6FF",
"G. c #E8F8FF",
"H. c #EBFCFF",
"J. c #F0F0F3",
"K. c #F1F1F7",
"L. c #F3F3F4",
"P. c #F2F2F8",
"I. c #F0F7FD",
"U. c #F4F4F8",
"Y. c #F6F6F9",
"T. c #F7F6F9",
"R. c #F5F5FC",
"E. c #F7F7FD",
"W. c #F6F6FE",
"Q. c azure",
"!. c #F6F9FF",
"~. c #F8F8FB",
"^. c #FAF9FB",
"/. c #F8FFFF",
"(. c #FCFAFC",
"). c #FDFDFE",
"_. c #FCFEFF",
"`. c #FCFFFF",
"'. c #FEFDFD",
"]. c #FEFEFE",
"[. c gray100",
"{. c None",
/* pixels */
"{.{.{.8 t y c b b h r > {.{.{.{.",
"{.{.7 g X.D.R.E.R.E.G.` q X {.{.",
"{.: v i.S.l.L.V.g.<.i.F.q.i + {.",
"# j 7.y.0.A.[.[.A.f.>.0.y.} 0   ",
"6 A O.=.o.m.[.[.A.3.;.{ =. .x * ",
"d A ( } ..v.[.[.U.k.4.[ ] J m 2 ",
"k F G ) ' c.[.~.B.n.6.^ J C N 9 ",
"f J I E _ j.(.K.B.B.j.~ K F S 3 ",
"5 E ) @.$.j.[.U.K.B.k.~ U Y M - ",
"$ l w.*.&.k.[.[.(.U.M.! #.*.w   ",
"{.; V d.a.2.j.r.5.1.:.,.e.p + {.",
"{.{.= s p.H./.[.I.Z.s.%.e o {.{.",
"{.{.{.  1 u B W 8.H.-.,   {.{.{.",
"{.{.{.{.{.    . a /.z   {.{.{.{.",
"{.{.{.{.{.{.{.O H / < {.{.{.{.{.",
"{.{.{.{.{.{.{.& 4 %   {.{.{.{.{."
};
